<svg width="40" height="40" viewBox="0 0 40 40" fill="none" xmlns="http://www.w3.org/2000/svg">
<path fill-rule="evenodd" clip-rule="evenodd" d="M2.34336 31.1957L2.33571 31.1879C1.1091 29.9272 0.5 28.3639 0.5 26.5285V24.7708C0.5 23.1112 0.733948 21.4532 1.20047 19.7979L1.20182 19.7931L1.20328 19.7884C1.72425 18.0886 2.39037 16.4725 3.20192 14.9405L3.20493 14.9349L3.2081 14.9293C4.07761 13.3974 5.09235 11.9781 6.25225 10.6719C7.41073 9.31173 8.65827 8.11879 9.9953 7.0946L10.1188 7H19.4047L18.5342 7.77463C16.6712 9.43236 15.066 11.1142 13.7166 12.8197C12.5342 14.3803 11.6124 16.1046 10.9514 17.9945C12.6103 18.3869 13.8922 19.1536 14.7473 20.3229C15.6618 21.5183 16.1177 22.8948 16.1177 24.436V26.5285C16.1177 28.3706 15.4753 29.9364 14.1888 31.1956C12.9246 32.433 10.9261 33 8.30886 33C5.68907 33 3.66949 32.4319 2.3514 31.2032L2.34336 31.1957ZM10.8083 18.4187C10.6626 18.3849 10.5136 18.354 10.3611 18.326C10.4073 18.1829 10.4549 18.0407 10.5039 17.8994C11.1813 15.9467 12.1314 14.1639 13.3541 12.5508C14.6011 10.9742 16.0613 9.4207 17.7347 7.89041C17.8972 7.74179 18.0617 7.59339 18.2282 7.44521H10.2756C8.96445 8.44959 7.73878 9.62137 6.59862 10.9605C5.45847 12.2439 4.46083 13.6389 3.60571 15.1455C2.8076 16.6521 2.15201 18.2423 1.63894 19.9163C1.18288 21.5345 0.95485 23.1526 0.95485 24.7708V26.5285C0.95485 28.2583 1.52493 29.709 2.66508 30.8808C3.86225 31.9968 5.74351 32.5548 8.30886 32.5548C10.8742 32.5548 12.727 31.9968 13.8671 30.8808C15.0643 29.709 15.6629 28.2583 15.6629 26.5285V24.436C15.6629 22.9853 15.2353 21.7019 14.3802 20.5859C13.5965 19.512 12.4059 18.7896 10.8083 18.4187ZM22.4386 31.1957L22.431 31.1879C21.2044 29.9272 20.5953 28.3639 20.5953 26.5285V24.7708C20.5953 23.1112 20.8292 21.4532 21.2957 19.7979L21.2971 19.7931L21.2985 19.7884C21.8195 18.0886 22.4856 16.4725 23.2972 14.9405L23.3002 14.9349L23.3034 14.9293C24.1729 13.3974 25.1876 11.9781 26.3475 10.672C27.506 9.31175 28.7535 8.11879 30.0906 7.0946L30.2141 7H39.5L38.6294 7.77463C36.7664 9.43236 35.1612 11.1142 33.8118 12.8197C32.6295 14.3803 31.7076 16.1046 31.0466 17.9945C32.7056 18.3869 33.9874 19.1536 34.8425 20.3229C35.757 21.5182 36.213 22.8948 36.213 24.436V26.5285C36.213 28.3706 35.5706 29.9364 34.284 31.1956C33.0199 32.433 31.0213 33 28.4041 33C25.7843 33 23.7648 32.4319 22.4467 31.2032L22.4386 31.1957ZM30.9035 18.4187C30.7579 18.3849 30.6088 18.354 30.4564 18.326C30.5026 18.1829 30.5502 18.0407 30.5992 17.8994C31.2766 15.9467 32.2266 14.1639 33.4493 12.5508C34.6964 10.9742 36.1566 9.4207 37.8299 7.89041C37.9924 7.74179 38.1569 7.59339 38.3235 7.44521H30.3709C29.0597 8.44959 27.834 9.62137 26.6939 10.9605C25.5537 12.2439 24.5561 13.6389 23.701 15.1455C22.9029 16.6521 22.2473 18.2423 21.7342 19.9163C21.2781 21.5345 21.0501 23.1526 21.0501 24.7708V26.5285C21.0501 28.2583 21.6202 29.709 22.7603 30.8808C23.9575 31.9968 25.8388 32.5548 28.4041 32.5548C30.9695 32.5548 32.8222 31.9968 33.9624 30.8808C35.1595 29.709 35.7581 28.2583 35.7581 26.5285V24.436C35.7581 22.9853 35.3306 21.7019 34.4755 20.5859C33.6918 19.512 32.5011 18.7896 30.9035 18.4187Z" fill="#181818"/>
</svg>
