<?xml version="1.0" encoding="utf-8"?>
<!-- Generator: Adobe Illustrator 24.1.2, SVG Export Plug-In . SVG Version: 6.00 Build 0)  -->
<svg version="1.1" id="Слой_1" xmlns="http://www.w3.org/2000/svg" xmlns:xlink="http://www.w3.org/1999/xlink" x="0px" y="0px"
	 width="500px" height="500px" viewBox="0 0 500 500" enable-background="new 0 0 500 500" xml:space="preserve">
<path fill="#E13737" d="M50,500h350v-33.3H50c-4.4,0-8.7-1.8-11.8-4.9c-3.1-3.1-4.9-7.4-4.9-11.8V108.3H0V450
	c0,13.3,5.3,26,14.7,35.3C24,494.7,36.7,500,50,500z M466.7,366.7H500V400h-33.3V366.7z"/>
<path fill="#E13737" d="M163.6,366.7h30.3V400h-30.3V366.7z M406.1,366.7h30.3V400h-30.3V366.7z M224.2,366.7h30.3V400h-30.3V366.7z
	 M284.9,366.7h30.3V400h-30.3V366.7z M345.5,366.7h30.3V400h-30.3V366.7z M100,366.7h33.3V400H100V366.7z M100,124.2h33.3v30.3H100
	V124.2z M100,63.6h33.3v30.3H100V63.6z M100,306.1h33.3v30.3H100V306.1z M100,245.5h33.3v30.3H100V245.5z M100,184.8h33.3v30.3H100
	V184.8z M100,0h33.3v33.3H100V0z M284.8,0h30.3v33.3h-30.3V0z M224.2,0h30.3v33.3h-30.3V0z M406.1,0h30.3v33.3h-30.3V0z M163.6,0
	h30.3v33.3h-30.3V0z M345.5,0h30.3v33.3h-30.3V0z M466.7,0H500v33.3h-33.3V0z M466.7,306.1H500v30.3h-33.3V306.1z M466.7,63.6H500
	v30.3h-33.3V63.6z M466.7,184.8H500v30.3h-33.3V184.8z M466.7,124.2H500v30.3h-33.3V124.2z M466.7,245.5H500v30.3h-33.3V245.5z"/>
</svg>
