<svg width="125" height="80" viewBox="0 0 125 80" fill="none" xmlns="http://www.w3.org/2000/svg">
<path d="M99.1123 32.4965L103.739 29.126H88.2559V49.3677H103.739V45.9971H92.6742V40.8146H102.112V37.4453H92.6742V32.4965H99.1123Z" fill="#151515"/>
<path d="M76.571 37.0161H71.1946V32.4965H79.7785L84.404 29.126H66.7754V49.3729H75.9951C81.1688 49.3729 84.137 47.0564 84.137 43.0148C84.1432 39.1451 81.4555 37.0161 76.571 37.0161ZM75.8013 45.9971H71.1946V40.3919H75.8013C78.6079 40.3919 79.9133 41.3297 79.9133 43.1971C79.9133 45.099 78.5302 45.9971 75.8013 45.9971Z" fill="#151515"/>
<path d="M116.284 29.127H107.854V49.3727H112.273V43.6407H116.281C121.66 43.6407 125.001 40.8447 125.001 36.3766C125.001 31.9085 121.667 29.127 116.284 29.127ZM116.189 40.2596H112.273V32.4962H116.189C119.02 32.4962 120.578 33.875 120.578 36.3792C120.578 38.8833 119.02 40.2596 116.189 40.2596Z" fill="#151515"/>
<path d="M59.1923 44.9848C58.0207 45.6121 56.709 45.9369 55.3767 45.9291C51.3941 45.9291 48.5023 43.1199 48.5023 39.2474C48.5023 35.375 51.3941 32.5644 55.3767 32.5644C56.8188 32.5428 58.2288 32.9783 59.4021 33.8072L62.5712 31.4986L62.3613 31.3177C60.5111 29.7103 58.0386 28.8611 55.2115 28.8611C52.138 28.8611 49.3629 29.8833 47.376 31.739C45.3891 33.5946 44.2773 36.2295 44.2773 39.1352C44.2773 42.0408 45.373 44.7166 47.3652 46.6409C49.3575 48.5652 52.1344 49.6377 55.1776 49.6377C58.3636 49.6377 61.1451 48.5402 63.031 46.5432L60.1709 44.4591L59.1923 44.9848Z" fill="#151515"/>
<path d="M30.4816 28.9626C31.2899 29.9956 31.9742 31.1178 32.5207 32.3067L17.0208 43.6004L10.543 39.5867V34.758L17.0208 38.7718L30.4816 28.9626Z" fill="#151515"/>
<path d="M3.93112 39.2464C3.93112 39.0298 3.93647 38.8146 3.9471 38.6006L0.0213455 38.4104C0.0080406 38.6877 4.8942e-06 38.9678 4.8942e-06 39.2504C-0.00169171 41.4585 0.437729 43.6451 1.29299 45.6849C2.14826 47.7247 3.40258 49.5775 4.98399 51.1371L7.76865 48.386C6.55129 47.1876 5.58566 45.7633 4.92702 44.1948C4.26847 42.6263 3.93005 40.9446 3.93112 39.2464Z" fill="#151515"/>
<path d="M17.0168 26.3122C17.236 26.3122 17.4538 26.3202 17.6702 26.3307L17.8667 22.449C17.5851 22.4358 17.3019 22.4292 17.0168 22.4292C14.7819 22.4265 12.5684 22.8602 10.5036 23.7054C8.43874 24.5506 6.56311 25.7906 4.98438 27.3542L7.76903 30.1067C8.98148 28.9031 10.4227 27.9483 12.0097 27.2971C13.5968 26.6459 15.2985 26.3112 17.0168 26.3122Z" fill="#151515"/>
<path d="M17.0152 52.1806C16.7961 52.1806 16.5783 52.1806 16.3605 52.1635L16.1641 56.0438C16.4465 56.0579 16.7302 56.065 17.0152 56.065C19.2492 56.0673 21.4617 55.6332 23.5254 54.7878C25.5891 53.9423 27.4636 52.7023 29.041 51.1386L26.2617 48.3875C25.0492 49.5905 23.608 50.5449 22.0213 51.1958C20.4345 51.8467 18.7333 52.1814 17.0152 52.1806Z" fill="#151515"/>
<path d="M24.3928 28.5692L27.7013 26.1589C24.6774 23.7385 20.9026 22.4211 17.0117 22.4278V26.3121C19.6464 26.3088 22.2202 27.096 24.3928 28.5692Z" fill="#151515"/>
<path d="M34.0333 39.2463C34.0354 38.2358 33.946 37.2271 33.766 36.2324L30.1035 38.9003C30.1035 39.0152 30.1035 39.1302 30.1035 39.2463C30.1045 41.0535 29.7212 42.8407 28.9787 44.492C28.2361 46.1434 27.1507 47.6221 25.793 48.8323L28.4346 51.7181C30.1998 50.1431 31.6104 48.2189 32.5749 46.0703C33.5394 43.9218 34.0362 41.5969 34.0333 39.2463Z" fill="#151515"/>
<path d="M17.016 52.1804C15.1876 52.1811 13.3795 51.8022 11.7086 51.0682C10.0378 50.3342 8.54145 49.2616 7.31668 47.9197L4.39844 50.5295C5.99181 52.2745 7.93844 53.6691 10.1121 54.6226C12.2858 55.5762 14.638 56.0675 17.016 56.0647V52.1804Z" fill="#151515"/>
<path d="M8.24166 29.6598L5.60139 26.7739C3.83567 28.3487 2.42455 30.2728 1.45963 32.4213C0.494705 34.5699 -0.00257949 36.895 1.00618e-05 39.2457H3.93113C3.93033 37.4386 4.31358 35.6514 5.05616 34.0001C5.79873 32.3488 6.88402 30.87 8.24166 29.6598Z" fill="#151515"/>
</svg>
