<svg width="120" height="80" viewBox="0 0 120 80" fill="none" xmlns="http://www.w3.org/2000/svg">
<path d="M4.74512 63.9285L5.57608 63.8454C5.57608 64.1778 5.57608 64.4271 5.65917 64.6764C5.74227 64.8426 5.90846 65.0919 6.24085 65.175C6.49013 65.3412 6.82252 65.3412 7.238 65.3412C7.57038 65.3412 7.90277 65.2581 8.15206 65.175C8.40135 65.0919 8.65063 64.9257 8.81683 64.7595C8.98302 64.5933 9.06611 64.4271 9.14921 64.1778C9.14921 64.0116 9.14921 63.7623 9.06611 63.6792C8.98302 63.513 8.81683 63.4299 8.56754 63.2638C8.40135 63.1807 8.06896 63.0976 7.48729 62.9314C6.90562 62.7652 6.49013 62.6821 6.32394 62.5159C6.07465 62.3497 5.82537 62.1835 5.74227 61.9342C5.65917 61.6849 5.57608 61.4356 5.65917 61.1033C5.74227 60.7709 5.90846 60.4385 6.15775 60.1892C6.40704 59.9399 6.73942 59.6906 7.07181 59.5244C7.48729 59.3582 7.90277 59.2751 8.31825 59.2751C8.81683 59.2751 9.23231 59.3582 9.56469 59.5244C9.89707 59.6906 10.1464 59.9399 10.3126 60.1892C10.4787 60.5216 10.4787 60.854 10.4787 61.1864L9.64779 61.2695C9.64779 60.854 9.56469 60.5216 9.3985 60.3554C9.14921 60.1061 8.81683 60.023 8.31825 60.023C7.81967 60.023 7.40419 60.1061 7.07181 60.2723C6.82252 60.4385 6.65633 60.6878 6.57323 60.9371C6.49014 61.1864 6.57323 61.3525 6.73942 61.5187C6.90562 61.6849 7.3211 61.8511 7.98586 62.0173C8.65063 62.1835 9.14921 62.3497 9.3985 62.4328C9.73088 62.599 9.98017 62.8483 10.1464 63.0976C10.3126 63.3469 10.3126 63.6792 10.2295 64.0116C10.1464 64.344 9.98017 64.6764 9.73088 65.0088C9.4816 65.3412 9.14921 65.5904 8.73373 65.7566C8.31825 65.9228 7.90277 66.0059 7.40419 66.0059C6.82252 66.0059 6.32394 65.9228 5.99156 65.7566C5.65917 65.5904 5.32679 65.3412 5.1606 65.0088C4.74512 64.7595 4.74512 64.344 4.74512 63.9285Z" fill="#151515"/>
<path d="M12.4734 65.2581V65.9229C12.2241 66.006 12.0579 66.006 11.8086 66.006C11.4762 66.006 11.31 65.9229 11.1438 65.8398C10.9776 65.7567 10.8945 65.5905 10.8945 65.5074C10.8945 65.3412 10.8945 65.0088 10.9776 64.5933L11.4762 61.9343H10.8945L10.9776 61.3526H11.5593L11.8086 60.1892L12.7226 59.6907L12.3903 61.3526H13.2212L13.1381 61.9343H12.3072L11.8086 64.6764C11.7255 64.8426 11.7255 65.0088 11.7255 65.0919C11.7255 65.175 11.8086 65.175 11.8086 65.2581C11.8917 65.2581 11.9748 65.3412 12.0579 65.3412C12.2241 65.2581 12.3072 65.2581 12.4734 65.2581Z" fill="#151515"/>
<path d="M13.2207 66.006L14.1348 61.3526H14.8826L14.7164 62.1005C14.9657 61.7681 15.215 61.5188 15.3812 61.4357C15.5474 61.3526 15.7136 61.2695 15.9629 61.2695C16.2122 61.2695 16.4614 61.3526 16.7107 61.5188L16.2953 62.2667C16.1291 62.1836 15.9629 62.1005 15.7136 62.1005C15.5474 62.1005 15.3812 62.1836 15.215 62.2667C15.0488 62.3498 14.9657 62.516 14.7995 62.6822C14.6333 62.9314 14.5502 63.2638 14.4671 63.5962L13.9686 66.006H13.2207Z" fill="#151515"/>
<path d="M19.5366 65.4244C19.2043 65.6737 18.8719 65.8399 18.5395 65.923C18.2071 66.0061 17.9578 66.0892 17.6254 66.0892C17.1269 66.0892 16.7114 65.923 16.4621 65.6737C16.2128 65.4244 16.1297 65.092 16.2128 64.6766C16.2959 64.4273 16.379 64.2611 16.4621 64.0118C16.6283 63.8456 16.7945 63.6794 16.9607 63.5963C17.1269 63.5132 17.3761 63.4301 17.6254 63.347C17.7916 63.347 18.0409 63.2639 18.3733 63.2639C19.0381 63.1808 19.5366 63.0977 19.869 63.0146C19.869 62.9315 19.869 62.8484 19.9521 62.8484C20.0352 62.5161 19.9521 62.2668 19.869 62.1837C19.7028 62.0175 19.3704 61.9344 19.0381 61.9344C18.6226 61.9344 18.3733 62.0175 18.124 62.1006C17.9578 62.2668 17.7085 62.433 17.6254 62.7653L16.8776 62.6823C17.0438 62.3499 17.21 62.1006 17.3761 61.8513C17.5423 61.6851 17.8747 61.5189 18.2071 61.3527C18.5395 61.2696 18.8719 61.1865 19.2874 61.1865C19.7028 61.1865 20.0352 61.2696 20.2845 61.3527C20.5338 61.4358 20.7 61.602 20.7831 61.6851C20.8662 61.8513 20.9493 62.0175 20.9493 62.2668C20.9493 62.433 20.9493 62.6823 20.8662 63.0146L20.7 64.0949C20.5338 64.8427 20.4507 65.2582 20.4507 65.5075C20.4507 65.6737 20.4507 65.923 20.5338 66.0892H19.7028C19.5366 65.8399 19.5366 65.5906 19.5366 65.4244ZM19.7859 63.5963C19.4535 63.6794 19.0381 63.8456 18.3733 63.9287C18.0409 64.0118 17.7916 64.0118 17.6254 64.0949C17.4592 64.178 17.3761 64.2611 17.2931 64.3442C17.21 64.4273 17.1269 64.5935 17.1269 64.7597C17.1269 65.0089 17.1269 65.1751 17.2931 65.2582C17.4592 65.4244 17.6254 65.5075 17.9578 65.5075C18.2902 65.5075 18.5395 65.4244 18.7888 65.3413C19.0381 65.1751 19.2874 65.0089 19.4535 64.7597C19.5366 64.5935 19.7028 64.3442 19.7028 63.9287L19.7859 63.5963Z" fill="#151515"/>
<path d="M23.1921 65.2581V65.9229C22.9428 66.006 22.7766 66.006 22.5273 66.006C22.195 66.006 22.0288 65.9229 21.8626 65.8398C21.6964 65.7567 21.6133 65.5905 21.6133 65.5074C21.6133 65.3412 21.6133 65.0088 21.6964 64.5933L22.195 61.9343H21.6964L21.7795 61.3526H22.3611L22.6104 60.1892L23.5245 59.6907L23.1921 61.3526H24.0231L23.94 61.9343H23.109L22.5273 64.6764C22.4442 64.9257 22.4442 65.0088 22.4442 65.0919C22.4442 65.175 22.5273 65.175 22.5273 65.2581C22.6104 65.2581 22.6935 65.3412 22.7766 65.3412C22.9428 65.2581 23.109 65.2581 23.1921 65.2581Z" fill="#151515"/>
<path d="M27.3473 64.5104L28.1782 64.5935C27.929 65.092 27.5966 65.4244 27.2642 65.6737C26.8487 65.923 26.3501 66.0892 25.8515 66.0892C25.1868 66.0892 24.6051 65.8399 24.3558 65.4244C24.0234 65.0089 23.9403 64.4273 24.1065 63.6794C24.2727 62.9315 24.6051 62.2668 25.1037 61.8513C25.6023 61.4358 26.1839 61.1865 26.8487 61.1865C27.5135 61.1865 27.929 61.4358 28.2613 61.8513C28.5937 62.2668 28.6768 62.8484 28.5106 63.6794C28.5106 63.7625 28.5106 63.7625 28.4275 63.9287H24.8544C24.7713 64.4273 24.8544 64.8428 25.1037 65.092C25.353 65.3413 25.6023 65.5075 26.0177 65.5075C26.3501 65.5075 26.5994 65.4244 26.8487 65.2582C26.9318 65.0089 27.1811 64.8427 27.3473 64.5104ZM24.9375 63.1808H27.5966C27.5966 62.7653 27.5966 62.5161 27.4304 62.2668C27.2642 61.9344 26.9318 61.7682 26.5163 61.7682C26.1839 61.7682 25.7685 61.8513 25.5192 62.1006C25.2699 62.433 25.1037 62.7653 24.9375 63.1808Z" fill="#151515"/>
<path d="M28.5937 66.3383L29.3415 66.4214C29.3415 66.6707 29.4246 66.8369 29.5077 66.92C29.6739 67.0862 29.9232 67.1693 30.2556 67.1693C30.6711 67.1693 30.9204 67.0862 31.1696 66.92C31.4189 66.7538 31.5851 66.5876 31.6682 66.3383C31.7513 66.1721 31.8344 65.8397 31.9175 65.3412C31.502 65.7567 31.0034 65.9228 30.5049 65.9228C29.8401 65.9228 29.4246 65.6736 29.0922 65.2581C28.843 64.7595 28.7599 64.2609 28.8429 63.5962C28.926 63.1807 29.0922 62.7652 29.3415 62.3497C29.5908 61.9342 29.8401 61.6849 30.2556 61.4357C30.588 61.2695 31.0034 61.1033 31.4189 61.1033C32.0006 61.1033 32.4161 61.3526 32.6654 61.768L32.7485 61.1864H33.4963L32.7485 65.2581C32.5823 66.0059 32.4161 66.5045 32.2499 66.8369C32.0006 67.1693 31.7513 67.4186 31.4189 67.5848C31.0865 67.751 30.6711 67.8341 30.1725 67.8341C29.5908 67.8341 29.1753 67.6679 28.8429 67.4186C28.5937 67.2524 28.5106 66.8369 28.5937 66.3383ZM29.8401 63.5131C29.757 64.0947 29.757 64.5933 29.9232 64.8426C30.0894 65.0919 30.4218 65.2581 30.7542 65.2581C31.0865 65.2581 31.502 65.0919 31.7513 64.8426C32.0837 64.5933 32.2499 64.0947 32.4161 63.5131C32.4992 62.9314 32.4992 62.5159 32.2499 62.1835C32.0837 61.8511 31.7513 61.768 31.4189 61.768C31.0865 61.768 30.7542 61.9342 30.4218 62.1835C30.1725 62.599 29.9232 63.0145 29.8401 63.5131Z" fill="#151515"/>
<path d="M33.7451 66.0061L34.6592 61.3528H35.4901L34.5761 66.0061H33.7451ZM34.8254 60.4387L34.9916 59.5247H35.8225L35.6563 60.4387H34.8254Z" fill="#151515"/>
<path d="M39.1471 64.2609L39.895 64.344C39.7288 64.8426 39.3964 65.3412 38.9809 65.5905C38.5654 65.9228 38.0668 66.0059 37.5683 66.0059C36.9035 66.0059 36.4049 65.7567 36.1556 65.3412C35.8232 64.9257 35.7401 64.344 35.9063 63.5131C35.9894 63.0145 36.1556 62.599 36.4049 62.1835C36.6542 61.768 36.9866 61.5188 37.319 61.3526C37.7345 61.1864 38.0668 61.1033 38.4823 61.1033C38.9809 61.1033 39.3964 61.2695 39.6457 61.5188C39.8949 61.768 40.0611 62.1004 40.0611 62.599L39.2302 62.6821C39.2302 62.3497 39.1471 62.1004 38.9809 61.9342C38.8147 61.768 38.6485 61.6849 38.3161 61.6849C37.9006 61.6849 37.5683 61.8511 37.2359 62.1004C36.9035 62.3497 36.7373 62.8483 36.5711 63.43C36.6542 64.2609 36.6542 64.7595 36.8204 65.0088C36.9866 65.2581 37.319 65.4243 37.7345 65.4243C38.0668 65.4243 38.3161 65.3412 38.5654 65.175C38.8147 64.9257 38.9809 64.6764 39.1471 64.2609Z" fill="#151515"/>
<path d="M42.2217 66.0061L43.4681 59.5247H45.961C46.4596 59.5247 46.8751 59.6078 47.1244 59.6909C47.3736 59.857 47.6229 60.0232 47.706 60.2725C47.7891 60.5218 47.8722 60.8542 47.7891 61.1035C47.706 61.3528 47.6229 61.6021 47.3736 61.8513C47.2075 62.1006 46.8751 62.2668 46.5427 62.433C46.9582 62.5161 47.2075 62.7654 47.3736 63.0147C47.5398 63.264 47.5398 63.5964 47.5398 64.0118C47.4567 64.3442 47.3736 64.5935 47.2075 64.8428C47.0413 65.0921 46.792 65.3414 46.6258 65.4245C46.3765 65.5907 46.1272 65.6738 45.8779 65.7569C45.5455 65.84 45.2131 65.84 44.7977 65.84H42.2217V66.0061ZM43.2188 65.1752H44.8808C45.13 65.1752 45.3793 65.1752 45.4624 65.1752C45.6286 65.1752 45.8779 65.0921 45.961 65.009C46.1272 64.9259 46.2103 64.8428 46.3765 64.6766C46.4596 64.5104 46.5427 64.3442 46.6258 64.0949C46.7089 63.8456 46.6258 63.6795 46.5427 63.4302C46.4596 63.264 46.2934 63.0978 46.1272 63.0147C45.8779 62.9316 45.6286 62.9316 45.2131 62.9316H43.7174L43.2188 65.1752ZM43.8005 62.2668H45.2131C45.6286 62.2668 45.8779 62.2668 46.0441 62.1837C46.2934 62.1006 46.4596 62.0175 46.6258 61.8513C46.792 61.6852 46.8751 61.519 46.8751 61.2697C46.9582 61.0204 46.8751 60.8542 46.792 60.688C46.7089 60.5218 46.6258 60.4387 46.3765 60.3556C46.2103 60.2725 45.8779 60.2725 45.3793 60.2725H44.0498L43.8005 62.2668Z" fill="#151515"/>
<path d="M51.0295 66.0062L51.1956 65.3414C50.6971 65.84 50.1985 66.1724 49.5337 66.1724C49.2844 66.1724 49.0351 66.0893 48.7859 66.0062C48.5366 65.9231 48.3704 65.7569 48.2873 65.5907C48.2042 65.4245 48.1211 65.2583 48.1211 65.009C48.1211 64.8428 48.1211 64.5935 48.2042 64.2611L48.7859 61.3528H49.6168L49.1182 63.9288C49.0352 64.3442 49.0352 64.5935 49.0352 64.7597C49.0352 65.009 49.1182 65.0921 49.2844 65.2583C49.4506 65.3414 49.6168 65.4245 49.8661 65.4245C50.1154 65.4245 50.3647 65.3414 50.614 65.2583C50.8633 65.1752 51.0295 65.009 51.1956 64.7597C51.3618 64.5104 51.4449 64.2611 51.528 63.8457L52.0266 61.3528H52.8576L51.9435 66.0062H51.0295Z" fill="#151515"/>
<path d="M52.6914 64.5934L53.5224 64.5103C53.5224 64.8427 53.6055 65.0919 53.7716 65.2581C53.9378 65.4243 54.1871 65.5074 54.6026 65.5074C54.935 65.5074 55.2674 65.4243 55.4336 65.2581C55.6829 65.0919 55.766 64.9258 55.766 64.7596C55.766 64.5934 55.766 64.4272 55.5998 64.3441C55.5167 64.261 55.2674 64.1779 54.8519 64.0948C54.2702 63.9286 53.9378 63.8455 53.6886 63.6793C53.4393 63.5962 53.3562 63.43 53.2731 63.2638C53.19 63.0976 53.19 62.8484 53.19 62.5991C53.19 62.3498 53.3562 62.1836 53.4393 62.0174C53.6055 61.8512 53.7717 61.685 53.9378 61.6019C54.104 61.5188 54.2702 61.4357 54.5195 61.3526C54.7688 61.2695 55.0181 61.2695 55.2674 61.2695C55.6829 61.2695 55.9321 61.3526 56.1814 61.4357C56.4307 61.5188 56.5969 61.685 56.7631 61.8512C56.8462 62.0174 56.9293 62.2667 56.9293 62.5991L56.0983 62.6822C56.0983 62.4329 56.0152 62.2667 55.9321 62.1005C55.7659 61.9343 55.5167 61.9343 55.2674 61.9343C54.935 61.9343 54.6026 62.0174 54.4364 62.1005C54.2702 62.1836 54.1871 62.3498 54.104 62.516C54.104 62.5991 54.104 62.6822 54.1871 62.7653C54.2702 62.8484 54.3533 62.9315 54.4364 63.0145C54.5195 63.0145 54.7688 63.0976 55.1012 63.1807C55.6829 63.3469 56.0152 63.43 56.2645 63.5131C56.4307 63.5962 56.5969 63.7624 56.68 63.9286C56.7631 64.0948 56.7631 64.3441 56.7631 64.5934C56.68 64.8427 56.5969 65.0919 56.3476 65.3412C56.1814 65.5905 55.849 65.7567 55.5998 65.9229C55.2674 66.0891 54.935 66.0891 54.5195 66.0891C53.9378 66.0891 53.4393 65.9229 53.19 65.6736C52.8576 65.4243 52.6914 65.0919 52.6914 64.5934Z" fill="#151515"/>
<path d="M57.0957 66.0061L58.0098 61.3528H58.8407L57.9267 66.0061H57.0957ZM58.176 60.4387L58.3421 59.5247H59.1731L59.0069 60.4387H58.176Z" fill="#151515"/>
<path d="M58.9238 66.006L59.8379 61.3526H60.5858L60.4196 62.0174C60.835 61.5188 61.4167 61.2695 62.0815 61.2695C62.3308 61.2695 62.6632 61.3526 62.8293 61.4357C63.0786 61.5188 63.2448 61.685 63.3279 61.8512C63.411 62.0174 63.4941 62.1836 63.4941 62.4329C63.4941 62.5991 63.4941 62.8484 63.411 63.1807L62.8293 66.0891H61.9984L62.5801 63.2638C62.6632 62.9314 62.6632 62.6822 62.6632 62.516C62.6632 62.3498 62.5801 62.2667 62.4139 62.1005C62.2477 62.0174 62.0815 61.9343 61.9153 61.9343C61.5829 61.9343 61.2505 62.0174 61.0012 62.2667C60.6688 62.516 60.5027 62.8484 60.4196 63.5131L59.921 66.0891H58.9238V66.006Z" fill="#151515"/>
<path d="M67.316 64.5104L68.147 64.5935C67.8977 65.092 67.5653 65.4244 67.2329 65.6737C66.8174 65.923 66.3189 66.0892 65.8203 66.0892C65.1555 66.0892 64.5739 65.8399 64.3246 65.4244C63.9922 65.0089 63.9091 64.4273 64.0753 63.6794C64.2415 62.9315 64.5739 62.2668 65.0724 61.8513C65.571 61.4358 66.1527 61.1865 66.8174 61.1865C67.4822 61.1865 67.8977 61.4358 68.2301 61.8513C68.5625 62.2668 68.6456 62.8484 68.4794 63.6794C68.4794 63.7625 68.4794 63.7625 68.3963 63.9287H64.8231C64.7401 64.4273 64.8231 64.8428 65.0724 65.092C65.3217 65.3413 65.571 65.5075 65.9865 65.5075C66.3189 65.5075 66.5682 65.4244 66.8174 65.2582C66.9836 65.0089 67.1498 64.8427 67.316 64.5104ZM64.9062 63.1808H67.5653C67.5653 62.7653 67.5653 62.5161 67.3991 62.2668C67.2329 61.9344 66.9005 61.7682 66.4851 61.7682C66.1527 61.7682 65.7372 61.8513 65.4879 62.1006C65.2386 62.433 65.0724 62.7653 64.9062 63.1808Z" fill="#151515"/>
<path d="M68.7295 64.5934L69.5605 64.5103C69.5605 64.8427 69.6436 65.0919 69.8097 65.2581C69.9759 65.4243 70.2252 65.5074 70.6407 65.5074C70.9731 65.5074 71.3055 65.4243 71.4717 65.2581C71.721 65.0919 71.8041 64.9258 71.8041 64.7596C71.8041 64.5934 71.8041 64.4272 71.6379 64.3441C71.5548 64.261 71.3055 64.1779 70.89 64.0948C70.3083 63.9286 69.9759 63.8455 69.7267 63.6793C69.4774 63.5962 69.3943 63.43 69.3112 63.2638C69.2281 63.0976 69.2281 62.8484 69.2281 62.5991C69.2281 62.3498 69.3943 62.1836 69.4774 62.0174C69.6436 61.8512 69.8097 61.685 69.9759 61.6019C70.1421 61.5188 70.3083 61.4357 70.5576 61.3526C70.8069 61.2695 71.0562 61.2695 71.3055 61.2695C71.721 61.2695 71.9702 61.3526 72.2195 61.4357C72.4688 61.5188 72.635 61.685 72.8012 61.8512C72.8843 62.0174 72.9674 62.2667 72.9674 62.5991L72.1364 62.6822C72.1364 62.4329 72.0533 62.2667 71.9702 62.1005C71.8041 61.9343 71.5548 61.9343 71.3055 61.9343C70.9731 61.9343 70.6407 62.0174 70.4745 62.1005C70.3083 62.1836 70.2252 62.3498 70.1421 62.516C70.1421 62.5991 70.1421 62.6822 70.2252 62.7653C70.3083 62.8484 70.3914 62.9315 70.4745 63.0145C70.5576 63.0145 70.8069 63.0976 71.1393 63.1807C71.721 63.3469 72.0533 63.43 72.3026 63.5131C72.4688 63.5962 72.635 63.7624 72.7181 63.9286C72.8012 64.0948 72.8012 64.3441 72.8012 64.5934C72.7181 64.8427 72.635 65.0919 72.3857 65.3412C72.2195 65.5905 71.8871 65.7567 71.6379 65.9229C71.3055 66.0891 70.9731 66.0891 70.5576 66.0891C69.9759 66.0891 69.4774 65.9229 69.2281 65.6736C68.8126 65.4243 68.7295 65.0919 68.7295 64.5934Z" fill="#151515"/>
<path d="M73.1328 64.5934L73.9638 64.5103C73.9638 64.8427 74.0469 65.0919 74.2131 65.2581C74.3793 65.4243 74.6285 65.5074 75.044 65.5074C75.3764 65.5074 75.7088 65.4243 75.875 65.2581C76.1243 65.0919 76.2074 64.9258 76.2074 64.7596C76.2074 64.5934 76.2074 64.4272 76.0412 64.3441C75.9581 64.261 75.7088 64.1779 75.2933 64.0948C74.7116 63.9286 74.3793 63.8455 74.13 63.6793C73.8807 63.5962 73.7976 63.43 73.7145 63.2638C73.6314 63.0976 73.6314 62.8484 73.6314 62.5991C73.6314 62.3498 73.7976 62.1836 73.8807 62.0174C74.0469 61.8512 74.2131 61.685 74.3793 61.6019C74.5454 61.5188 74.7116 61.4357 74.9609 61.3526C75.2102 61.2695 75.4595 61.2695 75.7088 61.2695C76.1243 61.2695 76.3736 61.3526 76.6228 61.4357C76.8721 61.5188 77.0383 61.685 77.2045 61.8512C77.2876 62.0174 77.3707 62.2667 77.3707 62.5991L76.5398 62.6822C76.5398 62.4329 76.4567 62.2667 76.3736 62.1005C76.2074 61.9343 75.9581 61.9343 75.7088 61.9343C75.3764 61.9343 75.044 62.0174 74.8778 62.1005C74.7116 62.1836 74.6285 62.3498 74.5454 62.516C74.5454 62.5991 74.5454 62.6822 74.6285 62.7653C74.7116 62.8484 74.7947 62.9315 74.8778 63.0145C74.9609 63.0145 75.2102 63.0976 75.5426 63.1807C76.1243 63.3469 76.4567 63.43 76.7059 63.5131C76.8721 63.5962 77.0383 63.7624 77.1214 63.9286C77.2045 64.0948 77.2045 64.3441 77.2045 64.5934C77.1214 64.8427 77.0383 65.0919 76.789 65.3412C76.6228 65.5905 76.2905 65.7567 76.0412 65.9229C75.7088 66.0891 75.3764 66.0891 74.9609 66.0891C74.3793 66.0891 73.8807 65.9229 73.6314 65.6736C73.299 65.4243 73.1328 65.0919 73.1328 64.5934Z" fill="#151515"/>
<path d="M79.5312 66.0061L80.7777 59.5247H81.6087L80.3622 66.0061H79.5312Z" fill="#151515"/>
<path d="M81.3594 66.006L82.2734 61.3526H83.0213L82.8551 62.0174C83.2706 61.5188 83.8523 61.2695 84.517 61.2695C84.7663 61.2695 85.0987 61.3526 85.2649 61.4357C85.5142 61.5188 85.6804 61.685 85.7635 61.8512C85.8466 62.0174 85.9297 62.1836 85.9297 62.4329C85.9297 62.5991 85.9297 62.8484 85.8466 63.1807L85.2649 66.0891H84.4339L85.0156 63.2638C85.0987 62.9314 85.0987 62.6822 85.0987 62.516C85.0987 62.3498 85.0156 62.2667 84.8494 62.1005C84.6832 62.0174 84.517 61.9343 84.3508 61.9343C84.0184 61.9343 83.6861 62.0174 83.4368 62.2667C83.1044 62.516 82.9382 62.8484 82.8551 63.5131L82.3565 66.0891H81.3594V66.006Z" fill="#151515"/>
<path d="M86.0957 66.006L87.0098 61.3526H87.7576L87.5914 62.0174C88.0069 61.5188 88.5886 61.2695 89.2534 61.2695C89.5026 61.2695 89.835 61.3526 90.0012 61.4357C90.2505 61.5188 90.4167 61.685 90.4998 61.8512C90.5829 62.0174 90.666 62.1836 90.666 62.4329C90.666 62.5991 90.666 62.8484 90.5829 63.1807L90.0012 66.0891H89.1703L89.7519 63.2638C89.835 62.9314 89.835 62.6822 89.835 62.516C89.835 62.3498 89.7519 62.2667 89.5857 62.1005C89.4195 62.0174 89.2534 61.9343 89.0872 61.9343C88.7548 61.9343 88.4224 62.0174 88.1731 62.2667C87.8407 62.516 87.6745 62.8484 87.5914 63.5131L87.0929 66.0891H86.0957V66.006Z" fill="#151515"/>
<path d="M90.9988 63.5963C91.165 62.7653 91.4974 62.1006 92.079 61.6851C92.5776 61.3527 93.0762 61.1865 93.6579 61.1865C94.3227 61.1865 94.8212 61.4358 95.1536 61.8513C95.486 62.2668 95.5691 62.8484 95.4029 63.5963C95.3198 64.178 95.0705 64.6766 94.8212 65.0089C94.572 65.3413 94.2396 65.5906 93.8241 65.8399C93.4086 66.0061 92.9931 66.0892 92.5776 66.0892C91.9129 66.0892 91.4143 65.8399 91.0819 65.4244C90.9157 65.0089 90.8326 64.4273 90.9988 63.5963ZM91.8298 63.5963C91.7467 64.178 91.7467 64.6766 91.996 64.9258C92.2452 65.2582 92.4945 65.3413 92.91 65.3413C93.3255 65.3413 93.6579 65.1751 93.9903 64.9258C94.3227 64.5935 94.572 64.178 94.6551 63.5963C94.7381 63.0146 94.7381 62.5992 94.4889 62.2668C94.2396 61.9344 93.9903 61.8513 93.5748 61.8513C93.1593 61.8513 92.8269 62.0175 92.4945 62.2668C92.1621 62.5992 91.996 63.0146 91.8298 63.5963Z" fill="#151515"/>
<path d="M96.8984 66.0062L95.9844 61.3528H96.8153L97.3139 64.1781C97.397 64.5104 97.397 64.7597 97.397 65.0921C97.4801 64.8428 97.6463 64.5104 97.8956 64.1781L99.4744 61.3528H100.305L97.5632 66.0062H96.8984Z" fill="#151515"/>
<path d="M103.131 65.4244C102.799 65.6737 102.467 65.8399 102.134 65.923C101.802 66.0061 101.553 66.0892 101.22 66.0892C100.722 66.0892 100.306 65.923 100.057 65.6737C99.8075 65.4244 99.7244 65.092 99.8075 64.6766C99.8906 64.4273 99.9737 64.2611 100.057 64.0118C100.223 63.8456 100.389 63.6794 100.555 63.5963C100.722 63.5132 100.971 63.4301 101.22 63.347C101.386 63.347 101.636 63.2639 101.968 63.2639C102.633 63.1808 103.131 63.0977 103.464 63.0146C103.464 62.9315 103.464 62.8484 103.547 62.8484C103.63 62.5161 103.547 62.2668 103.464 62.1837C103.298 62.0175 102.965 61.9344 102.633 61.9344C102.217 61.9344 101.968 62.0175 101.719 62.1006C101.553 62.2668 101.303 62.433 101.22 62.7653L100.472 62.6823C100.638 62.3499 100.805 62.1006 100.971 61.8513C101.137 61.6851 101.469 61.5189 101.802 61.3527C102.134 61.2696 102.467 61.1865 102.882 61.1865C103.298 61.1865 103.63 61.2696 103.879 61.3527C104.129 61.4358 104.295 61.602 104.378 61.6851C104.461 61.8513 104.544 62.0175 104.544 62.2668C104.544 62.433 104.544 62.6823 104.461 63.0146L104.295 64.0949C104.129 64.8427 104.045 65.2582 104.045 65.5075C104.045 65.6737 104.045 65.923 104.129 66.0892H103.298C103.131 65.8399 103.131 65.5906 103.131 65.4244ZM103.381 63.5963C103.048 63.6794 102.633 63.8456 101.968 63.9287C101.636 64.0118 101.386 64.0118 101.22 64.0949C101.054 64.178 100.971 64.2611 100.888 64.3442C100.805 64.4273 100.722 64.5935 100.722 64.7597C100.722 65.0089 100.722 65.1751 100.888 65.2582C101.054 65.4244 101.22 65.5075 101.553 65.5075C101.885 65.5075 102.134 65.4244 102.383 65.3413C102.633 65.1751 102.882 65.0089 103.048 64.7597C103.131 64.5935 103.298 64.3442 103.298 63.9287L103.381 63.5963Z" fill="#151515"/>
<path d="M106.621 65.2581V65.9229C106.372 66.006 106.205 66.006 105.956 66.006C105.624 66.006 105.457 65.9229 105.291 65.8398C105.125 65.7567 105.042 65.5905 105.042 65.5074C105.042 65.3412 105.042 65.0088 105.125 64.5933L105.624 61.9343H105.042L105.125 61.3526H105.707L105.956 60.1892L106.87 59.6907L106.538 61.3526H107.369L107.286 61.9343H106.455L105.956 64.6764C105.873 64.9257 105.873 65.0088 105.873 65.0919C105.873 65.175 105.956 65.175 105.956 65.2581C106.039 65.2581 106.122 65.3412 106.205 65.3412C106.372 65.2581 106.538 65.2581 106.621 65.2581Z" fill="#151515"/>
<path d="M107.369 63.5963C107.535 62.7653 107.868 62.1006 108.449 61.6851C108.948 61.3527 109.446 61.1865 110.028 61.1865C110.693 61.1865 111.191 61.4358 111.524 61.8513C111.856 62.2668 111.939 62.8484 111.773 63.5963C111.69 64.178 111.441 64.6766 111.191 65.0089C110.942 65.3413 110.61 65.5906 110.194 65.8399C109.779 66.0061 109.363 66.0892 108.948 66.0892C108.283 66.0892 107.784 65.8399 107.452 65.4244C107.369 65.0089 107.203 64.4273 107.369 63.5963ZM108.2 63.5963C108.117 64.178 108.117 64.6766 108.366 64.9258C108.615 65.2582 108.865 65.3413 109.28 65.3413C109.696 65.3413 110.028 65.1751 110.36 64.9258C110.693 64.5935 110.942 64.178 111.025 63.5963C111.108 63.0146 111.108 62.5992 110.859 62.2668C110.61 61.9344 110.36 61.8513 109.945 61.8513C109.529 61.8513 109.197 62.0175 108.865 62.2668C108.532 62.5992 108.366 63.0146 108.2 63.5963Z" fill="#151515"/>
<path d="M112.022 66.006L112.937 61.3526H113.684L113.518 62.1005C113.767 61.7681 114.017 61.5188 114.183 61.4357C114.349 61.3526 114.515 61.2695 114.765 61.2695C115.014 61.2695 115.263 61.3526 115.513 61.5188L115.097 62.2667C114.931 62.1836 114.765 62.1005 114.515 62.1005C114.349 62.1005 114.183 62.1836 114.017 62.2667C113.851 62.3498 113.767 62.516 113.601 62.6822C113.435 62.9314 113.352 63.2638 113.269 63.5962L112.77 66.006H112.022Z" fill="#151515"/>
<path d="M66.8174 48.6387L70.0581 31.8533H76.5396C77.8691 31.8533 78.8663 32.0195 79.6142 32.3518C80.362 32.6842 80.8606 33.1828 81.193 33.9307C81.5254 34.6785 81.6085 35.3433 81.4423 36.1743C81.2761 36.9221 80.9437 37.5869 80.4451 38.1686C79.9465 38.8333 79.1987 39.3319 78.3677 39.6643C79.3649 39.9967 80.0296 40.4953 80.4451 41.16C80.8606 41.9079 80.9437 42.7389 80.7775 43.736C80.6113 44.4839 80.2789 45.2317 79.8634 45.8965C79.3649 46.5613 78.8663 47.0599 78.2846 47.4753C77.7029 47.8077 77.0382 48.1401 76.2903 48.3063C75.5425 48.4725 74.5453 48.5556 73.4651 48.5556H66.8174V48.6387ZM69.4765 46.6444H73.7143C74.4622 46.6444 74.9608 46.6444 75.2932 46.5613C75.7917 46.4782 76.2903 46.312 76.7058 46.0627C77.1213 45.8134 77.4537 45.5641 77.786 45.1486C78.1184 44.7332 78.2846 44.2346 78.3677 43.736C78.4508 43.0712 78.4508 42.5727 78.2015 42.0741C77.9522 41.5755 77.5368 41.3262 77.0382 41.0769C76.4565 40.9107 75.7086 40.8276 74.6284 40.8276H70.6398L69.4765 46.6444ZM70.9722 38.8333H74.7115C75.7086 38.8333 76.4565 38.7502 76.872 38.6671C77.4537 38.501 77.9522 38.2517 78.3677 37.8362C78.7001 37.4207 78.9494 36.9221 79.1156 36.3405C79.1987 35.7588 79.1987 35.2602 79.0325 34.8447C78.8663 34.4292 78.5339 34.0969 78.0353 34.0138C77.5368 33.8476 76.7058 33.7645 75.4594 33.7645H72.0524L70.9722 38.8333Z" fill="#151515"/>
<path d="M90.3337 47.0601C89.4196 47.7248 88.5887 48.1403 87.8408 48.4727C87.0929 48.722 86.262 48.8882 85.431 48.8882C84.1015 48.8882 83.1043 48.5558 82.5227 47.891C81.941 47.2263 81.6917 46.3953 81.941 45.3981C82.0241 44.8165 82.2734 44.2348 82.6889 43.7362C83.0212 43.2376 83.5198 42.8222 84.0184 42.5729C84.517 42.2405 85.0986 42.0743 85.6803 41.9081C86.0958 41.825 86.7606 41.6588 87.5915 41.5757C89.3365 41.4095 90.583 41.1602 91.497 40.8279C91.5801 40.5786 91.5801 40.3293 91.5801 40.3293C91.7463 39.4983 91.6632 38.9166 91.3309 38.5843C90.9154 38.0857 90.1675 37.9195 89.0873 37.9195C88.0901 37.9195 87.3422 38.0857 86.7606 38.4181C86.262 38.7505 85.7634 39.3321 85.3479 40.2462L83.3536 39.9969C83.686 39.1659 84.1846 38.4181 84.6832 37.9195C85.1817 37.4209 85.9296 37.0054 86.7606 36.673C87.5915 36.4238 88.5887 36.2576 89.6689 36.2576C90.7492 36.2576 91.5801 36.3407 92.1618 36.59C92.7435 36.8392 93.2421 37.1716 93.4083 37.504C93.6575 37.8364 93.7406 38.335 93.8237 38.9166C93.8237 39.249 93.7406 39.9138 93.5744 40.8279L93.0759 43.57C92.7435 45.4812 92.4942 46.7277 92.4942 47.2263C92.4942 47.7248 92.5773 48.2234 92.7435 48.722H90.583C90.3337 48.1403 90.3337 47.6417 90.3337 47.0601ZM91.0816 42.4898C90.2506 42.8222 89.0873 43.0714 87.5084 43.2376C86.5944 43.3207 86.0127 43.4869 85.5972 43.6531C85.1817 43.8193 84.8493 44.0686 84.6001 44.3179C84.3508 44.6503 84.1846 44.8996 84.1015 45.315C84.0184 45.8967 84.1015 46.3122 84.4339 46.7277C84.7663 47.0601 85.3479 47.3094 86.1789 47.3094C87.0098 47.3094 87.7577 47.1432 88.4225 46.8108C89.0873 46.4784 89.6689 45.9798 90.0844 45.3981C90.4168 44.8996 90.6661 44.2348 90.8323 43.3207L91.0816 42.4898Z" fill="#151515"/>
<path d="M94.8213 48.6389L97.148 36.5069H99.0592L98.7268 38.2519C99.8901 36.9223 101.303 36.2576 103.048 36.2576C103.796 36.2576 104.46 36.4238 105.042 36.673C105.624 36.9223 106.039 37.2547 106.289 37.6702C106.538 38.0857 106.621 38.5843 106.621 39.1659C106.621 39.5814 106.538 40.2462 106.372 41.1602L104.876 48.6389H102.798L104.211 41.2433C104.377 40.4124 104.377 39.7476 104.294 39.3321C104.211 38.9166 103.962 38.5843 103.629 38.335C103.297 38.0857 102.798 38.0026 102.217 38.0026C101.303 38.0026 100.472 38.2519 99.7239 38.8335C98.9761 39.4152 98.3944 40.4124 98.1451 41.9912L96.8156 48.6389H94.8213Z" fill="#151515"/>
<path d="M107.617 48.6387L110.858 31.8533H112.935L111.107 41.4093L117.007 36.4236H119.749L114.099 40.9107L117.838 48.5556H115.262L112.354 42.3234L110.609 43.736L109.695 48.5556H107.617V48.6387Z" fill="#151515"/>
<path d="M14.5505 41.3264C14.0519 43.9024 15.3814 44.7334 17.7081 44.7334C19.2869 44.7334 21.1151 44.1517 21.5305 42.4898C21.946 40.5786 19.1208 40.1631 16.3786 39.3321C13.6364 38.4181 10.8942 37.0054 11.8083 33.0168C12.8885 28.2803 17.7912 26.3691 21.6967 26.3691C25.7684 26.3691 29.4247 28.4465 28.3444 33.4323H23.0263C23.5248 31.438 21.946 30.7732 20.2841 30.7732C19.1208 30.7732 17.625 31.1887 17.2926 32.6013C16.8772 34.2633 19.7855 34.5956 22.6108 35.5097C25.353 36.4238 28.012 37.8364 27.1811 41.825C25.9346 47.3093 21.1151 49.1375 16.5448 49.1375C11.8083 49.1375 8.15207 46.977 9.39851 41.3264H14.5505Z" fill="#151515"/>
<path d="M51.6108 26.8677H56.9289L52.0262 48.6389H46.625L51.6108 26.8677Z" fill="#151515"/>
<path d="M32.0834 26.8679H41.7226C45.2957 26.7848 48.9519 27.782 47.9548 32.3523C47.5393 34.2635 46.0436 35.9254 44.2155 36.7564C46.2929 37.4211 47.1238 39.4154 46.6252 41.9083C45.4619 47.0603 41.4733 48.6391 37.0692 48.6391H27.0977L32.0834 26.8679ZM35.4904 35.4268H39.6452C40.5592 35.4268 41.9719 34.9283 42.3042 33.3494C42.6366 31.7706 41.7226 31.272 40.5592 31.272H36.4044L35.4904 35.4268ZM33.4961 44.0688H37.8171C39.479 44.0688 40.8085 43.4041 41.224 41.659C41.6395 39.7478 40.5592 39.0831 38.8973 39.0831H34.5763L33.4961 44.0688Z" fill="#151515"/>
<path d="M64.4078 18.0595C61.4164 10.1653 44.4648 9.33437 26.5991 16.0652C13.8023 20.8847 3.99696 28.3634 0.423828 35.0111C5.3265 29.9422 13.1375 24.9564 22.6105 21.3833C40.5592 14.6525 57.5108 15.4835 60.4192 23.3776C61.2502 25.6212 60.8347 28.1972 59.4221 30.9394C63.9092 26.3691 65.8204 21.7988 64.4078 18.0595Z" fill="#151515"/>
</svg>
