<svg width="159" height="80" viewBox="0 0 159 80" fill="none" xmlns="http://www.w3.org/2000/svg">
<g clip-path="url(#clip0_10801_1566)">
<path d="M158.373 38.5839C157.799 37.112 156.702 35.8847 155.279 35.1201C153.856 34.3556 152.199 34.1033 150.601 34.4082L143.664 35.622C143.387 35.6657 143.122 35.7622 142.884 35.9058C142.645 36.0495 142.439 36.2374 142.277 36.4586C142.115 36.6799 142 36.9301 141.938 37.1947C141.877 37.4593 141.87 37.7331 141.92 38.0001C141.969 38.2671 142.072 38.522 142.224 38.75C142.376 38.9781 142.573 39.1747 142.804 39.3285C143.036 39.4822 143.296 39.5901 143.571 39.6457C143.845 39.7014 144.129 39.7038 144.404 39.6528L151.351 38.439C151.985 38.3062 152.647 38.4013 153.213 38.7065C153.779 39.0117 154.211 39.506 154.426 40.0966C154.688 40.6701 154.723 41.3161 154.526 41.9131C154.33 42.5102 153.914 43.0173 153.358 43.3394L143.167 49.6799C142.711 49.9722 142.181 50.1392 141.635 50.1631C141.088 50.1871 140.545 50.067 140.064 49.8158C139.582 49.5647 139.181 49.1918 138.902 48.7371C138.622 48.2824 138.477 47.7629 138.479 47.2343V26.5821C138.479 26.3133 138.425 26.0471 138.318 25.7987C138.212 25.5503 138.056 25.3247 137.859 25.1346C137.662 24.9445 137.429 24.7937 137.171 24.6908C136.914 24.588 136.639 24.535 136.361 24.535C136.082 24.535 135.807 24.588 135.55 24.6908C135.293 24.7937 135.059 24.9445 134.862 25.1346C134.666 25.3247 134.51 25.5503 134.403 25.7987C134.297 26.0471 134.242 26.3133 134.242 26.5821V47.2615C134.233 48.526 134.58 49.7691 135.246 50.858C135.911 51.9469 136.87 52.8409 138.02 53.4444C139.17 54.0479 140.469 54.3384 141.776 54.2848C143.084 54.2312 144.352 53.8355 145.445 53.1401L155.636 46.7995C157.012 45.9694 158.04 44.6956 158.538 43.2036C159.035 41.7116 158.97 40.0976 158.355 38.6473L158.373 38.5839ZM122.523 34.4082L115.576 35.622C115.023 35.7181 114.532 36.0226 114.211 36.4685C113.89 36.9144 113.766 37.4652 113.865 37.9997C113.965 38.5342 114.28 39.0086 114.741 39.3187C115.203 39.6287 115.773 39.7489 116.326 39.6528L123.273 38.439C123.907 38.3062 124.569 38.4013 125.135 38.7065C125.701 39.0117 126.132 39.506 126.348 40.0966C126.608 40.6712 126.643 41.3179 126.444 41.9151C126.245 42.5122 125.828 43.0188 125.27 43.3394L115.079 49.6799C114.623 49.9722 114.094 50.1392 113.547 50.1631C113.001 50.1871 112.457 50.067 111.976 49.8158C111.495 49.5647 111.093 49.1918 110.814 48.7371C110.535 48.2824 110.389 47.7629 110.392 47.2343V31.5549C110.398 30.2861 110.048 29.0395 109.379 27.9478C108.71 26.8561 107.746 25.9603 106.591 25.356C105.437 24.7517 104.134 24.4615 102.822 24.5163C101.51 24.5711 100.238 24.9689 99.1416 25.6673L73.5757 41.7089C72.2189 42.5629 71.2093 43.8438 70.7179 45.3345C70.2265 46.8253 70.2834 48.4344 70.8791 49.8892C71.4748 51.344 72.5726 52.5553 73.9866 53.3177C75.4006 54.0802 77.0439 54.347 78.6383 54.0731L101.017 50.1872C101.317 50.1754 101.612 50.1019 101.881 49.9715C102.15 49.8411 102.387 49.6568 102.577 49.4308C102.767 49.2049 102.904 48.9425 102.981 48.6612C103.057 48.3799 103.07 48.086 103.02 47.7993C102.97 47.5125 102.857 47.2394 102.688 46.9982C102.52 46.757 102.301 46.5531 102.045 46.4002C101.789 46.2474 101.502 46.149 101.203 46.1116C100.905 46.0742 100.601 46.0988 100.313 46.1836L77.8882 50.0423C77.2673 50.1205 76.637 49.9962 76.0974 49.6892C75.5577 49.3821 75.1396 48.9099 74.9093 48.3472C74.6789 47.7846 74.6495 47.1637 74.8257 46.5831C75.0019 46.0025 75.3736 45.4953 75.882 45.1419L101.513 29.1002C101.971 28.8108 102.501 28.6463 103.047 28.6244C103.593 28.6024 104.135 28.7237 104.616 28.9753C105.096 29.227 105.498 29.5997 105.777 30.0539C106.056 30.5081 106.202 31.0268 106.201 31.5549V47.2615C106.187 48.5206 106.529 49.7596 107.189 50.845C107.85 51.9304 108.805 52.821 109.951 53.4209C111.095 54.0359 112.392 54.3349 113.7 54.2854C115.008 54.2359 116.276 53.8397 117.367 53.1401L127.557 46.7995C128.935 45.9706 129.963 44.6963 130.459 43.2035C130.956 41.7106 130.887 40.0961 130.267 38.6473C129.706 37.168 128.62 35.9294 127.201 35.1528C125.783 34.3763 124.124 34.1123 122.523 34.4082Z" fill="#151515"/>
<path d="M3.59066 31.0567L5.28755 26.3737C5.35317 26.2106 5.40942 26.1472 5.54067 26.1472C5.67192 26.1472 5.7188 26.2106 5.78443 26.3737L7.50007 31.0567H3.59066ZM11.0907 35.64C11.087 35.4412 11.0457 35.2447 10.9688 35.0603L7.50007 26.0204C7.12506 24.9154 6.56256 24.4443 5.55942 24.4443C4.55629 24.4443 3.99378 24.9154 3.58128 26.0204L0.121876 35.0784C0.0459915 35.2631 0.00472323 35.4594 0 35.6581C0 35.8983 0.0987729 36.1287 0.27459 36.2986C0.450407 36.4685 0.688866 36.5639 0.937508 36.5639C1.15816 36.5678 1.37315 36.4963 1.54464 36.3621C1.71613 36.2279 1.83312 36.0396 1.87502 35.8302L2.99065 32.7505H8.0907L9.2157 35.8393C9.25953 36.0469 9.37735 36.2332 9.54865 36.3656C9.71995 36.498 9.93389 36.5682 10.1532 36.5639C10.4019 36.5639 10.6403 36.4685 10.8161 36.2986C10.9919 36.1287 11.0907 35.8983 11.0907 35.6581V35.64ZM20.0064 34.9878L16.8001 31.8719L19.847 28.9733C19.9528 28.883 20.0387 28.7732 20.0999 28.6503C20.1611 28.5274 20.1962 28.3939 20.2033 28.2577C20.2072 28.1568 20.1896 28.0562 20.1514 27.9621C20.1132 27.8681 20.0554 27.7827 19.9814 27.7112C19.9075 27.6398 19.8191 27.5839 19.7218 27.547C19.6244 27.5101 19.5203 27.4931 19.4158 27.4969C19.2742 27.4986 19.1349 27.5312 19.0082 27.5924C18.8816 27.6536 18.7709 27.7417 18.6845 27.8501L15.5908 30.7849C15.5165 30.8652 15.4254 30.9292 15.3236 30.973C15.2218 31.0167 15.1115 31.039 15.0001 31.0385H14.372V28.4117C14.372 28.1715 14.2732 27.9411 14.0974 27.7712C13.9216 27.6014 13.6831 27.5059 13.4345 27.5059C13.1858 27.5059 12.9474 27.6014 12.7716 27.7712C12.5958 27.9411 12.497 28.1715 12.497 28.4117V35.5585C12.497 35.7987 12.5958 36.0291 12.7716 36.199C12.9474 36.3688 13.1858 36.4643 13.4345 36.4643C13.6831 36.4643 13.9216 36.3688 14.0974 36.199C14.2732 36.0291 14.372 35.7987 14.372 35.5585V32.7052H14.897C15.0084 32.7047 15.1187 32.7271 15.2205 32.7708C15.3223 32.8145 15.4134 32.8786 15.4876 32.9588L18.7502 36.1472C18.8427 36.2586 18.9597 36.3489 19.0926 36.4115C19.2255 36.4742 19.3711 36.5076 19.5189 36.5096C19.6283 36.5134 19.7374 36.4953 19.8392 36.4566C19.9411 36.4179 20.0336 36.3593 20.111 36.2845C20.1884 36.2098 20.2491 36.1204 20.2891 36.0219C20.3292 35.9235 20.3479 35.8182 20.3439 35.7125C20.3395 35.57 20.3037 35.4302 20.2391 35.3021C20.1744 35.1741 20.0823 35.0608 19.9689 34.9697L20.0064 34.9878ZM16.7533 52.7233C15.9953 53.1095 15.1538 53.3174 14.297 53.3302C12.7689 53.3302 11.897 52.7052 11.897 51.6183C11.897 50.5313 12.6564 49.9154 14.297 49.9154C15.1315 49.9233 15.9599 50.0546 16.7533 50.3048V52.7233ZM14.597 45.2777C13.6766 45.2845 12.7662 45.4629 11.9157 45.803C11.5407 45.9661 11.3626 46.1382 11.372 46.428C11.372 46.5706 11.4299 46.7075 11.5334 46.8092C11.6369 46.9108 11.7775 46.9691 11.9251 46.9715C12.0978 46.9613 12.2666 46.9182 12.422 46.8447C13.0733 46.5826 13.7698 46.4413 14.4751 46.428C16.0595 46.428 16.7908 47.053 16.7908 48.4389V49.2632C15.958 49.0192 15.0922 48.8971 14.222 48.9009C11.9064 48.9009 10.7251 50.1871 10.7251 51.6183C10.7251 53.3302 12.0564 54.4534 14.1751 54.4534C15.431 54.488 16.6707 54.1736 17.747 53.5476C17.8372 53.497 17.9102 53.4221 17.9568 53.3319C18.0035 53.2418 18.0218 53.1404 18.0095 53.0404V48.4208C18.0095 46.2831 16.7251 45.2867 14.597 45.2867V45.2777ZM41.2504 34.6074C40.6195 34.9166 39.9233 35.0809 39.216 35.0875C38.016 35.0875 37.2753 34.5893 37.2753 33.7197C37.2753 32.8501 37.8753 32.3248 39.1691 32.3248C39.8756 32.3257 40.5778 32.4327 41.2504 32.6418V34.6074ZM39.3753 27.361C38.4913 27.3696 37.6167 27.5386 36.7972 27.8592C36.2909 28.0585 36.0753 28.3393 36.0753 28.765C36.0741 28.8657 36.0935 28.9656 36.1325 29.0589C36.1716 29.1523 36.2294 29.2373 36.3026 29.3089C36.3759 29.3805 36.4631 29.4373 36.5593 29.4761C36.6554 29.5149 36.7586 29.5349 36.8628 29.5349C37.0851 29.5025 37.3005 29.4352 37.5003 29.3356C38.0355 29.1336 38.6039 29.0262 39.1785 29.0186C40.6129 29.0186 41.1941 29.544 41.1941 30.6038V31.3284C40.4566 31.1234 39.6928 31.0197 38.9253 31.0204C36.5909 31.0204 35.4472 32.3067 35.4472 33.7378C35.4472 35.3773 36.7316 36.6092 38.991 36.6092C40.2701 36.6403 41.5329 36.3266 42.6379 35.7034C42.7574 35.6369 42.8539 35.5378 42.9156 35.4186C42.9773 35.2995 43.0013 35.1654 42.9847 35.0331V30.649C42.9847 28.4117 41.6535 27.3791 39.3285 27.3791L39.3753 27.361ZM33.5253 49.7433L37.0878 46.3012C37.1605 46.2423 37.219 46.1689 37.2595 46.086C37.3 46.0031 37.3214 45.9128 37.3222 45.8211C37.3249 45.7542 37.3131 45.6875 37.2876 45.6253C37.2621 45.563 37.2233 45.5067 37.1739 45.4597C37.1244 45.4128 37.0654 45.3764 37.0005 45.3529C36.9356 45.3293 36.8664 45.3191 36.7972 45.323C36.7104 45.3226 36.6244 45.3402 36.5452 45.3746C36.466 45.409 36.3953 45.4593 36.3378 45.5222L32.8597 48.9009C32.7733 48.9908 32.669 49.0629 32.5529 49.1127C32.4369 49.1626 32.3116 49.1891 32.1847 49.1907H31.4721V45.957C31.4829 45.873 31.4751 45.7876 31.4491 45.7067C31.4232 45.6258 31.3798 45.5511 31.3217 45.4877C31.2636 45.4242 31.1923 45.3734 31.1124 45.3386C31.0324 45.3037 30.9458 45.2857 30.8581 45.2857C30.7704 45.2857 30.6837 45.3037 30.6038 45.3386C30.5239 45.3734 30.4525 45.4242 30.3945 45.4877C30.3364 45.5511 30.293 45.6258 30.267 45.7067C30.2411 45.7876 30.2332 45.873 30.244 45.957V53.7378C30.2332 53.8219 30.2411 53.9072 30.267 53.9881C30.293 54.069 30.3364 54.1437 30.3945 54.2072C30.4525 54.2706 30.5239 54.3215 30.6038 54.3563C30.6837 54.3911 30.7704 54.4091 30.8581 54.4091C30.9458 54.4091 31.0324 54.3911 31.1124 54.3563C31.1923 54.3215 31.2636 54.2706 31.3217 54.2072C31.3798 54.1437 31.4232 54.069 31.4491 53.9881C31.4751 53.9072 31.4829 53.8219 31.4721 53.7378V50.2867H32.1003C32.2279 50.2895 32.3536 50.3175 32.4697 50.3689C32.5858 50.4203 32.6898 50.494 32.7753 50.5856L36.4691 54.1545C36.5295 54.2216 36.6046 54.2751 36.6888 54.3111C36.7731 54.3471 36.8645 54.3648 36.9566 54.3628C37.0286 54.3666 37.1007 54.3559 37.1684 54.3315C37.236 54.3072 37.2977 54.2696 37.3496 54.2211C37.4015 54.1727 37.4425 54.1144 37.47 54.0499C37.4976 53.9855 37.5111 53.9162 37.5097 53.8465C37.5063 53.7496 37.4821 53.6544 37.4385 53.5671C37.3949 53.4798 37.3329 53.4022 37.2566 53.3393L33.5253 49.7433ZM27.1877 45.323C27.1019 45.3166 27.0157 45.329 26.9355 45.3593C26.8553 45.3895 26.7832 45.4369 26.7247 45.4979C26.6661 45.5588 26.6225 45.6318 26.5972 45.7113C26.5718 45.7908 26.5654 45.8748 26.5784 45.957V49.1817H21.4783V45.957C21.4891 45.873 21.4812 45.7876 21.4553 45.7067C21.4294 45.6258 21.3859 45.5511 21.3279 45.4877C21.2698 45.4242 21.1984 45.3734 21.1185 45.3386C21.0386 45.3037 20.9519 45.2857 20.8642 45.2857C20.7766 45.2857 20.6899 45.3037 20.61 45.3386C20.53 45.3734 20.4587 45.4242 20.4006 45.4877C20.3426 45.5511 20.2991 45.6258 20.2732 45.7067C20.2472 45.7876 20.2394 45.873 20.2502 45.957V53.7378C20.2394 53.8219 20.2472 53.9072 20.2732 53.9881C20.2991 54.069 20.3426 54.1437 20.4006 54.2072C20.4587 54.2706 20.53 54.3215 20.61 54.3563C20.6899 54.3911 20.7766 54.4091 20.8642 54.4091C20.9519 54.4091 21.0386 54.3911 21.1185 54.3563C21.1984 54.3215 21.2698 54.2706 21.3279 54.2072C21.3859 54.1437 21.4294 54.069 21.4553 53.9881C21.4812 53.9072 21.4891 53.8219 21.4783 53.7378V50.2867H26.5971V53.7378C26.5971 53.894 26.6613 54.0437 26.7756 54.1541C26.8899 54.2646 27.0449 54.3266 27.2065 54.3266C27.3681 54.3266 27.5231 54.2646 27.6374 54.1541C27.7517 54.0437 27.8159 53.894 27.8159 53.7378V45.957C27.8288 45.8748 27.8224 45.7908 27.7971 45.7113C27.7717 45.6318 27.7282 45.5588 27.6696 45.4979C27.611 45.4369 27.5389 45.3895 27.4587 45.3593C27.3786 45.329 27.2923 45.3166 27.2065 45.323H27.1877ZM51.2911 32.9407C51.2869 33.2077 51.2259 33.471 51.112 33.7143C50.998 33.9576 50.8335 34.1756 50.6287 34.3549C50.4238 34.5341 50.183 34.6707 49.9211 34.7562C49.6593 34.8418 49.3821 34.8743 49.1067 34.8519C48.4071 34.8602 47.7178 34.6883 47.1098 34.3538V29.6164C47.7169 29.2787 48.4062 29.1036 49.1067 29.1092C49.3826 29.0881 49.66 29.1219 49.9219 29.2085C50.1837 29.295 50.4244 29.4325 50.6291 29.6125C50.8338 29.7924 50.9982 30.011 51.112 30.2547C51.2259 30.4984 51.2868 30.7621 51.2911 31.0295C51.3473 31.6654 51.3473 32.3048 51.2911 32.9407ZM49.1723 27.3791C47.967 27.3824 46.7815 27.675 45.7223 28.2306C45.3004 28.4751 45.2535 28.6744 45.2535 29.3628V38.5114C45.2452 38.6324 45.2638 38.7537 45.308 38.8673C45.3522 38.9808 45.4209 39.0839 45.5097 39.1696C45.5985 39.2554 45.7052 39.3219 45.8227 39.3645C45.9402 39.4072 46.0658 39.4252 46.191 39.4172C46.4397 39.4172 46.6781 39.3217 46.8539 39.1519C47.0298 38.982 47.1285 38.7516 47.1285 38.5114V36.1291C47.8283 36.4293 48.5848 36.5866 49.3504 36.5911C50.3191 36.628 51.2636 36.2936 51.9782 35.6608C52.6929 35.028 53.1199 34.148 53.1661 33.2125C53.2317 32.3954 53.2317 31.5748 53.1661 30.7577C53.101 29.801 52.6461 28.9082 51.9011 28.2749C51.156 27.6417 50.1815 27.3195 49.1911 27.3791H49.1723ZM27.1877 30.7849H30.2253C30.5009 30.7444 30.7824 30.7657 31.0481 30.8471C31.3139 30.9284 31.5567 31.0677 31.7578 31.2542C31.959 31.4407 32.1131 31.6693 32.2082 31.9225C32.3034 32.1756 32.337 32.4465 32.3065 32.7143C32.3351 32.9839 32.3006 33.2563 32.2056 33.5114C32.1107 33.7665 31.9577 33.9977 31.758 34.1881C31.5583 34.3785 31.3169 34.5231 31.0516 34.6113C30.7863 34.6996 30.504 34.7292 30.2253 34.698H27.1877V30.7849ZM26.719 36.428H30.3753C32.7847 36.428 34.2097 35.0784 34.2097 32.678C34.2097 30.4226 32.8128 29.1545 30.3753 29.1545H27.1877V26.2559H32.6347C32.7617 26.2621 32.8886 26.2432 33.0078 26.2004C33.1271 26.1577 33.236 26.0919 33.3281 26.0072C33.4202 25.9225 33.4935 25.8205 33.5435 25.7076C33.5935 25.5946 33.6192 25.473 33.619 25.3501C33.6168 25.2273 33.5872 25.1064 33.532 24.9957C33.4769 24.885 33.3976 24.7871 33.2997 24.7088C33.2017 24.6305 33.0873 24.5736 32.9645 24.542C32.8416 24.5104 32.7131 24.5049 32.5878 24.5259H26.6721C26.4771 24.5041 26.2795 24.5253 26.0941 24.5877C25.9087 24.6501 25.7403 24.7522 25.6015 24.8863C25.4626 25.0205 25.357 25.1832 25.2924 25.3623C25.2277 25.5414 25.2059 25.7323 25.2283 25.9208V35.0331C25.2059 35.2215 25.2277 35.4125 25.2924 35.5916C25.357 35.7707 25.4626 35.9334 25.6015 36.0675C25.7403 36.2017 25.9087 36.3038 26.0941 36.3662C26.2795 36.4286 26.4771 36.4497 26.6721 36.428H26.719ZM61.7443 33.1762C61.5714 33.1825 61.4037 33.235 61.2597 33.3277C61.1158 33.4204 61.0012 33.5498 60.9287 33.7016C60.7097 34.1067 60.3616 34.433 59.9358 34.6322C59.51 34.8314 59.0291 34.8928 58.5644 34.8075C58.0997 34.7222 57.6757 34.4946 57.3552 34.1584C57.0347 33.8222 56.8347 33.3952 56.7849 32.9407C56.7286 32.3048 56.7286 31.6654 56.7849 31.0295C56.8267 30.5686 57.0234 30.1336 57.3451 29.7909C57.6667 29.4482 58.0956 29.2165 58.5663 29.1313C59.0369 29.0461 59.5235 29.1121 59.9517 29.319C60.38 29.526 60.7264 29.8627 60.938 30.2777C61.0132 30.426 61.1289 30.5517 61.2727 30.6411C61.4164 30.7305 61.5828 30.7803 61.7537 30.7849C61.8743 30.8011 61.9971 30.7914 62.1134 30.7563C62.2296 30.7212 62.3364 30.6617 62.426 30.582C62.5156 30.5024 62.5859 30.4045 62.6317 30.2955C62.6776 30.1865 62.6979 30.0691 62.6912 29.9516C62.6721 29.6635 62.5821 29.384 62.4287 29.1364C62.078 28.5702 61.5739 28.1073 60.9709 27.7976C60.3678 27.4879 59.6887 27.3432 59.0068 27.3791C58.5073 27.3384 58.0045 27.3948 57.528 27.545C57.0516 27.6953 56.6111 27.9363 56.2327 28.2538C55.8542 28.5713 55.5455 28.9588 55.3247 29.3936C55.104 29.8283 54.9757 30.3014 54.9474 30.7849C54.8817 31.5929 54.8817 32.4045 54.9474 33.2125C55.0196 34.1747 55.4811 35.0707 56.2322 35.7064C56.9832 36.3422 57.9632 36.6665 58.9599 36.6092C59.6418 36.6451 60.3209 36.5004 60.924 36.1907C61.527 35.881 62.0311 35.4181 62.3818 34.8519C62.5414 34.6037 62.6319 34.3197 62.6443 34.0277C62.6493 33.9106 62.6279 33.7939 62.5815 33.6857C62.5351 33.5774 62.4648 33.4803 62.3756 33.401C62.2863 33.3216 62.1803 33.2621 62.0648 33.2264C61.9493 33.1907 61.8271 33.1798 61.7068 33.1943L61.7443 33.1762ZM5.62505 53.1219H2.17502V48.3664H5.62505C7.44381 48.3664 8.19382 49.2269 8.19382 50.7125C8.19382 52.198 7.50007 53.1219 5.62505 53.1219ZM5.78443 47.2251H2.17502V43.6019H8.22195C8.38356 43.6019 8.53856 43.5399 8.65284 43.4295C8.76712 43.3191 8.83133 43.1693 8.83133 43.0132C8.83133 42.857 8.76712 42.7073 8.65284 42.5969C8.53856 42.4864 8.38356 42.4244 8.22195 42.4244H2.01564C1.87082 42.4119 1.72492 42.4303 1.58825 42.4782C1.45158 42.5262 1.32745 42.6025 1.22464 42.7018C1.12183 42.8012 1.04283 42.9211 0.993217 43.0531C0.943605 43.1852 0.924588 43.3262 0.937508 43.4661V53.2306C0.913887 53.3754 0.924904 53.5235 0.969715 53.6636C1.01453 53.8036 1.09194 53.9319 1.19602 54.0386C1.3001 54.1453 1.42808 54.2275 1.57016 54.279C1.71223 54.3305 1.86462 54.3499 2.01564 54.3356H5.76568C8.0907 54.3356 9.43133 53.0313 9.43133 50.7125C9.43133 48.3936 8.0907 47.2342 5.76568 47.2342" fill="#151515"/>
</g>
<defs>
<clipPath id="clip0_10801_1566">
<rect width="158.889" height="30" fill="white" transform="translate(0 24.4443)"/>
</clipPath>
</defs>
</svg>
