<svg width="118" height="80" viewBox="0 0 118 80" fill="none" xmlns="http://www.w3.org/2000/svg">
<path d="M36.9268 49.5234V27.3762H48.5826C52.7994 27.3762 54.9584 30.0564 54.9584 33.0344C54.9584 35.8247 53.2312 37.683 51.1377 38.1148C53.4873 38.4632 55.3902 40.7592 55.3902 43.5466C55.3902 46.8671 53.1657 49.5234 48.9459 49.5234H36.9268ZM50.143 33.8503C50.143 32.4566 49.1454 31.4263 47.5522 31.4263H41.632V36.2417H47.5432C49.1365 36.2417 50.1341 35.244 50.1341 33.8503H50.143ZM50.5748 42.8825C50.5748 41.4889 49.5772 40.2917 47.7189 40.2917H41.632V45.4406H47.71C49.5028 45.4406 50.5659 44.4758 50.5659 42.8825H50.5748Z" fill="#151515"/>
<path d="M75.0455 27.3762V31.5245H63.5833V35.4436H69.3278C74.0449 35.4436 76.6685 38.6657 76.6685 42.4835C76.6685 46.3013 74.0777 49.5234 69.3278 49.5234H58.8691V27.3762H75.0455ZM63.5892 39.5859V45.3751H68.7054C70.5309 45.3751 71.8591 44.2435 71.8591 42.4835C71.8591 40.7235 70.5309 39.5949 68.7054 39.5949L63.5892 39.5859Z" fill="#151515"/>
<path d="M79.6221 49.5234V27.3762H89.9854C94.7978 27.3762 97.4304 30.6282 97.4304 34.5234C97.4304 38.4186 94.774 41.6705 89.9854 41.6705H84.3273V49.5234H79.6221ZM92.615 34.5144C92.615 32.6562 91.2213 31.5365 89.363 31.5365H84.3392V37.5043H89.3541C91.2124 37.5043 92.615 36.3399 92.615 34.5144Z" fill="#151515"/>
<path d="M99.9746 49.5234V27.3762H110.335C115.15 27.3762 117.78 30.6282 117.78 34.5234C117.78 38.4186 115.124 41.6705 110.335 41.6705H104.677V49.5234H99.9746ZM112.959 34.5144C112.959 32.6562 111.565 31.5365 109.704 31.5365H104.689V37.5043H109.704C111.565 37.5043 112.959 36.3399 112.959 34.5144Z" fill="#151515"/>
<path d="M117.758 54.4697H5.53906V56.9325H117.758V54.4697Z" fill="#151515"/>
<path d="M12.6848 37.3566L5.30957 37.7432L5.92816 49.5466L13.3034 49.16L12.6848 37.3566Z" fill="#151515"/>
<path d="M15.6009 39.3521L13.6895 46.4858L25.1063 49.545L27.0178 42.4112L15.6009 39.3521Z" fill="#151515"/>
<path d="M24.8284 27.2641L18.3926 37.1743L24.5865 41.1967L31.0223 31.2864L24.8284 27.2641Z" fill="#151515"/>
<path d="M15.5159 19.9999L9.77637 24.6477L17.2128 33.8309L22.9523 29.1832L15.5159 19.9999Z" fill="#151515"/>
<path d="M11.0318 27.0507L0 31.2854L2.64668 38.1802L13.6784 33.9456L11.0318 27.0507Z" fill="#151515"/>
</svg>
