<svg width="185" height="80" viewBox="0 0 185 80" fill="none" xmlns="http://www.w3.org/2000/svg">
<path d="M16.7293 22.7122V30.9307L23.7288 22.7122H16.7293ZM1.65672 26.6226C2.14584 25.8727 2.67008 25.2807 3.39624 24.7251L3.94808 24.3677C4.44551 24.104 4.97499 23.9059 5.52331 23.7782C5.87698 23.7167 6.20181 23.6841 6.56552 23.6728C7.05213 23.6892 7.46852 23.7468 7.94008 23.8585C8.27244 23.9588 8.57093 24.0717 8.88698 24.2159C9.60185 24.5922 10.1449 25.0161 10.693 25.5905L11.1031 26.0859C11.7051 26.9299 12.0964 27.7652 12.3836 28.7409L12.5391 29.4056C12.5604 29.511 12.5767 29.6151 12.5905 29.7179V22.7122H0.586914V29.7355C0.73616 28.9617 0.974451 27.9445 1.33941 27.1895L1.65672 26.6226ZM28.7329 23.8484L16.7305 37.944V41.1421C16.7431 41.038 16.7619 40.9339 16.7807 40.8286L16.935 40.1664C17.2057 39.2138 17.6389 38.3152 18.2155 37.5101L18.6268 37.0121C19.0721 36.539 19.5807 36.1296 20.1381 35.7956C20.4416 35.6338 20.7351 35.5021 21.0524 35.3792C21.7173 35.1711 22.413 35.0787 23.1092 35.1058L23.799 35.2024C24.3772 35.3403 24.85 35.5209 25.3692 35.7956C25.6577 35.9649 25.916 36.1455 26.1794 36.3474C26.9201 36.98 27.5313 37.75 27.9791 38.615L28.2513 39.212C28.4708 39.7763 28.6275 40.6066 28.7316 41.1647V23.8484H28.7329Z" fill="#151515"/>
<path d="M22.7539 36.7764C25.1518 36.7764 27.1121 39.3825 27.1096 42.5769C27.1096 45.7725 25.1506 48.3787 22.7539 48.3787C20.3547 48.3787 18.3994 45.7725 18.3994 42.5769C18.3994 39.3813 20.3559 36.7764 22.7539 36.7764ZM22.7539 47.1784C24.4495 47.1784 25.8303 45.1128 25.8303 42.5769C25.8303 40.0435 24.4495 37.9766 22.7539 37.9766C21.0608 37.9766 19.6812 40.0435 19.6812 42.5769C19.6812 45.1128 21.0608 47.1784 22.7539 47.1784Z" fill="#151515"/>
<path d="M16.935 44.9898L16.7794 44.3239C16.7619 44.2185 16.7431 44.1144 16.7293 44.0141V51.0198H28.7316V44.0479C28.5811 44.8255 28.3428 45.7862 27.9791 46.5412L27.6593 47.1106C27.1962 47.8391 26.6082 48.4802 25.9223 49.0044L25.3692 49.3606C24.8746 49.6262 24.347 49.8252 23.8003 49.9526C23.4545 50.0123 23.105 50.0475 22.7543 50.0579C22.2908 50.0449 21.83 49.9827 21.3797 49.8723C21.057 49.7732 20.7408 49.6543 20.4328 49.5161C19.7579 49.1627 19.1473 48.698 18.6268 48.1415L18.2167 47.6424C17.6147 46.8021 17.2259 45.9631 16.935 44.9898ZM12.5893 32.5886C12.5755 32.6936 12.5588 32.7981 12.5391 32.9022L12.3836 33.5644C12.1141 34.517 11.6808 35.4155 11.1031 36.2194L10.6917 36.7186C10.2454 37.1917 9.73598 37.601 9.17795 37.9351C8.88219 38.0913 8.5773 38.2295 8.26491 38.349C7.60178 38.5592 6.9068 38.6509 6.21184 38.6199L5.52331 38.5296C4.97425 38.402 4.44456 38.2021 3.94808 37.9351C3.66767 37.7669 3.39716 37.5826 3.13789 37.3833C2.3966 36.7515 1.78607 35.9807 1.34067 35.1145C0.960655 34.283 0.756226 33.4979 0.586914 32.5999V49.8823L12.5893 35.7905V32.5886Z" fill="#151515"/>
<path d="M6.56565 25.3534C8.9611 25.3534 10.9176 27.9583 10.9176 31.1539C10.9176 34.3483 8.9611 36.952 6.56565 36.952C4.16643 36.952 2.20993 34.3483 2.20993 31.1539C2.20993 27.9583 4.16643 25.3534 6.56565 25.3534ZM6.56565 35.753C8.25751 35.753 9.63584 33.6874 9.63584 31.1539C9.63584 28.6205 8.25626 26.5512 6.56565 26.5512C4.87127 26.5512 3.48793 28.6205 3.48793 31.1539C3.48793 33.6874 4.87127 35.753 6.56565 35.753ZM12.5907 42.8039L5.58991 51.0199H12.5907V42.8039ZM28.3843 22.7122H25.0119L0.948242 51.0199H4.27178L28.3843 22.7122ZM13.6366 49.0722H15.6947V51.0212H13.6366V49.0722Z" fill="#151515"/>
<path d="M29.7708 49.0722V51.0199C31.1767 51.0199 32.3192 52.0985 32.3192 53.4267C32.3192 54.7561 31.1767 55.8347 29.7695 55.8347C28.7348 55.8347 27.7879 55.6127 25.8214 55.1512C22.01 54.2595 17.3182 53.1583 13.562 52.2779C6.80953 50.6964 0.61395 52.4911 0.588867 56.6825H2.64695C2.64695 55.1236 5.80619 54.0889 12.5712 55.6729L25.0288 58.5926C27.9384 59.2736 30.3239 59.1093 32.0371 58.3292L32.0433 58.3342C33.7578 57.5391 34.9367 55.8748 34.9367 53.9522C34.9367 51.2557 32.6215 49.0722 29.7695 49.0722H29.7708ZM100.706 43.9954H106.741V46.6918H100.706V43.9954ZM132.888 42.2044H127.186V36.8792H123.987V51.0212H127.186V44.8896H132.888V51.0212H136.086V36.8792H132.888V42.2044ZM111.576 45.78V36.8792H108.378V51.0212H110.836L118.272 42.0778V51.0212H121.472V36.8792H118.981L111.576 45.78ZM167.886 36.5695C165.8 36.5682 163.948 37.0987 162.46 38.4369C161.193 39.5594 160.086 41.4093 160.086 43.9603C160.084 46.0196 160.757 47.8005 162.459 49.3582C163.692 50.4769 165.293 51.3335 167.864 51.3297C169.453 51.3297 170.634 50.9485 171.52 50.5032L171.624 50.4506V46.6931L171.281 47.0794C170.878 47.5366 170.383 47.9021 169.827 48.1509C169.271 48.3998 168.668 48.5262 168.059 48.5216C166.895 48.5216 165.72 48.1228 164.841 47.3615C163.963 46.6003 163.373 45.4803 163.371 44.0004C163.371 42.7751 163.825 41.6162 164.625 40.7671C165.421 39.9193 166.556 39.3775 167.951 39.375C168.579 39.3789 169.199 39.513 169.772 39.7688C170.346 40.0246 170.86 40.3966 171.282 40.8612L171.623 41.2362V37.4888L171.523 37.4361C170.399 36.8548 169.151 36.5573 167.886 36.5695ZM98.4025 37.9779C99.6253 39.0163 99.9376 40.4172 99.9376 41.4419C99.9376 41.9962 99.856 43.5313 98.6922 44.6488C97.8519 45.454 96.6027 45.923 94.9046 45.9218H93.2817V51.0212H90.0836V36.8792H94.4706C95.2871 36.8792 95.9882 36.9194 96.6303 37.0799C97.2831 37.2357 97.8898 37.5434 98.4012 37.9779H98.4025ZM95.9506 42.8428C96.4146 42.4916 96.6529 41.9272 96.6516 41.3792C96.6516 40.6794 96.303 40.2241 95.933 39.962C95.4113 39.6096 94.7227 39.5606 94.0605 39.5632H93.283V43.2379H94.2336C94.7754 43.2379 95.4088 43.2316 95.9518 42.8428H95.9506ZM172.544 36.8792V39.5632H175.784V51.0212H178.984V39.5632H182.222V36.8792H172.544ZM55.3457 51.0199H63.7298V48.3348H58.5438V44.951H63.5141V42.2659H58.5438V39.5619H63.7298V36.878H55.3457V51.0199ZM146.096 43.3996C146.819 43.5915 147.296 43.9289 147.613 44.2161C148.535 45.0564 148.711 46.1851 148.712 46.9326C148.712 47.7679 148.465 48.9644 147.414 49.8598C146.285 50.8105 144.908 51.0212 143.635 51.0199H138.601V36.878H142.361C143.164 36.8805 144.765 36.8692 146.001 37.7835C146.9 38.4482 147.415 39.5744 147.416 40.7809C147.418 41.709 147.09 42.3813 146.71 42.8365C146.531 43.051 146.325 43.2408 146.096 43.4009V43.3996ZM145.262 47.4556C145.382 47.2048 145.429 46.9326 145.429 46.6843C145.429 46.4886 145.392 46.2215 145.259 45.9682C145.125 45.7123 144.899 45.4653 144.484 45.2847L144.491 45.2872L144.482 45.2847C143.93 45.0388 143.245 45.0326 142.641 45.0338H141.8V48.4589H142.815C143.327 48.4615 144.072 48.4339 144.637 48.1153C144.909 47.9657 145.127 47.7351 145.262 47.4556ZM141.8 39.439V42.597H142.404C142.559 42.597 142.889 42.5907 143.231 42.4979C143.575 42.4051 143.921 42.232 144.142 41.9059C144.29 41.689 144.39 41.3967 144.391 40.9879C144.386 40.4047 144.168 40.0448 143.82 39.7989C143.471 39.5544 142.97 39.439 142.425 39.439H141.799H141.8ZM150.445 51.0199H158.829V48.3348H153.643V44.951H158.614V42.2659H153.643V39.5619H158.829V36.878H150.445V51.0199ZM52.2805 36.8792H49.0812V48.336H43.7673V36.8792H40.5691V51.0212H51.0264V54.1177H54.0075V48.336H52.2805V36.8792ZM74.7138 42.2044H69.0111V36.8792H65.813V51.0212H69.0111V44.8896H74.7138V51.0212H77.9119V36.8792H74.7138V42.2044ZM79.1585 39.5632H82.3993V51.0212H85.5974V39.5632H88.8382V36.8792H79.1585V39.5632ZM68.6411 26.9651H64.1989V22.7385H61.5789V34.0398H64.1989V29.1736H68.6424V34.0398H71.2623V22.7385H68.6424V26.9651H68.6411ZM53.7341 22.7385H55.875L60.7549 34.0398H57.9331L56.9209 31.7447H52.569L51.5581 34.0398H48.7137L53.7341 22.7398V22.7385ZM53.4319 29.6364H56.1133L54.7864 26.3994L53.4319 29.6352V29.6364ZM78.0825 27.9772L83.1029 22.7385H79.7568L75.8413 27.0453V22.7385H73.2226V34.0398H75.8413V29.2765L75.8852 29.2351L79.8709 34.0398H83.3312L78.0825 27.9772ZM47.5298 28.0123C48.2233 28.603 48.6761 29.4947 48.6761 30.5758C48.6761 31.3534 48.4227 32.062 48.0063 32.6326L48.0088 32.6301L48.0051 32.6339C47.541 33.261 46.9252 33.6172 46.3057 33.809C45.6849 34.0034 45.0616 34.0398 44.5536 34.0398H40.5704V22.7398H47.5774V24.9471H43.1903V27.0792H44.5373C45.4127 27.0792 46.5816 27.2121 47.5298 28.0123ZM45.6535 31.4023C45.9119 31.169 45.9846 30.873 45.9871 30.5921C45.9859 30.2798 45.8993 29.965 45.6372 29.723C45.3738 29.4809 44.9098 29.289 44.0908 29.289H43.1903V31.8312H44.0557C44.9211 31.8312 45.3952 31.6356 45.6535 31.4023Z" fill="#151515"/>
</svg>
