<svg width="226" height="80" viewBox="0 0 226 80" fill="none" xmlns="http://www.w3.org/2000/svg">
<path d="M52.9538 30.8438C54.3617 30.8438 55.9288 30.8927 57.2878 31.8231C58.1938 32.423 59.259 33.6107 59.259 35.7287C59.259 38.0549 57.7775 40.7974 53.7129 40.7974H50.2847V47.176H47.2852V30.8438H52.9538ZM53.0762 38.3978C53.7373 38.3978 54.6923 38.4222 55.4636 37.7121C55.99 37.2346 56.2716 36.4266 56.2716 35.741C56.2716 35.1044 56.0145 34.333 55.4881 33.88C54.9616 33.427 54.1291 33.2066 53.1987 33.2066H50.297V38.3978H53.0762Z" fill="#151515"/>
<path d="M62.0222 36.2659C62.8548 35.4823 64.0913 34.7966 65.94 34.7966C67.801 34.7966 69.0376 35.4823 69.8702 36.2659C71.1068 37.4289 71.7433 39.2409 71.7433 41.0896C71.7433 42.9384 71.1068 44.7503 69.8702 45.9135C69.0376 46.697 67.801 47.3949 65.94 47.3949C64.0913 47.3949 62.8425 46.7092 62.0222 45.9135C60.7856 44.7503 60.1367 42.9384 60.1367 41.0896C60.1367 39.2287 60.7856 37.4289 62.0222 36.2659ZM64.0424 44.5177C64.2995 44.8238 64.8994 45.3993 65.94 45.3993C66.993 45.3993 67.5806 44.836 67.8377 44.5177C68.0336 44.3096 68.7438 43.3546 68.7438 41.0896C68.7438 38.8246 68.0336 37.8819 67.8377 37.6616C67.5806 37.3555 66.9807 36.7801 65.94 36.7801C64.8994 36.7801 64.2995 37.3432 64.0424 37.6616C63.8587 37.8819 63.1364 38.8246 63.1364 41.0896C63.1364 43.3424 63.8587 44.2973 64.0424 44.5177Z" fill="#151515"/>
<path d="M81.2354 39.4753C81.1864 38.8631 80.9538 38.1408 80.6355 37.6878C80.3539 37.2593 79.7785 36.7818 78.8357 36.7818C77.9053 36.7818 77.2808 37.2593 76.9013 37.8959C76.3014 38.8753 76.2647 40.3935 76.2647 41.0914C76.2647 42.2055 76.4238 43.54 76.9013 44.2991C77.2074 44.7765 77.8318 45.3887 78.8357 45.3887C79.5459 45.3887 80.1335 45.1071 80.5988 44.4827C80.9538 43.9808 81.1987 43.2707 81.2476 42.6463L83.7697 42.9524C83.6228 44.0665 83.1331 45.3153 82.2516 46.1111C81.5169 46.7722 80.3661 47.3722 78.75 47.3722C76.9502 47.3722 75.7749 46.662 75.0893 46.0131C74.1589 45.1317 73.2773 43.5645 73.2773 41.0914C73.2773 38.7896 74.0609 37.4062 74.6731 36.6716C75.5546 35.6187 77.0482 34.7617 78.8113 34.7617C80.3049 34.7617 81.5537 35.2881 82.3251 36.0961C83.1086 36.8797 83.5861 38.0673 83.7574 39.1325L81.2354 39.4753Z" fill="#151515"/>
<path d="M93.0362 39.4753C92.9873 38.8631 92.7546 38.1408 92.4486 37.6878C92.167 37.2593 91.5915 36.7818 90.6365 36.7818C89.706 36.7818 89.094 37.2593 88.7144 37.8959C88.1267 38.8753 88.0777 40.3935 88.0777 41.0914C88.0777 42.2055 88.2491 43.54 88.7144 44.2991C89.0205 44.7765 89.6448 45.3887 90.6365 45.3887C91.3466 45.3887 91.9465 45.1071 92.3995 44.4827C92.7546 43.9808 92.9873 43.2707 93.0362 42.6463L95.5583 42.9524C95.4119 44.0665 94.9225 45.3153 94.0401 46.1111C93.2933 46.7722 92.167 47.3722 90.5386 47.3722C88.7266 47.3722 87.5635 46.662 86.8779 46.0131C85.9475 45.1317 85.0781 43.5645 85.0781 41.0914C85.0781 38.7896 85.8617 37.4062 86.4861 36.6716C87.3554 35.6187 88.8613 34.7617 90.6243 34.7617C92.1179 34.7617 93.3546 35.2881 94.1503 36.0961C94.9348 36.8797 95.4119 38.0673 95.5829 39.1325L93.0362 39.4753Z" fill="#151515"/>
<path d="M108.28 43.6374C107.852 45.0576 106.994 45.8902 106.285 46.3921C105.33 47.041 104.093 47.3961 102.783 47.3961C101.143 47.3961 99.4771 46.6982 98.4738 45.682C97.5433 44.7393 96.8574 43.0865 96.8574 41.1399C96.8574 38.6667 97.8862 37.0262 99.0001 36.0956C99.6491 35.5569 100.861 34.7856 102.685 34.7856C104.999 34.7856 106.468 35.8508 107.252 36.9527C108.085 38.0912 108.476 39.6829 108.476 41.0664V41.6173H99.8692C99.8692 41.7519 99.8446 42.8539 100.274 43.7354C100.91 45.0699 102.086 45.4005 102.893 45.4005C103.542 45.4005 104.338 45.2045 105.011 44.5189C105.416 44.0904 105.574 43.6864 105.648 43.3069L108.28 43.6374ZM105.476 39.8053C105.476 39.1197 105.317 38.3361 104.95 37.8097C104.497 37.1486 103.689 36.6956 102.807 36.6956C101.901 36.6956 101.118 37.1486 100.64 37.7117C100.261 38.1892 99.9306 38.9238 99.9306 39.8053H105.476Z" fill="#151515"/>
<path d="M120.218 35.0308V47.1636H117.451V37.0753H114.317C114.244 38.7159 114.195 39.3771 114.146 40.5034C114.072 41.7645 113.974 44.4212 112.909 45.8782C112.321 46.6617 111.586 46.9678 111.06 47.1147C110.754 47.2127 110.424 47.2616 110.081 47.2616C109.848 47.2616 109.603 47.2371 109.371 47.1636V45.0701H109.603C109.959 45.0456 110.436 44.862 110.754 44.6171C111.709 43.8581 111.795 42.144 111.893 40.785C112.015 38.9975 112.04 37.9324 112.052 36.3162L112.077 35.0308H120.218Z" fill="#151515"/>
<path d="M125.886 39.3526H128.935C129.718 39.3526 131.248 39.4505 132.24 40.4544C133.146 41.3359 133.232 42.5725 133.232 43.2336C133.232 44.9722 132.522 45.8537 131.971 46.3067C131.775 46.4536 130.881 47.1637 129.155 47.1637H123.119V35.0308H125.874V39.3526H125.886ZM125.886 45.1558H128.053C128.58 45.1558 129.143 45.1314 129.621 44.7273C129.902 44.458 130.244 44.0172 130.244 43.2459C130.244 42.5848 130.049 42.0583 129.51 41.7032C129.032 41.3972 128.432 41.3482 128.053 41.3482H125.886V45.1558Z" fill="#151515"/>
<path d="M137.245 35.0308L139.485 38.8016L141.812 35.0308H144.333L140.783 40.5156L144.994 47.1515H141.762L139.008 42.5848L136.105 47.1515H133.584L137.71 40.8585L134.012 35.0308H137.245Z" fill="#151515"/>
<path d="M147.126 36.2659C147.958 35.4823 149.195 34.7966 151.044 34.7966C152.905 34.7966 154.14 35.4823 154.974 36.2659C156.21 37.4289 156.847 39.2409 156.847 41.0896C156.847 42.9384 156.198 44.7503 154.974 45.9135C154.14 46.697 152.905 47.3949 151.044 47.3949C149.183 47.3949 147.958 46.7092 147.126 45.9135C145.889 44.7503 145.24 42.9384 145.24 41.0896C145.253 39.2287 145.889 37.4289 147.126 36.2659ZM149.146 44.5177C149.403 44.8238 150.003 45.3993 151.044 45.3993C152.096 45.3993 152.684 44.836 152.953 44.5177C153.137 44.3096 153.859 43.3546 153.859 41.0896C153.859 38.8246 153.149 37.8819 152.953 37.6616C152.696 37.3555 152.096 36.7801 151.044 36.7801C150.003 36.7801 149.403 37.3432 149.146 37.6616C148.962 37.8819 148.24 38.8246 148.24 41.0896C148.24 43.3424 148.962 44.2973 149.146 44.5177Z" fill="#151515"/>
<path d="M158.328 38.3104C158.684 36.8413 159.613 36.0332 160.275 35.6292C160.679 35.3721 161.793 34.7966 163.703 34.7966C164.891 34.7966 166.103 35.0048 167.009 35.5068C168.344 36.2414 168.673 37.3065 168.673 38.0778C168.673 38.9103 168.27 40.502 166.201 40.7346V40.7835C166.91 40.8815 167.707 41.1876 168.172 41.6895C168.6 42.1425 168.931 42.9016 168.931 43.7097C168.931 44.9217 168.221 45.9992 167.315 46.5868C166.225 47.2969 164.72 47.3949 163.605 47.3949C162.479 47.3949 160.777 47.2725 159.577 46.3297C158.916 45.8032 158.292 44.8972 158.107 43.7587L160.605 43.3301C160.704 43.7097 160.911 44.2852 161.205 44.6157C161.817 45.338 162.797 45.3993 163.421 45.3993C164.034 45.3993 164.707 45.3258 165.221 44.9707C165.698 44.6402 165.932 44.1872 165.932 43.5873C165.932 43.0853 165.833 42.6813 165.417 42.3262C164.866 41.8732 164.131 41.7998 163.446 41.7998H162.185V39.9388H163.446C163.923 39.9388 164.609 39.8408 164.989 39.6572C165.49 39.4001 165.772 38.9716 165.772 38.286C165.772 37.9064 165.626 37.5392 165.27 37.2575C164.72 36.8045 163.935 36.7801 163.531 36.7801C162.98 36.7801 162.173 36.8535 161.511 37.4167C161.23 37.6493 160.85 38.1023 160.728 38.8246L158.328 38.3104Z" fill="#151515"/>
<path d="M183.048 33.6963H175.175V37.3081H178.677C179.938 37.3081 181.15 37.4061 182.386 38.263C183.599 39.0956 184.357 40.3322 184.357 42.1197C184.357 43.7848 183.745 45.0213 182.95 45.8049C181.762 46.9925 180.403 47.1639 178.983 47.1639H171.367V30.8438H183.048V33.6963ZM175.175 44.299H178.249C178.824 44.299 179.35 44.2744 179.889 43.7235C180.415 43.197 180.488 42.6093 180.488 42.1563C180.488 41.6299 180.342 41.1157 179.889 40.6627C179.35 40.1241 178.652 40.0628 178.15 40.0628H175.175V44.299Z" fill="#151515"/>
<path d="M186.316 38.3973C186.696 36.7568 187.774 35.9242 188.411 35.5447C189.352 34.9938 190.614 34.7856 192.181 34.7856C194.176 34.7856 196.209 35.0427 197.103 36.9282C197.58 37.8954 197.531 38.9483 197.531 39.8543V44.5434C197.531 45.5229 197.678 46.4289 197.886 47.1634H194.434C194.336 46.686 194.274 46.0493 194.25 45.2413C193.797 46.0493 192.707 47.4083 190.186 47.4083C189.071 47.4083 187.92 47.1268 187.137 46.4778C186.377 45.8535 185.9 44.8618 185.9 43.7721C185.9 42.5601 186.427 41.1031 188.496 40.2461C189.83 39.6951 191.998 39.5115 192.976 39.4625L194.116 39.4136V39.1564C194.116 38.8259 194.091 38.1158 193.76 37.724C193.307 37.1975 192.401 37.1852 192.046 37.1852C191.556 37.1852 190.957 37.2343 190.455 37.5404C190.149 37.724 189.744 38.1158 189.598 38.7769L186.316 38.3973ZM193.05 41.4214C191.863 41.5194 190.675 41.6418 190.001 42.4621C189.818 42.6947 189.623 43.062 189.623 43.5517C189.623 44.0781 189.88 44.4333 190.149 44.6169C190.479 44.874 190.981 44.9964 191.458 44.9964C192.169 44.9964 193.001 44.6903 193.479 44.1149C193.553 44.0415 194.116 43.3313 194.116 41.9479V41.3112L193.05 41.4214Z" fill="#151515"/>
<path d="M203.837 35.0308V39.5729H207.669V35.0308H211.208V47.1515H207.669V42.0583H203.837V47.1515H200.299V35.0308H203.837Z" fill="#151515"/>
<path d="M217.513 35.0308V39.6953H218.468C219.496 39.6953 219.924 39.1934 220.181 38.6424C220.683 37.5773 220.659 36.7448 221.112 35.9122C221.467 35.2511 221.944 35.0797 222.25 35.0308H225.176C224.797 35.4347 224.467 35.9122 224.247 36.3407C223.867 37.1243 223.512 38.4098 223.291 38.9608C223.01 39.7199 222.532 40.4789 221.32 40.5769V40.6259C221.969 40.7238 222.63 41.0543 223.132 41.7889C223.438 42.2419 223.647 42.8296 223.989 43.7601C224.319 44.715 224.467 45.0456 224.773 45.7802C225.017 46.3312 225.153 46.6617 225.556 47.1637H222.226C221.7 46.9923 221.344 46.6372 220.916 45.4007C220.586 44.4457 220.537 44.1151 220.317 43.5887L220.145 43.1602C219.789 42.2542 219.312 42.0583 218.577 42.0583H217.513V47.1515H213.975V35.0308H217.513Z" fill="#151515"/>
<path fill-rule="evenodd" clip-rule="evenodd" d="M20.1437 59.6678C9.03543 59.6678 0 50.6324 0 39.5335C0 33.1551 2.93015 27.2853 8.02731 23.4413L8.24401 23.2717V14.321H19.8044V19.3994C19.9175 19.3994 20.0306 19.3994 20.1437 19.3994C31.2518 19.3994 40.2778 28.4347 40.2778 39.543C40.2778 50.6324 31.2424 59.6678 20.1437 59.6678Z" fill="#151515"/>
<path fill-rule="evenodd" clip-rule="evenodd" d="M14.3105 39.8538L18.5031 35.7365V32.9382L14.3105 37.0366V39.8538Z" fill="white"/>
<path fill-rule="evenodd" clip-rule="evenodd" d="M14.3105 29.4237L18.5031 25.297V22.6589L14.3105 26.7574V29.4237Z" fill="white"/>
<path fill-rule="evenodd" clip-rule="evenodd" d="M14.3105 32.8716L18.5031 28.7543V26.1162L14.3105 30.2147V32.8716Z" fill="white"/>
<path fill-rule="evenodd" clip-rule="evenodd" d="M13.1138 22.6884L12.5485 22.1513V15.6221H11.9172V21.5295L11.3708 20.983V15.6221H10.7301V20.3706L10.1742 19.8242V15.6221H9.54297V21.8498L13.7451 25.9671V15.6221H13.1138V22.6884Z" fill="white"/>
<path fill-rule="evenodd" clip-rule="evenodd" d="M14.3105 36.3209L18.5031 32.2036V29.5654L14.3105 33.6639V36.3209Z" fill="white"/>
<path fill-rule="evenodd" clip-rule="evenodd" d="M9.54297 35.7365L13.7451 39.8538V37.0366L9.54297 32.9382V35.7365Z" fill="white"/>
<path fill-rule="evenodd" clip-rule="evenodd" d="M17.872 19.8242L17.316 20.3706V15.6221H16.6848V20.9925L16.1289 21.5295V15.6221H15.4977V22.1419L14.9418 22.6884V15.6221H14.3105V25.9671L18.5031 21.8498V15.6221H17.872V19.8242Z" fill="white"/>
<path fill-rule="evenodd" clip-rule="evenodd" d="M9.54297 25.297L13.7451 29.4237V26.7574L9.54297 22.6589V25.297Z" fill="white"/>
<path fill-rule="evenodd" clip-rule="evenodd" d="M9.54297 28.7543L13.7451 32.8716V30.2147L9.54297 26.1162V28.7543Z" fill="white"/>
<path fill-rule="evenodd" clip-rule="evenodd" d="M9.54297 32.2036L13.7451 36.3209V33.6639L9.54297 29.5654V32.2036Z" fill="white"/>
<path fill-rule="evenodd" clip-rule="evenodd" d="M34.5399 34.38H24.779H24.3361C24.5528 34.0408 24.6753 33.6451 24.6753 33.2211C24.6753 32.0057 23.686 31.0259 22.4706 31.0259C21.2553 31.0259 20.2754 32.0151 20.2754 33.2211C20.2754 33.7016 20.4261 34.1351 20.6899 34.493C20.5015 34.6155 20.3696 34.8323 20.3696 35.0772C20.3696 35.3222 20.5015 35.5388 20.6899 35.6614C20.4355 36.0194 20.2754 36.4622 20.2754 36.9332C20.2754 38.1487 21.2553 39.1285 22.4706 39.1285C23.686 39.1285 24.6753 38.1487 24.6753 36.9332C24.6753 36.5093 24.5528 36.1041 24.3361 35.7744H26.1827H31.9301V36.236H31.1763V36.8862H31.9301V37.5551H31.1763V38.7893H31.9301V38.2335H33.0418V38.7893H33.7861V37.5551H33.0418V36.8862H33.7861V36.236H33.0418V35.7744H34.5399C34.8319 35.7744 35.0675 35.5295 35.0675 35.2374V34.9076C35.0675 34.625 34.8225 34.38 34.5399 34.38ZM23.6106 36.9427C23.6106 37.5645 23.1019 38.0733 22.4706 38.0733C21.8488 38.0733 21.34 37.5645 21.34 36.9427C21.34 36.7166 21.4059 36.4999 21.5285 36.3209L21.8394 35.7838C21.6416 35.6142 21.519 35.3598 21.519 35.0772C21.519 34.7946 21.6416 34.5402 21.8394 34.3706L21.5285 33.8335C21.4059 33.6545 21.34 33.4472 21.34 33.2117C21.34 32.5899 21.8488 32.081 22.4706 32.081C23.0925 32.081 23.6106 32.5899 23.6106 33.2117C23.6106 33.6734 23.083 34.7757 23.083 34.7757V35.3692C23.0736 35.3787 23.6106 36.481 23.6106 36.9427Z" fill="white"/>
<path fill-rule="evenodd" clip-rule="evenodd" d="M5.72852 33.043V35.7847C5.72852 38.404 6.86854 40.0904 7.52806 40.7406C7.91436 41.1174 11.8149 44.9521 11.8714 45.0086C13.0869 46.1957 13.2942 46.5914 13.5674 47.2604V44.2266C13.5674 41.5225 12.2012 40.4767 11.4946 39.789C9.85521 38.1873 8.75289 37.132 7.86725 36.2464C6.18076 34.5599 5.72852 33.043 5.72852 33.043Z" fill="white"/>
<path fill-rule="evenodd" clip-rule="evenodd" d="M11.4931 46.5623C9.85368 44.9511 8.75127 43.9053 7.86563 43.0196C6.17915 41.3332 5.73633 40.1931 5.73633 40.1931V42.5579C5.73633 45.1772 6.92346 46.8449 7.52645 47.5327C7.91274 47.9095 11.8228 51.7347 11.8699 51.7819C13.0853 52.969 13.2926 53.5343 13.5658 54.2033V50.9998C13.5658 48.2958 12.1903 47.25 11.4931 46.5623Z" fill="white"/>
<path fill-rule="evenodd" clip-rule="evenodd" d="M20.1443 20.6897C19.8427 20.6897 19.5413 20.6991 19.2398 20.7085V21.9899C19.5318 21.9711 19.8334 21.9616 20.1443 21.9616C29.8392 21.9616 37.6969 29.8193 37.6969 39.5237C37.6969 49.2187 29.8392 57.0764 20.1443 57.0764C10.4493 57.0764 2.58213 49.2187 2.58213 39.5237C2.58213 34.1439 5.00351 29.3294 8.81931 26.1072V24.4678C4.24977 27.9067 1.30078 33.3713 1.30078 39.5237C1.30078 49.9253 9.73324 58.3577 20.1443 58.3577C30.5458 58.3577 38.9783 49.9253 38.9783 39.5237C38.9783 29.1221 30.5458 20.6897 20.1443 20.6897Z" fill="white"/>
<path fill-rule="evenodd" clip-rule="evenodd" d="M33.4648 49.3708C33.7569 48.975 34.0301 48.5604 34.2938 48.1364V45.6113H33.4648V49.3708Z" fill="white"/>
<path fill-rule="evenodd" clip-rule="evenodd" d="M35.8768 44.6864C35.9898 44.3189 36.1029 43.9515 36.1972 43.584H33.4648V44.2529H33.8794C34.6048 44.2341 35.4246 44.2247 35.8768 44.6864Z" fill="white"/>
<path d="M17.6857 43.491H16.9414V51.0001H17.6857V43.491Z" fill="white"/>
<path fill-rule="evenodd" clip-rule="evenodd" d="M15.2365 42.0485H17.6862C18.3175 42.0485 18.7603 42.1804 19.0147 42.4254C19.2691 42.6704 19.3915 43.1132 19.3915 43.7444V50.7636C19.3915 51.3949 19.2784 51.8377 19.0147 52.0826C18.6284 52.4689 17.9123 52.4689 17.3187 52.4689C17.1868 52.4596 17.0549 52.4596 16.9419 52.4596V55.7854C17.1868 55.8325 17.4318 55.8796 17.6862 55.9173V53.185C18.8168 53.185 19.5517 52.7988 19.9003 52.0262V56.0963C19.9756 56.0963 20.0605 56.0963 20.1452 56.0963C20.3054 56.0963 20.4561 56.0963 20.6164 56.087V43.867C20.6164 43.2169 20.7482 42.7646 20.9932 42.5102C21.2382 42.2464 21.681 42.1239 22.3029 42.1239C22.934 42.1239 23.8669 42.0297 24.3474 42.5102C24.5923 42.7646 24.7054 43.2262 24.7054 43.867V47.4661H23.0283V43.622H22.3029V55.955C22.5478 55.9267 22.7834 55.889 23.0283 55.842V48.1915H24.7054V55.4557C25.054 55.3614 25.3932 55.2484 25.7323 55.1259V48.4742C25.7323 47.7204 25.9113 47.1552 26.6839 46.8913L25.836 42.2653H27.5319L27.8146 47.3153H28.0219L28.3044 42.2653H30.0946L29.1336 46.8913C29.9344 47.174 30.0946 47.6639 30.0946 48.4742V52.7705C30.594 52.3936 31.065 51.9979 31.5172 51.5645V42.2276H36.492C36.5297 42.0014 36.5579 41.7848 36.5862 41.5492H24.9409L25.1011 42.3877C24.7337 41.7094 24.0364 41.3701 23.0094 41.3701H22.284C21.0497 41.3701 20.296 41.8601 20.0133 42.8399C19.7496 41.813 18.9675 41.3042 17.6768 41.3042H14.4922V55.0882C14.7372 55.173 14.9821 55.2578 15.2271 55.3332V42.0485H15.2365ZM30.6787 47.353L29.8779 46.5898L30.6787 42.4443V47.353Z" fill="white"/>
<path fill-rule="evenodd" clip-rule="evenodd" d="M27.5215 54.3631C27.7759 54.2311 28.0397 54.0992 28.2846 53.9579V48.2766H27.5215V54.3631Z" fill="white"/>
</svg>
