<svg width="178" height="80" viewBox="0 0 178 80" fill="none" xmlns="http://www.w3.org/2000/svg">
<path d="M166.693 29.7803H170.418L170.396 35.7967H171.205L173.331 29.7803H177.362L174.469 37.73L177.779 46.5281H173.418L171.273 39.7938H170.396L170.418 46.5281H166.693V29.7803ZM154.144 29.7803H157.846V35.8208H160.496V29.7812H164.196V46.5281H160.496V39.816H157.846V46.5281H154.143L154.144 29.7803ZM141.24 46.5504H145.096L145.557 43.6547H148.204L148.667 46.5504H152.52L149.279 29.8053H144.503L141.24 46.5504ZM146.891 34.876L147.592 39.9726H146.167L146.89 34.876H146.891ZM130.899 46.5281H135.411C136.397 46.5281 140.494 46.1002 140.515 41.0258C140.515 36.7666 137.341 36.0237 135.281 36.0237H134.601V33.8005H139.618V29.7812H130.899V46.5291V46.5281ZM134.601 43.16V39.3677H135.149C135.608 39.3677 136.793 39.389 136.793 41.1184C136.793 42.871 135.608 43.16 135.149 43.16H134.602H134.601ZM116.201 29.7803H119.422L122.266 33.732L125.139 29.7803H128.337V46.5281H124.544V36.3136L122.266 39.2315L119.99 36.3136V46.5281H116.201V29.7803ZM108.379 46.731C112.87 46.731 114.38 42.419 114.38 38.1329C114.38 33.8468 112.87 29.5348 108.379 29.5348C103.888 29.5348 102.379 33.8468 102.379 38.1329C102.379 42.419 103.888 46.731 108.379 46.731ZM108.379 42.6663C107.041 42.6663 106.365 41.0749 106.365 38.1329C106.365 35.1909 107.041 33.5977 108.379 33.5977C109.718 33.5977 110.393 35.1909 110.393 38.1329C110.393 41.0749 109.717 42.6663 108.379 42.6663ZM91.4008 46.5281H95.1913V41.0073H96.4631C100.207 41.0073 101.37 37.5484 101.37 35.3456C101.37 33.1919 100.031 29.7803 96.4631 29.7803H91.4008V46.5281ZM95.1913 33.4624H96.0898C96.9439 33.4624 97.4923 34.0015 97.4923 35.3929C97.4923 37.1899 96.5706 37.3215 96.0898 37.3215H95.1913V33.4634V33.4624ZM78.8927 29.7803H89.2323V46.5281H85.4418V33.8218H82.6823V46.5281H78.8927V29.7803ZM71.1154 36.2701C71.7277 36.2701 72.8466 35.8653 72.8466 34.6305C72.8466 33.1734 71.5544 33.0808 71.1802 33.0808C70.743 33.0808 69.9111 33.1503 69.0997 33.5541L69.0571 29.9146C70.3484 29.5793 71.2691 29.4885 72.3631 29.4885C75.4755 29.4885 76.8558 31.7126 76.8558 33.8885C76.8558 36.0005 75.6719 37.277 74.5122 37.7717V37.9291C75.6293 38.2913 77.1179 39.3881 77.1179 41.9484C77.1179 45.1155 74.9725 46.8644 72.2112 46.8644C70.743 46.844 69.7787 46.6421 68.6171 45.9909L68.6847 42.5088C69.7574 42.9822 70.4799 43.0257 71.2043 43.0257C72.4307 43.0257 72.9115 42.104 72.9115 41.4334C72.9115 40.4885 72.3205 39.8614 71.0283 39.8614H69.4943V36.2701H71.1154ZM56.2211 46.5281H60.0533L60.5359 43.6306H63.187L63.6465 46.5281H67.4786L64.2365 29.7803H59.4614L56.2211 46.5281ZM61.8494 34.8325L62.5719 39.9513H61.1259L61.8485 34.8325H61.8494ZM48.8828 29.7803H56.6565V33.9552H52.7363V46.5281H48.8828V29.7803Z" fill="#151515"/>
<path d="M1.54941 38.3439C1.54941 48.6492 9.74732 57.038 19.8238 57.038C29.8808 57.038 38.0732 48.6455 38.0732 38.3439C38.0732 28.022 29.8845 19.6277 19.8238 19.6277C9.74269 19.6277 1.54941 28.0192 1.54941 38.3439ZM0.587891 38.3439C0.587891 27.4745 9.21284 18.6421 19.8238 18.6421C30.4116 18.6421 39.0347 27.4736 39.0347 38.343C39.0347 49.1902 30.4107 58.0217 19.8229 58.0217C9.21376 58.0226 0.587891 49.1902 0.587891 38.3449V38.3439Z" fill="#151515"/>
<path d="M14.0875 25.9043C13.4225 26.2026 12.7907 26.5699 12.2024 27.0002C16.7794 24.9122 22.3678 25.0484 25.3663 26.4184C26.3093 26.8668 26.9429 27.1391 27.2301 27.6745C24.1176 26.8205 22.781 26.6658 20.1762 26.7315C16.4709 26.8001 11.5429 28.3016 9.65875 29.4493L8.83062 30.5053C11.5429 28.8621 16.6043 27.7885 19.4101 27.6977C22.5429 27.6541 24.9726 27.9459 27.2088 28.7759C27.0754 29.3586 26.791 29.6504 26.3093 29.944C17.3713 28.3489 12.0903 30.233 7.31609 33.4205L6.96687 34.4746C12.2904 30.7286 18.8163 29.6976 25.1051 30.8184C22.8495 31.6271 20.1549 31.8059 17.8983 32.3413C15.9716 32.7915 14.9415 32.9277 12.3756 33.8049C9.77269 34.6803 8.235 35.5769 7.27348 36.7228C6.8131 37.2638 6.46203 37.8899 6.3731 38.5615C6.33234 38.9635 6.35365 39.3267 6.48611 39.6861C6.59171 40.001 6.83348 40.3141 7.09748 40.6281C6.7918 41.1654 6.52594 41.8648 6.96687 42.6725C7.16325 43.0523 7.66717 43.434 8.15163 43.7961L8.01546 44.1963C7.95062 44.6706 7.88578 45.2301 8.19331 45.7007C8.71668 46.5538 9.35214 47.117 10.3609 47.6552C10.5147 48.3518 10.7537 48.9113 11.2798 49.4078C12.3969 50.461 14.8961 52.4813 19.3415 52.7962C22.6726 53.0223 25.0597 51.9885 25.9592 51.5383L27.0541 50.9566C25.1922 51.718 22.0612 52.1673 19.4953 51.9431C15.7715 51.6282 12.4442 49.1373 12.0273 48.4185C12.157 48.5065 12.333 48.575 12.484 48.6426C16.8451 50.7973 22.4744 51.9663 29.682 48.9576L30.2767 48.374C23.723 50.461 17.9863 50.3943 11.8282 47.0957C11.8958 46.7807 12.0273 46.5075 12.3099 46.2879C13.8855 47.0012 15.3991 47.5894 17.2397 47.9683C19.3869 48.374 21.8389 48.4648 23.8564 48.374C25.8943 48.2842 29.9238 47.2513 31.8302 46.2194C32.0043 46.0619 32.0914 45.7951 32.2665 45.6136C28.5454 47.0012 24.1176 47.6552 21.4471 47.4514C18.8395 47.2513 16.5191 46.9354 13.4511 45.4996C14.0412 45.2542 14.6553 45.0513 15.2676 44.8697C17.2833 45.4996 19.3415 45.8794 21.7731 45.9934C24.1853 46.1045 29.8136 45.1875 33.3614 42.9884C33.4735 42.6734 33.5818 42.3344 33.5818 42.3344C33.5818 42.3344 28.6529 45.03 23.0681 45.03C20.4605 45.03 18.8617 44.6474 17.6797 44.3556C20.3068 43.8619 23.6156 43.4571 27.3375 42.4928C29.2207 41.9972 31.5439 40.8736 32.5962 39.9325C33.4938 39.0997 34.196 38.0224 33.9561 36.9266C33.9088 36.6311 33.5161 35.9391 33.0334 35.6899C33.4938 35.0841 33.4503 34.5672 33.3864 34.1217C33.3401 33.7789 33.1872 33.401 32.9927 33.0657C32.6852 32.6572 32.398 32.3413 31.8061 31.9847C31.8969 31.5138 31.8356 31.0262 31.631 30.5924C31.1716 29.7847 30.3406 29.0899 28.9169 28.3489C28.8511 28.0562 28.6733 27.6745 28.3694 27.2938C26.5742 25.4754 23.6369 24.6001 21.1608 24.5538C21.0219 24.551 20.8839 24.55 20.7486 24.55C17.852 24.55 15.527 25.217 14.0875 25.9043ZM28.1064 30.3933C28.3268 30.1459 28.6529 29.7643 28.739 29.4493C29.355 29.8541 30.0553 30.46 30.1415 31.0889C29.4866 30.8388 28.7854 30.5739 28.1064 30.3942V30.3933ZM28.6529 33.1305C27.6034 32.8369 26.6835 32.4775 25.4534 32.2561C26.2009 31.9615 26.7021 31.6493 27.143 31.289C28.1249 31.5567 29.0457 31.8957 29.795 32.2311C29.6654 32.4265 28.915 33.1379 28.6872 33.1379C28.6753 33.1385 28.6635 33.1359 28.6529 33.1305ZM30.5593 33.916C30.8427 33.691 31.1067 33.4464 31.3485 33.1528C31.9385 33.6687 32.1136 34.0281 31.8302 34.5895C31.4374 34.2986 31.0178 34.1402 30.5593 33.916ZM8.06363 39.4841C6.43979 37.1943 12.069 35.5566 13.1445 35.2184C15.8818 34.3848 19.0822 33.7604 21.9741 33.401C23.9629 33.1528 25.018 33.3797 26.9031 33.8947C22.0612 35.2194 17.2833 35.6427 12.7267 37.0137C9.05294 38.1067 8.07845 39.4841 8.06363 39.4841ZM9.26506 40.5828C10.9741 39.0997 14.4589 38.2707 15.7308 37.9789C19.7815 37.0803 23.5498 36.5199 25.1051 36.117C26.9902 35.6427 28.3046 35.1962 29.2207 34.7479C29.2652 34.6803 30.7547 35.4195 30.9085 35.5973C30.4055 36.0262 29.707 36.3865 28.9382 36.6533C26.6382 37.5074 22.454 38.4041 20.2429 38.7468C18.0077 39.1257 16.142 39.4156 13.6706 40.0862C12.2441 40.4707 11.2798 40.9199 10.5786 41.3924C10.0534 41.0774 9.74675 40.9885 9.26506 40.5828ZM12.4442 42.3789C13.1649 42.0639 13.9541 41.8166 14.7183 41.6184C18.5755 40.6476 21.9741 40.4707 26.6613 39.1701C28.9169 38.5615 30.5593 37.9094 31.5902 37.1044C31.7422 36.9673 31.8959 36.8562 32.0497 36.7228C33.4077 38.8765 28.3046 40.5383 24.8189 41.3053C22.9967 41.6743 21.1708 42.0251 19.3415 42.3576C17.0665 42.7392 16.318 42.9421 14.7415 43.4136C13.9541 43.0986 13.1649 42.7615 12.4442 42.3789ZM8.3443 41.7054C8.6963 41.9324 8.95753 42.113 9.3753 42.3344C9.22153 42.4687 9.02329 42.6049 8.87138 42.7605C8.52308 42.5567 8.16923 42.1121 8.3443 41.7045V41.7054ZM10.1645 43.7711C10.3841 43.5692 10.6675 43.3682 10.9741 43.1672C11.6318 43.4821 12.3099 43.7702 12.9453 44.0639C12.5175 44.2238 12.1072 44.4271 11.7207 44.6706C11.1975 44.3783 10.6787 44.0781 10.1645 43.7702V43.7711ZM9.59391 44.8697C9.96629 45.118 10.3387 45.319 10.7129 45.5228C10.5591 45.7479 10.448 45.9248 10.3841 46.1518C9.83568 45.6793 9.57075 45.2977 9.59391 44.8697Z" fill="#151515"/>
</svg>
