<svg width="114" height="80" viewBox="0 0 114 80" fill="none" xmlns="http://www.w3.org/2000/svg">
<path d="M17.6648 26.4893V30.1636H5.56113V35.8537H12.3099L14.1733 35.9674L15.9247 36.3235L17.5517 37.1596L18.2531 37.742L19.0677 38.5781L19.767 39.7692L20.2308 41.3026L20.4571 43.2023L20.2308 44.9769L19.8801 46.4103L19.1786 47.5877L18.3663 48.4238L17.5517 49.1336L15.8003 49.9583L13.947 50.3133L12.1956 50.4384H0.904297V26.4893H17.6671H17.6648ZM5.56113 46.7641H11.846L13.0091 46.5229L14.1745 46.1702L14.9857 45.4593L15.3364 44.7506L15.574 43.7996L15.6871 43.0909L15.574 42.2548L15.3364 41.43L14.9857 40.5939L14.1733 39.999L13.008 39.5292L11.8449 39.404H5.56113V46.7641Z" fill="#151515" stroke="#151515" stroke-width="0.164876" stroke-linejoin="round"/>
<path d="M35.2494 26.4893V35.2599H38.3925L44.4477 26.4893H49.8049L42.4734 37.742L49.9203 50.4372H44.3368L38.3925 39.9978H35.2494V50.4384H30.5938V26.4893H35.2494Z" fill="#151515" stroke="#151515" stroke-width="0.164876" stroke-linejoin="round"/>
<path d="M76.9296 43.5582L75.7643 44.8641L74.3749 45.8129L72.8611 46.409L70.9966 46.6387L68.9035 46.4112L67.0423 45.574L65.6417 44.2692L64.4763 42.6084L63.7748 40.5926L63.5486 38.4653L63.7748 36.2084L64.4763 34.3087L65.6417 32.6478L67.0446 31.3431L68.9046 30.5183L70.9977 30.1634L72.8622 30.3909L74.376 30.9881L75.7654 32.0529L76.9307 33.2439L82.6386 34.0687L81.4733 31.8242L79.9572 29.8085L78.0938 28.1476L76.0053 26.9577L73.5614 26.1228L70.9977 25.8953L68.2054 26.1228L65.524 27.0726L63.1978 28.6197L61.3367 30.5195L59.9337 32.8879L59.0083 35.4986L58.6553 38.4642L59.006 41.3024L59.9337 43.9131L61.3367 46.2827L63.1967 48.2962L65.524 49.7181L68.2031 50.6669L70.9954 51.0229L73.5592 50.6669L76.003 49.957L78.0915 48.6522L79.9561 46.9914L81.4699 44.9779L82.6352 42.7221L76.9296 43.5582Z" fill="#151515" stroke="#151515" stroke-width="0.164876" stroke-linejoin="round"/>
<path d="M24.4219 52.6828H25.2365V24.2346H24.4219V52.6828Z" fill="#151515" stroke="#151515" stroke-width="0.164876" stroke-linejoin="round"/>
<path d="M55.04 52.6828H55.7415V24.2346H55.04V52.6828Z" fill="#151515" stroke="#151515" stroke-width="0.164876" stroke-linejoin="round"/>
<path d="M85.5547 52.6828H86.2561V24.2346H85.5547V52.6828Z" fill="#151515" stroke="#151515" stroke-width="0.164876" stroke-linejoin="round"/>
<g opacity="0.5">
<mask id="path-7-inside-1_10801_1468" fill="white">
<path d="M98.9464 48.8923L99.0573 49.1334V49.361H99.1727L99.408 49.4884H99.6343L99.8719 49.6021H100.458V49.4884L100.922 48.4236L101.736 47.3475L102.898 46.4078L104.177 45.5729L105.69 44.9779L107.206 44.5081L108.606 44.2692H109.772L110.699 44.6219L111.161 45.3328L111.987 44.0269L112.675 42.7221L113.152 41.1864L113.263 41.0613V40.9475L112.799 40.3526L111.985 39.9977L110.698 39.8839H109.186L107.556 40.1228L105.814 40.5937L104.065 41.1853L102.436 42.0112L100.922 42.9622L99.7565 44.152L99.0573 45.5717L98.7065 47.1188L98.9441 48.8911L98.9464 48.8923ZM113.498 37.1594L113.026 34.7888L112.1 32.5341L111.046 31.5842L109.654 30.8721L108.017 30.5172L106.277 30.3921L104.41 30.631L102.545 31.1008L100.685 31.8231L98.943 32.8879L97.4303 34.1927L96.1405 35.7261L95.215 37.5144L94.5158 39.6416L94.3993 41.8985L94.7523 44.5081L95.6778 47.2326L95.7943 47.5875L95.9142 47.8264L96.1405 47.9424L96.265 47.8264H96.3758L96.6168 47.7012L96.73 47.5875L96.8454 47.4737V47.3463L96.7288 44.8619L97.0796 42.721L97.8942 40.8326L99.0573 39.1718L100.46 37.867L102.199 36.9171L103.949 36.081L105.816 35.6124L107.555 35.4986H109.304L110.934 35.7261L112.323 36.3233L113.5 37.1583L113.498 37.1594ZM108.371 28.5026V28.6186H108.606L108.722 28.7324H108.959L109.069 28.8575V28.7324L108.722 28.3775L108.371 28.1499L105.463 26.844L102.787 26.1228H100.223L97.7788 26.7177L95.6766 27.6699L93.7001 29.0896L92.0709 30.8755L90.7845 32.889L89.8567 35.0185L89.2797 37.3892L89.1553 39.7713L89.506 42.1408L90.3206 44.3852L91.7235 46.5239L93.5858 48.4259L93.9366 48.6534L94.1628 48.8946L94.2873 49.0083H94.4004V49.1357H94.5158L94.6267 49.2495H94.8643L94.9774 49.3632L95.215 49.4906H95.3259L95.5658 49.6044H95.7932V49.1346L95.6766 48.8934L95.4504 48.4247L95.215 47.9435L93.9366 45.4591L92.9975 42.8484L92.7757 40.24V37.6293L93.3494 35.2597L94.164 33.0028L95.4504 31.1031L96.9642 29.4422L98.8197 28.2637L100.922 27.4276L103.135 27.2001L105.69 27.5527L108.371 28.5037V28.5026Z"/>
</mask>
<path d="M98.9464 48.8923L99.0573 49.1334V49.361H99.1727L99.408 49.4884H99.6343L99.8719 49.6021H100.458V49.4884L100.922 48.4236L101.736 47.3475L102.898 46.4078L104.177 45.5729L105.69 44.9779L107.206 44.5081L108.606 44.2692H109.772L110.699 44.6219L111.161 45.3328L111.987 44.0269L112.675 42.7221L113.152 41.1864L113.263 41.0613V40.9475L112.799 40.3526L111.985 39.9977L110.698 39.8839H109.186L107.556 40.1228L105.814 40.5937L104.065 41.1853L102.436 42.0112L100.922 42.9622L99.7565 44.152L99.0573 45.5717L98.7065 47.1188L98.9441 48.8911L98.9464 48.8923ZM113.498 37.1594L113.026 34.7888L112.1 32.5341L111.046 31.5842L109.654 30.8721L108.017 30.5172L106.277 30.3921L104.41 30.631L102.545 31.1008L100.685 31.8231L98.943 32.8879L97.4303 34.1927L96.1405 35.7261L95.215 37.5144L94.5158 39.6416L94.3993 41.8985L94.7523 44.5081L95.6778 47.2326L95.7943 47.5875L95.9142 47.8264L96.1405 47.9424L96.265 47.8264H96.3758L96.6168 47.7012L96.73 47.5875L96.8454 47.4737V47.3463L96.7288 44.8619L97.0796 42.721L97.8942 40.8326L99.0573 39.1718L100.46 37.867L102.199 36.9171L103.949 36.081L105.816 35.6124L107.555 35.4986H109.304L110.934 35.7261L112.323 36.3233L113.5 37.1583L113.498 37.1594ZM108.371 28.5026V28.6186H108.606L108.722 28.7324H108.959L109.069 28.8575V28.7324L108.722 28.3775L108.371 28.1499L105.463 26.844L102.787 26.1228H100.223L97.7788 26.7177L95.6766 27.6699L93.7001 29.0896L92.0709 30.8755L90.7845 32.889L89.8567 35.0185L89.2797 37.3892L89.1553 39.7713L89.506 42.1408L90.3206 44.3852L91.7235 46.5239L93.5858 48.4259L93.9366 48.6534L94.1628 48.8946L94.2873 49.0083H94.4004V49.1357H94.5158L94.6267 49.2495H94.8643L94.9774 49.3632L95.215 49.4906H95.3259L95.5658 49.6044H95.7932V49.1346L95.6766 48.8934L95.4504 48.4247L95.215 47.9435L93.9366 45.4591L92.9975 42.8484L92.7757 40.24V37.6293L93.3494 35.2597L94.164 33.0028L95.4504 31.1031L96.9642 29.4422L98.8197 28.2637L100.922 27.4276L103.135 27.2001L105.69 27.5527L108.371 28.5037V28.5026Z" fill="#151515" stroke="#151515" stroke-width="1.74472" mask="url(#path-7-inside-1_10801_1468)"/>
</g>
<mask id="path-8-inside-2_10801_1468" fill="white">
<path d="M112.102 32.5338L111.635 33.1288L110.825 33.3563H109.772L108.483 33.0037L107.204 32.5338L105.691 31.8229L104.415 31.1005L103.016 30.1632L101.975 29.3271L101.036 28.3772L100.461 27.5536L100.336 27.3147H100.226V27.1987L100.108 27.3124L99.9835 27.4262V29.0882L100.459 30.5181L101.496 32.0538L102.788 33.4837L104.414 34.9023L106.153 36.0808L108.144 37.0318L109.994 37.6256L111.861 37.7393L113.499 37.3867V37.0318L113.026 34.6611L112.101 32.5316L112.102 32.5338ZM97.19 28.7344V28.0223H97.0803L96.9649 28.1474L96.7296 28.3772L96.492 28.6183L95.4511 30.6318L95.1037 32.7625L95.3266 35.0183L96.0303 37.1569L97.1912 39.1738L98.8204 41.0622L100.687 42.8481L102.664 44.1541L104.876 45.2188L107.093 45.8138H109.305L111.398 45.3337L112.563 43.3179L113.265 40.9484L111.986 41.5445L110.473 41.7834L108.606 41.5445L106.741 40.9484L104.874 40.1248L103.013 38.9338L101.274 37.6279L99.7549 36.0808L98.4674 34.3062L97.5419 32.5338L97.078 30.6341L97.1889 28.7344H97.19ZM95.6785 27.4262L95.795 27.3124L96.0326 27.0735L96.1424 26.9575L96.2668 26.8438H96.0303L95.9138 26.9575L95.5653 27.0713L95.3255 27.1987L93.2369 28.7344L91.7231 30.5181L90.6732 32.6476L89.9694 35.0183L89.7432 37.3878L89.9694 39.8848L90.6732 42.3681L91.7231 44.6239L93.2369 46.7659L95.1037 48.5405L97.431 49.959L100.108 50.9101V51.0238H101.149L103.136 50.7963L105.115 50.314L106.043 49.959L106.982 49.4904L107.908 48.8943L108.145 48.7805L108.255 48.6554L106.042 49.1354L103.951 49.0103L101.738 48.4256L99.7583 47.3495L97.896 46.0447L96.1424 44.3838L94.7541 42.4955L93.5888 40.4797L92.7764 38.3388L92.4257 36.083V33.7124L92.8896 31.5828L93.9384 29.4419L95.6807 27.4285L95.6785 27.4262Z"/>
</mask>
<path d="M112.102 32.5338L111.635 33.1288L110.825 33.3563H109.772L108.483 33.0037L107.204 32.5338L105.691 31.8229L104.415 31.1005L103.016 30.1632L101.975 29.3271L101.036 28.3772L100.461 27.5536L100.336 27.3147H100.226V27.1987L100.108 27.3124L99.9835 27.4262V29.0882L100.459 30.5181L101.496 32.0538L102.788 33.4837L104.414 34.9023L106.153 36.0808L108.144 37.0318L109.994 37.6256L111.861 37.7393L113.499 37.3867V37.0318L113.026 34.6611L112.101 32.5316L112.102 32.5338ZM97.19 28.7344V28.0223H97.0803L96.9649 28.1474L96.7296 28.3772L96.492 28.6183L95.4511 30.6318L95.1037 32.7625L95.3266 35.0183L96.0303 37.1569L97.1912 39.1738L98.8204 41.0622L100.687 42.8481L102.664 44.1541L104.876 45.2188L107.093 45.8138H109.305L111.398 45.3337L112.563 43.3179L113.265 40.9484L111.986 41.5445L110.473 41.7834L108.606 41.5445L106.741 40.9484L104.874 40.1248L103.013 38.9338L101.274 37.6279L99.7549 36.0808L98.4674 34.3062L97.5419 32.5338L97.078 30.6341L97.1889 28.7344H97.19ZM95.6785 27.4262L95.795 27.3124L96.0326 27.0735L96.1424 26.9575L96.2668 26.8438H96.0303L95.9138 26.9575L95.5653 27.0713L95.3255 27.1987L93.2369 28.7344L91.7231 30.5181L90.6732 32.6476L89.9694 35.0183L89.7432 37.3878L89.9694 39.8848L90.6732 42.3681L91.7231 44.6239L93.2369 46.7659L95.1037 48.5405L97.431 49.959L100.108 50.9101V51.0238H101.149L103.136 50.7963L105.115 50.314L106.043 49.959L106.982 49.4904L107.908 48.8943L108.145 48.7805L108.255 48.6554L106.042 49.1354L103.951 49.0103L101.738 48.4256L99.7583 47.3495L97.896 46.0447L96.1424 44.3838L94.7541 42.4955L93.5888 40.4797L92.7764 38.3388L92.4257 36.083V33.7124L92.8896 31.5828L93.9384 29.4419L95.6807 27.4285L95.6785 27.4262Z" fill="#151515" stroke="#151515" stroke-width="1.74472" mask="url(#path-8-inside-2_10801_1468)"/>
</svg>
