<svg width="137" height="80" viewBox="0 0 137 80" fill="none" xmlns="http://www.w3.org/2000/svg">
<path d="M67.0722 27.7778H61.3184V51.3806H66.4418V35.8099H66.757L72.1957 44.7933H74.934L80.359 35.8099H80.6732V51.3806H85.8435V27.7778H80.1814L73.6673 38.4884L67.0722 27.7778Z" fill="#151515"/>
<path d="M96.5677 27.7778H91.373V51.3806H96.5638V41.3065H99.1607L106.323 51.3806H113.096L103.513 38.8032L112.253 27.7778H105.761L99.1187 36.4787L96.557 36.7612L96.5677 27.7778Z" fill="#151515"/>
<path fill-rule="evenodd" clip-rule="evenodd" d="M116.86 27.7778H135.536L130.937 32.5341H122.091V36.1961H127.472C128.715 36.1789 129.955 36.3329 131.156 36.6539C132.219 36.9277 133.219 37.4062 134.103 38.0629C134.889 38.6953 135.536 39.4873 136.001 40.3874C136.449 41.4445 136.676 42.5844 136.666 43.7347C136.673 44.8616 136.446 45.9775 136.001 47.0104C135.518 47.9287 134.864 48.7427 134.072 49.4066C133.197 50.0728 132.21 50.5743 131.159 50.8871C129.96 51.2205 128.72 51.3866 127.476 51.3806H116.86V27.7778ZM122.095 40.8134V46.6604L127.495 46.6568C128.793 46.6568 129.772 46.3743 130.406 45.8808C130.723 45.6246 130.978 45.2973 131.147 44.925C131.318 44.5527 131.401 44.1452 131.389 43.735C131.417 43.3228 131.34 42.9104 131.168 42.5356C130.996 42.1608 130.735 41.8354 130.406 41.5894C129.759 41.0601 128.828 40.8134 127.635 40.8134H122.095Z" fill="#151515"/>
<path d="M29.0825 27.8029L17.4271 39.5792L11.6029 33.6893L17.4342 27.7778H5.76805L0.0429688 33.6893L17.551 51.3806L32.4972 36.1533H41.4422L49.7043 27.8029H29.0825Z" fill="#151515"/>
<path d="M19.9531 51.1266L21.6268 49.453L33.1478 37.791H49.711L41.4418 46.1379H36.5836L31.6652 51.1266H19.9531Z" fill="#151515"/>
</svg>
