<svg width="169" height="80" viewBox="0 0 169 80" fill="none" xmlns="http://www.w3.org/2000/svg">
<path d="M123.735 30.4451H136.06V33.1405H135.168C135.168 33.1405 135.048 31.7334 133.619 31.7334H131.477V44.2087H128.439V31.7334H126.235C125.045 31.7334 124.747 32.6706 124.689 33.1392H123.794V30.4439H123.735V30.4451ZM149.457 30.4451H151.662V44.2087H148.682V34.5462L141.36 44.1494H139.155V32.9636C139.155 31.3811 137.726 31.1486 137.726 31.1486V30.4439H142.071V40.1669L149.455 30.4451H149.457ZM85.1493 44.2087H81.2776L78.5397 39.1147C78.5397 39.1147 77.7063 37.5903 76.8138 37.5903H75.6824V44.2087H72.7032V32.9636C72.7032 31.3811 71.2161 31.208 71.2161 31.208V30.387H75.7415V36.1264H77.0489C77.0489 36.1264 77.9439 36.0682 78.6579 34.8961C81.04 31.088 80.7421 30.387 81.754 30.387H84.7333V31.3242C82.6465 31.3242 82.052 35.4822 80.0872 36.7705C81.04 37.1204 81.397 37.9995 83.5403 41.8645C83.5403 41.8645 84.0771 43.1528 85.089 43.1528V44.2075H85.1481L85.1493 44.2087ZM167.917 41.2228C166.487 43.0959 164.463 44.4424 161.665 44.4424C157.973 44.4424 154.399 41.5739 154.399 37.8833V37.0623C154.399 33.0811 157.675 30.2102 161.665 30.2102C165.654 30.2102 168.75 33.431 168.75 37.2948H158.032V39.5821C158.032 41.5727 159.641 43.1528 162.022 43.1528C164.106 43.1528 165.475 42.275 166.607 41.1029L167.917 41.2203V41.2228ZM158.032 35.8914H165.298V35.1892C165.298 33.1986 163.689 31.616 161.665 31.616C159.641 31.616 158.032 33.1986 158.032 35.1892V35.8914ZM98.4277 39.4646C98.4277 41.2203 97.1781 42.861 95.2121 42.9785H94.9154C93.1882 42.9785 91.6999 41.7483 91.5214 40.4018V34.4869C91.6395 33.0811 93.0676 31.5566 94.9154 31.5566H95.51C95.51 31.5566 98.3095 31.7334 98.4264 35.0717V39.4646H98.4277ZM95.5704 30.2114C93.8432 30.2114 92.2354 30.9137 91.5226 31.9671V30.4463H87.055V31.2648C87.055 31.2648 88.4831 31.4998 88.4831 33.0205V50.5341H91.5201V42.7448C92.9481 44.3274 94.7947 44.4436 95.3919 44.4436C99.3202 44.3855 101.999 41.3984 101.999 37.6496V36.7718C101.94 32.7287 99.4396 30.2114 95.5691 30.2114H95.5704ZM53.2917 39.4053C53.2917 41.3959 51.7455 43.0959 49.4225 43.0959C47.1007 43.0959 45.6714 41.3403 45.6714 39.4065V35.0161C45.6714 33.0255 47.3986 31.5022 49.4225 31.5022C51.7443 31.5022 53.2942 33.0848 53.2942 35.0754V39.409L53.2917 39.4053ZM49.4225 30.2114C44.1831 30.2114 42.0385 34.1926 42.0385 36.8286V38.0007C42.0385 41.046 45.0756 44.4424 49.4225 44.4424C53.4702 44.4424 56.9271 41.4552 56.9271 37.9414V37.0042C56.9271 33.4904 54.0673 30.2114 49.4225 30.2114ZM121.651 30.4451H117.184V31.2648C117.184 31.2648 118.674 31.4998 118.674 33.0823V44.2099H121.651V30.4439V30.4451ZM108.61 42.8029V37.0635H111.231C112.66 37.0635 113.732 38.1763 113.732 39.7589V40.3425C113.732 41.632 112.482 42.8029 111.113 42.8029H108.61ZM108.61 35.6565V30.3882H104.145V31.208C104.145 31.208 105.455 31.3242 105.455 32.9636V44.2087H112.362C115.042 44.2087 116.948 42.6261 116.948 40.3425V39.6996C116.948 37.2391 115.1 35.7159 112.184 35.7159H108.611V35.6578L108.61 35.6565ZM57.4023 30.4451H69.7278V33.1405H68.8352C68.8352 33.1405 68.7146 31.7334 67.2866 31.7334H65.142V44.2087H62.1062V31.7334H59.9038C58.7122 31.7334 58.4142 32.6706 58.3539 33.1392H57.4614V30.4439H57.401L57.4023 30.4451ZM27.3913 38.117C27.3913 42.0413 25.3071 45.5551 21.9734 47.254L21.1978 47.6051C20.9589 47.7225 20.661 47.7807 20.4234 47.7807C19.8867 47.7807 19.4706 47.5457 19.2317 47.1958C19.0532 46.8447 18.9929 46.4936 19.0532 46.0831C19.1726 45.4983 19.59 45.2634 19.7698 45.1471C21.7333 44.2693 22.984 42.2787 22.984 40.11V34.4275C22.984 32.2614 21.7345 30.2695 19.7698 29.3917C19.7698 29.3917 19.1739 29.0999 19.0532 28.4557C18.9954 28.0453 19.0532 27.6941 19.233 27.4011C19.4718 26.9906 19.8867 26.815 20.4247 26.815C20.6635 26.815 20.9602 26.8744 21.1978 26.9906C21.1978 26.9906 21.9118 27.343 21.9709 27.343C25.3058 29.0987 27.3888 32.6137 27.3888 36.48V38.1182L27.3913 38.117ZM12.9226 45.204C13.0407 45.2621 13.5171 45.5551 13.6366 46.1412C13.6956 46.5492 13.6366 46.9028 13.4581 47.254C13.2192 47.662 12.8044 47.84 12.2664 47.84C12.0275 47.84 11.7309 47.7807 11.492 47.6632L10.7189 47.3108C7.38396 45.5551 5.30101 42.0401 5.30101 38.1738V36.5368C5.30101 32.6125 7.38396 29.0987 10.7189 27.3998C10.778 27.3998 11.492 27.0487 11.492 27.0487C11.7309 26.9313 12.0288 26.8731 12.2664 26.8731C12.8031 26.8731 13.2192 27.1081 13.4581 27.458C13.6366 27.8103 13.6969 28.1627 13.6366 28.5126C13.5171 29.1555 12.92 29.4498 12.92 29.4498C10.9565 30.3276 9.70574 32.2614 9.70574 34.4869V40.1669C9.64666 42.3343 10.9565 44.3249 12.9213 45.204H12.9226ZM16.3166 21.25C7.26579 21.25 0 28.4545 0 37.2985C0 46.2005 7.32487 53.3445 16.3166 53.3445C25.3674 53.3445 32.6307 46.1412 32.6307 37.296C32.6911 28.4557 25.3649 21.25 16.3141 21.25H16.3166ZM45.3723 64.8232H43.1096V55.6293H47.9341L48.1126 56.8002H44.3616V59.3756H45.552C47.5168 59.3756 48.7072 60.3128 48.7072 62.0116C48.7676 63.886 47.4577 64.822 45.3735 64.822L45.3723 64.8232ZM45.5533 60.4884H44.4219V63.7092H45.4942C46.745 63.7092 47.5181 63.1825 47.5181 62.0697C47.5181 61.0151 46.804 60.4871 45.5533 60.4871V60.4884ZM53.8285 55.6293H55.0793L58.6518 64.707L57.401 65L56.3288 62.1316H52.5174L51.4464 64.8838H50.1365L53.8285 55.6306V55.6293ZM52.936 61.0163H55.9127L54.4243 57.092L52.9372 61.0151L52.936 61.0163ZM66.7498 64.8232V60.6071H62.0459V64.8232H60.7951V55.6862H62.0446V59.4943H66.7485V55.6862H68.0584V64.8232H66.7498ZM76.3964 64.9406L72.1099 60.1966V64.8232H70.7988V55.6862H72.1086V59.7873L75.9778 55.6874H77.5869L73.4763 59.9617L77.8257 64.6476L76.3964 64.9406Z" fill="#151515"/>
</svg>
