<svg width="159" height="80" viewBox="0 0 159 80" fill="none" xmlns="http://www.w3.org/2000/svg">
<path d="M48.1126 29.3013C50.7527 29.0793 53.0489 30.9635 53.1634 33.5123V34.066C53.1634 36.9477 51.2124 38.6099 48.1126 38.6099H41.9154V43.2636H39.2754V29.3013H48.1126ZM48.2272 36.1721C49.3759 36.2831 50.4088 35.3964 50.5234 34.2879V33.955C50.5762 33.361 50.3883 32.7706 50.0009 32.3136C49.6137 31.8564 49.0586 31.57 48.4577 31.5171H41.8008V36.1721H48.2272ZM63.0336 43.4868C58.4424 43.4868 54.6549 40.4941 54.6549 36.1721C54.6549 31.8501 58.4424 28.8574 63.0336 28.8574C67.6244 28.8574 71.4128 31.8501 71.4128 36.1721C71.4128 40.4941 67.6244 43.4856 63.0336 43.4856V43.4868ZM63.0336 31.1854C60.1643 30.9635 57.64 33.0684 57.4096 35.8392V36.1721C57.4096 39.0526 59.5911 41.1587 63.0348 41.1587C66.4773 41.1587 68.6578 39.0526 68.6578 36.1709C68.6578 33.2903 66.4773 31.1842 63.0336 31.1842" fill="#151515"/>
<path fill-rule="evenodd" clip-rule="evenodd" d="M82.3987 43.4882C77.5798 43.4882 74.0215 40.4956 74.0215 36.1735C74.0215 31.8516 77.6939 28.8588 82.3997 28.8588C84.8105 28.7479 87.1055 29.5247 89.0572 30.9649L87.6806 32.9589C86.1871 31.8516 84.3514 31.1857 82.5156 31.1857C78.9564 31.1857 76.7756 33.2918 76.7756 36.0626C76.7756 38.8333 78.9564 41.0504 82.5147 41.0504C84.4655 41.0504 86.3021 40.4956 87.7947 39.3871L89.1712 41.3821C87.1871 42.7553 84.8226 43.4903 82.3997 43.4871" fill="#151515"/>
<path d="M112.159 39.7188L110.552 43.0432H107.683L114.683 29.1895H117.438L124.44 43.0432H121.571L119.963 39.7188H112.159ZM113.305 37.5017H118.816L116.061 31.8504L113.307 37.5017H113.305Z" fill="#151515"/>
<path fill-rule="evenodd" clip-rule="evenodd" d="M138.415 43.1565V37.1723H129.003V43.1565H126.363V29.304H129.003V34.9552H138.415V29.304H141.053V43.1565H138.415ZM145.071 43.1565V29.304H147.711V35.7309L154.941 29.304H158.156L150.811 35.9528L158.5 43.1565H154.941L147.711 36.3956V43.1565H145.071Z" fill="#151515"/>
<path d="M101.012 34.288H94.8137V31.4063H105.029V29.1904H92.0596V43.043H100.898C103.996 43.043 106.177 41.3808 106.177 38.61C106.177 35.8393 104.227 34.288 101.012 34.288ZM101.241 40.7149H94.8137V36.6149H101.241C102.849 36.6149 103.882 37.5027 103.882 38.721C103.882 39.9393 103.078 40.8259 101.241 40.7149Z" fill="#151515"/>
<path fill-rule="evenodd" clip-rule="evenodd" d="M89.3096 60.7755V60.8853C89.3077 61.5732 89.0647 62.2392 88.6213 62.7694C88.1621 63.2133 87.4729 63.545 86.7855 63.545C85.293 63.545 84.1455 62.3256 84.1455 60.9962C84.1455 60.3304 84.4887 59.6669 84.9488 59.112C85.4071 58.6682 86.0954 58.4463 86.7855 58.4463C87.7039 58.4463 88.5063 58.8902 88.9654 59.556L88.2762 59.9999C87.933 59.556 87.3588 59.334 86.7855 59.334C86.3254 59.334 85.8672 59.445 85.5221 59.7779C85.178 60.1096 84.9488 60.5524 85.0629 60.9962C85.0629 61.4401 85.178 61.8828 85.5221 62.2157C85.8672 62.5474 86.3254 62.6596 86.7855 62.6596C87.4729 62.6596 88.1621 62.2157 88.3922 61.55H86.5545V60.6633L89.3096 60.7743V60.7755Z" fill="#151515"/>
<path d="M95.1638 63.4341H94.2455L93.2112 61.6609H91.2613V63.4341H90.458V58.6682H93.6713C94.0145 58.6682 94.4746 58.7803 94.7037 59.112C94.9329 59.445 95.0479 59.7779 95.0479 60.2206C95.1017 60.5468 95.0247 60.881 94.8308 61.1507C94.6379 61.4204 94.3438 61.6038 94.0145 61.6609L95.1638 63.4341ZM93.5563 60.8853C93.9004 60.8853 94.2455 60.6633 94.2455 60.4413V60.2195C94.2455 59.7767 94.0145 59.556 93.5563 59.556H91.2604V60.8853H93.5563ZM101.246 60.9962C101.246 62.4365 100.099 63.545 98.6062 63.545C97.1146 63.545 95.9662 62.4365 95.9662 60.9962C95.9662 60.3304 96.3113 59.6669 96.7695 59.112C97.2287 58.6682 97.917 58.4463 98.6062 58.4463C99.2945 58.4463 99.8697 58.6682 100.328 59.112C100.902 59.6669 101.246 60.3316 101.246 60.9962ZM100.328 60.9962C100.328 60.5524 100.213 60.1096 99.8697 59.7767C99.5246 59.445 99.0654 59.3328 98.6062 59.3328C98.1471 59.3328 97.6879 59.445 97.3437 59.7767C96.9987 60.1096 96.7696 60.5524 96.8836 60.9962C96.8836 61.4401 96.9987 61.8828 97.3437 62.2157C98.1471 62.8804 99.1804 62.8804 99.9838 62.2157C100.213 61.8828 100.442 61.4389 100.328 60.9962Z" fill="#151515"/>
<path fill-rule="evenodd" clip-rule="evenodd" d="M106.857 61.8834C106.857 62.3273 106.628 62.77 106.283 63.1029C105.251 63.7676 103.988 63.7676 102.956 63.1029C102.611 62.77 102.267 62.3261 102.267 61.8834V58.6699H103.07V61.6615C103.07 62.3273 103.529 62.77 104.562 62.77C105.596 62.77 106.054 62.4372 106.054 61.6615V58.6699H106.857V61.8822V61.8834Z" fill="#151515"/>
<path d="M111.34 58.6699C111.684 58.6699 112.144 58.781 112.373 59.1139C112.603 59.4456 112.717 59.7773 112.717 60.2212C112.717 60.6651 112.603 60.9968 112.373 61.3297C112.028 61.6615 111.684 61.7736 111.225 61.7736H108.929V63.5457H108.126V58.7798H111.34V58.6699ZM111.225 60.8859C111.684 60.8859 111.913 60.6639 111.913 60.22C111.913 59.7773 111.684 59.5566 111.109 59.5566H108.814V60.8859H111.225Z" fill="#151515"/>
<path fill-rule="evenodd" clip-rule="evenodd" d="M5.02232 59.7769C4.5638 59.4452 3.98951 59.3331 3.30169 59.3331C2.38344 59.3331 2.03836 59.5549 2.03836 59.8879C2.03836 60.2208 2.15302 60.2208 2.49809 60.3317L3.87486 60.4428C4.33458 60.4428 4.79311 60.6647 5.25283 60.8866C5.5967 61.1074 5.71135 61.5501 5.71135 61.883C5.71135 62.3269 5.48205 62.7695 5.13818 63.1025C4.67845 63.4342 4.10528 63.5452 3.53099 63.5452C2.61274 63.5452 1.80915 63.3233 1.12012 62.6586L1.57984 61.9928C2.15302 62.4367 2.84196 62.6586 3.64555 62.6586C3.98951 62.6586 4.33459 62.6586 4.67845 62.4367C4.78318 62.3862 4.87121 62.3073 4.93225 62.2093C4.99338 62.1113 5.02501 61.9982 5.02352 61.883C5.02352 61.661 4.79311 61.4391 4.5638 61.3293C4.33459 61.2184 4.10528 61.2184 3.7602 61.2184L2.7274 61.1074C2.38344 61.1074 1.92371 60.9964 1.6945 60.7745C1.46519 60.5525 1.35063 60.2208 1.35063 59.8879C1.35063 59.444 1.57984 59.0013 1.92371 58.7805C2.38344 58.4476 2.95661 58.3367 3.53099 58.3367C4.33459 58.3367 5.13818 58.5586 5.71135 59.0024L5.02352 59.7769H5.02232Z" fill="#151515"/>
<path d="M11.7187 60.9963C11.8333 62.3256 10.6846 63.4341 9.30787 63.5451H9.07856C7.58603 63.5451 6.43848 62.3256 6.43848 60.9963C6.43848 60.3304 6.78244 59.667 7.24207 59.1122C7.73324 58.6839 8.36569 58.4475 9.02068 58.4475C9.67567 58.4475 10.308 58.6839 10.7992 59.1122C11.3736 59.667 11.7187 60.3316 11.7187 60.9963ZM10.9151 60.9963C10.9151 60.5524 10.8004 60.1097 10.4553 59.7768C10.1115 59.4451 9.65174 59.3329 9.19322 59.3329C8.73349 59.3329 8.27497 59.4451 7.9311 59.7768C7.58603 60.1097 7.35672 60.5524 7.47138 60.9963C7.47138 61.4401 7.58603 61.8829 7.9311 62.2158C8.7347 62.8805 9.7675 62.8805 10.57 62.2158C10.6846 61.8829 10.9151 61.439 10.9151 60.9963Z" fill="#151515"/>
<path fill-rule="evenodd" clip-rule="evenodd" d="M17.5746 59.7767L16.8855 60.1096C16.5417 59.6657 15.8527 59.334 15.2783 59.334C14.8198 59.334 14.2454 59.445 13.9016 59.7779C13.7379 59.9371 13.608 60.1268 13.5193 60.336C13.4306 60.5453 13.385 60.77 13.385 60.9968C13.385 61.2237 13.4306 61.4484 13.5193 61.6576C13.608 61.8668 13.7379 62.0566 13.9016 62.2157C14.2454 62.5474 14.8198 62.7694 15.2783 62.6596C15.9673 62.6596 16.5417 62.3256 16.8855 61.8828L17.5746 62.3267C17.1148 63.1023 16.1966 63.545 15.2783 63.545C14.5905 63.545 13.9016 63.3231 13.3284 62.8793C12.8676 62.4365 12.5248 61.7718 12.6395 60.9962C12.6395 60.3304 12.8687 59.556 13.4431 59.112C13.9016 58.6682 14.5894 58.4463 15.1637 58.4463C16.1966 58.4463 17.1148 59.0011 17.5746 59.7779V59.7767ZM18.722 58.6694H19.9038V63.4341H18.722V58.6694ZM25.035 63.4341H20.7877V58.6694H24.9204V59.445H21.5913V60.5524H23.8875V61.3292H21.5913V62.5474H25.035V63.4341ZM30.0848 59.445H28.2483V63.4341H27.4447V59.445H25.6082V58.6694H30.0848V59.445ZM35.2503 63.4341H31.0029V58.6694H35.1356V59.445H31.8066V60.5524H34.1015V61.3292H31.8066V62.5474H35.2503V63.4341ZM43.1693 60.7755V60.8853C43.1676 61.5732 42.924 62.2394 42.4803 62.7694C42.0218 63.2133 41.334 63.545 40.6438 63.545C39.1525 63.545 38.0049 62.3256 38.0049 60.9962C38.0049 60.3304 38.3488 59.6669 38.8085 59.112C39.2671 58.6682 39.9549 58.4463 40.6438 58.4463C41.5621 58.4463 42.3657 58.8902 42.8254 59.556L42.1364 59.9999C41.7925 59.556 41.2182 59.334 40.6438 59.334C40.1853 59.334 39.7256 59.445 39.3817 59.7779C39.2181 59.9371 39.0882 60.1268 38.9994 60.336C38.9108 60.5453 38.8651 60.77 38.8651 60.9968C38.8651 61.2237 38.9108 61.4484 38.9994 61.6576C39.0882 61.8668 39.2181 62.0566 39.3817 62.2157C39.7256 62.5474 40.1853 62.6596 40.6438 62.6596C41.4474 62.6596 42.0218 62.2157 42.251 61.55H40.4146V60.6633L43.1693 60.7743V60.7755ZM48.5641 63.4341H44.2022V58.6694H48.3348V59.445H45.0058V60.5524H47.302V61.3292H45.0058V62.5474H48.5641V63.4341ZM54.1881 63.4341H53.0406L50.2859 59.445V63.4341H49.4823V58.6694H50.6298L53.3845 62.6585V58.6694H54.1881V63.4341ZM59.8122 63.4341H55.4503V58.6694H59.5829V59.445H56.2538V60.5524H58.5489V61.3292H56.2538V62.5474H59.8122V63.4341Z" fill="#151515"/>
<path d="M65.4392 63.4338H64.5209L63.488 61.6606H61.537V63.4338H60.7334V58.668H63.9478C64.2905 58.668 64.7514 58.7801 64.9795 59.1118C65.2099 59.4448 65.3245 59.7777 65.3245 60.2204C65.3791 60.5465 65.3012 60.8808 65.1078 61.1505C64.9143 61.4202 64.6211 61.6035 64.2916 61.6606L65.438 63.4338H65.4392ZM63.832 60.885C64.2916 60.885 64.5209 60.6631 64.5209 60.2192C64.5209 59.7765 64.2916 59.5557 63.7174 59.5557H61.4223V60.885H63.8331H63.832ZM71.1782 63.4338H70.374L69.9158 62.4363H67.2745L66.8147 63.4338H66.0112L68.1922 58.668H69.1106L71.1764 63.4338H71.1782ZM69.5707 61.5497L68.6523 59.4448L67.734 61.5497H69.5707Z" fill="#151515"/>
<path fill-rule="evenodd" clip-rule="evenodd" d="M75.7572 63.434H71.9697V58.6693H72.774V62.5475H75.7572V63.434ZM80.9221 63.434H76.6755V58.6693H80.8071V59.445H77.4798V60.5523H79.7747V61.3291H77.4798V62.5475H80.9221V63.434ZM0.808594 22.2092H29.6177V50.2438H0.808594V22.2092ZM5.7437 35.2862V36.9484H24.4522V35.2862H5.74481H5.7437Z" fill="#151515"/>
</svg>
