<svg width="187" height="80" viewBox="0 0 187 80" fill="none" xmlns="http://www.w3.org/2000/svg">
<path d="M13.7716 28.3694V34.2365H11.4631C8.54691 34.2365 6.19727 36.5514 6.19727 39.4254C6.19727 42.2983 8.54691 44.6132 11.462 44.6132H13.7716V50.4803C19.0364 49.4826 22.9665 44.9328 22.9665 39.4243C22.9665 33.957 19.0374 29.4072 13.7716 28.3694" fill="#151515"/>
<path d="M11.4633 46.4485C7.53425 46.4485 4.33314 43.2961 4.33314 39.4255C4.33314 35.555 7.53316 32.4015 11.4612 32.4015H11.9075V28.1301H11.4622C5.14452 28.1301 0 33.1988 0 39.4245C0 45.6913 5.14452 50.7599 11.4633 50.7599H11.9086V46.4506H11.4633V46.4485Z" fill="#151515"/>
<path d="M39.1684 43.3762C38.2403 44.127 37.082 44.5356 35.8882 44.5332C33.0121 44.5332 30.7036 42.2583 30.7036 39.4244C30.7036 36.5916 33.011 34.3167 35.8882 34.3167C37.14 34.3113 38.3503 34.7654 39.2897 35.5928L41.1129 33.7978C39.6793 32.5072 37.8171 31.7956 35.8882 31.8013C31.594 31.8013 28.1514 35.2342 28.1514 39.4244C28.1514 43.6156 31.594 47.0875 35.8882 47.0875C37.8728 47.0875 39.6548 46.3693 40.9915 45.1723L39.1684 43.3762ZM121.598 32.4004L115.887 39.185L110.134 32.4004L110.094 32.4805V32.4004H107.785V46.4495H110.094V36.1518L115.887 42.9364L121.598 36.3121V46.4495H123.866V32.4004H121.598ZM58.2873 39.4244C58.2873 43.6557 54.8034 47.0475 50.5504 47.0475C46.2574 47.0475 42.8147 43.6156 42.8147 39.4244C42.8147 35.2342 46.2975 31.8013 50.5504 31.8013C54.8034 31.8013 58.2873 35.2342 58.2873 39.4244V39.4244ZM55.695 39.4244C55.695 36.5916 53.3865 34.3167 50.5104 34.3167C47.6342 34.3167 45.3258 36.5916 45.3258 39.4244C45.3258 42.2583 47.6342 44.5332 50.5104 44.5332C53.3865 44.5332 55.695 42.2583 55.695 39.4244ZM105.436 39.4244C105.436 43.6557 101.952 47.0475 97.6993 47.0475C93.4052 47.0475 89.9625 43.6156 89.9625 39.4244C89.9625 35.2342 93.4464 31.8013 97.6993 31.8013C101.992 31.8013 105.436 35.2342 105.436 39.4244V39.4244ZM102.884 39.4244C102.884 36.5916 100.575 34.3167 97.6993 34.3167C94.8232 34.3167 92.5147 36.5916 92.5147 39.4244C92.5147 42.2583 94.8232 44.5332 97.6993 44.5332C100.534 44.5332 102.884 42.2583 102.884 39.4244ZM89.9224 32.4004H86.8026L80.9301 38.3075H78.5404V32.4004H76.272V46.4495H78.5404V40.5824H80.8889L86.7625 46.4495H89.8412L82.8746 39.4645L89.9224 32.4004Z" fill="#151515"/>
<path d="M186 32.4004H182.924L177.009 38.3075H174.619V32.4004H172.351V46.4495H174.619V40.5824H177.009L182.841 46.4495H185.92L178.994 39.4645L186 32.4004ZM152.462 46.4484H154.975L148.695 32.4004H146.103L139.825 46.4495H142.336L143.713 43.4163H151.086L152.462 46.4495V46.4484ZM144.727 41.1804L147.4 35.2743L150.073 41.1804H144.726H144.727Z" fill="#151515"/>
<path d="M73.3559 42.3785C73.356 41.8232 73.2408 41.2739 73.0176 40.7654C72.7944 40.2569 72.468 39.8003 72.0592 39.4244C72.8284 38.6661 73.3559 37.6283 73.3559 36.4714C73.3525 35.3892 72.9196 34.3526 72.1525 33.5893C71.3853 32.826 70.3466 32.3984 69.2644 32.4004H60.9209V46.4885H69.2644C71.5328 46.4495 73.3559 44.6134 73.3559 42.3785V42.3785ZM63.2294 34.6764H69.2243C70.2371 34.6764 71.0464 35.4737 71.0464 36.4714C71.0464 37.4691 70.2371 38.2675 69.2243 38.2675H63.2294V34.6753V34.6764ZM69.2243 44.2136H63.2294V40.5824H69.2644C70.2772 40.5824 71.0875 41.4198 71.0875 42.3785C71.0464 43.3752 70.2371 44.2136 69.2243 44.2136V44.2136Z" fill="#151515"/>
<path d="M167.207 32.4405V38.3075H158.903V32.4405H156.595V46.4094H158.903V40.5814H167.207V46.4094H169.516V32.4405H167.207ZM139.015 42.3785C139.015 40.1426 137.152 38.3075 134.883 38.3075H128.889V34.6753H137.638V32.4004H126.58V46.4885H134.883C137.152 46.4495 139.015 44.6133 139.015 42.3785V42.3785ZM134.883 44.2136H128.889V40.5824H134.883C135.896 40.5824 136.707 41.4198 136.707 42.3785C136.707 43.3751 135.896 44.2136 134.883 44.2136Z" fill="#151515"/>
</svg>
