<svg width="156" height="80" viewBox="0 0 156 80" fill="none" xmlns="http://www.w3.org/2000/svg">
<path d="M46.5185 43.9591C45.0568 43.2343 44.1316 41.3134 43.9091 40.6217C43.6668 44.4316 41.8131 47.0751 39.6476 49.6206C38.5241 50.939 38.1309 52.2222 38.1309 52.2222C38.1309 52.2222 38.3479 50.7683 39.3194 49.5853C41.3405 47.15 43.2626 44.1155 43.4036 40.6085C43.5027 38.16 42.876 36.1751 41.8968 34.5395C42.4453 36.2423 42.366 38.3285 40.5078 40.2769C40.5078 40.2769 44.2087 35.826 39.0341 31.2627C36.9634 29.5257 34.6966 28.454 33.5312 27.694C37.7454 29.0741 39.8029 27.5552 39.8029 27.5552C38.458 28.7249 36.7155 28.7062 35.635 28.5366C35.928 28.6798 36.2331 28.8296 36.5602 29.0069C40.1146 30.9443 43.3077 34.1319 43.8518 38.5455V38.5124C44.679 42.8466 46.5185 43.9591 46.5185 43.9591Z" fill="#151515"/>
<path d="M22.7883 47.0087C22.7667 47.0069 22.7451 47.0094 22.7245 47.0161C22.704 47.0228 22.685 47.0336 22.6687 47.0478C22.6523 47.0619 22.639 47.0792 22.6295 47.0986C22.62 47.118 22.6144 47.1391 22.6132 47.1607C22.6112 47.1824 22.6137 47.2044 22.6205 47.2251C22.6273 47.2459 22.6382 47.265 22.6526 47.2814C22.667 47.2978 22.6847 47.3111 22.7044 47.3204C22.7241 47.3298 22.7455 47.335 22.7674 47.3358C22.7891 47.3373 22.8108 47.3345 22.8315 47.3276C22.8521 47.3206 22.8711 47.3097 22.8875 47.2953C22.9039 47.281 22.9173 47.2636 22.9269 47.2441C22.9365 47.2246 22.9422 47.2033 22.9436 47.1816C22.9457 47.1382 22.9306 47.0956 22.9015 47.0632C22.8724 47.0309 22.8317 47.0113 22.7883 47.0087ZM30.211 59.6842L29.4796 57.6652C30.3497 57.3998 31.8455 56.827 32.5163 56.447L32.0691 57.9164L33.5847 58.4219C32.6683 58.8845 31.558 59.3141 30.211 59.6842ZM25.6697 61.4994C23.9074 61.4994 21.895 61.093 21.3013 60.8804L22.2023 58.4352C22.9491 58.6554 24.5043 58.8868 25.6311 58.8801H25.7027C26.8306 58.8879 28.3826 58.6543 29.1337 58.4363L30.0325 60.8815C29.44 61.093 27.4287 61.4994 25.6697 61.4994ZM17.7491 58.4219L19.2669 57.9153L18.8175 56.447C19.4872 56.827 20.9863 57.3998 21.8542 57.6652L21.1218 59.6842C19.7802 59.3141 18.6655 58.8834 17.7491 58.4219ZM33.653 57.9725L32.73 57.619L32.9855 56.6607L33.2664 55.6198C33.2664 55.6198 31.6307 56.5098 29.3276 57.1773C28.6744 57.3645 28.1799 57.4505 28.1799 57.4505V58.1609C28.1799 58.1609 26.9463 58.3757 25.7016 58.3757H25.6311C24.3854 58.3757 23.1551 58.1609 23.1551 58.1609V57.4505C23.1551 57.4505 22.6594 57.3645 22.0074 57.1773C19.7031 56.5098 18.0708 55.6198 18.0708 55.6198L18.3461 56.6607L18.6072 57.619L17.682 57.9725L16.6543 58.3581C17.8306 58.9286 19.4608 59.7569 20.9522 60.1677L20.6008 61.1326C20.6008 61.1326 22.4942 61.9984 25.6454 62.0061V62.0072H25.6884V62.0061C28.8441 61.9984 30.7342 61.1326 30.7342 61.1326L30.3806 60.1677C31.8731 59.7569 33.5054 58.9286 34.6763 58.3592L33.6519 57.9736L33.653 57.9725ZM21.8157 19.0505L22.2343 19.0946L22.4149 18.7113L22.9436 17.5768L23.9239 18.0868L24.3039 18.2817L24.6068 17.9799L25.6653 16.9269L26.726 17.9799L27.03 18.2817L27.4089 18.0868L28.3848 17.5768L28.9201 18.7113L29.0985 19.0946L29.5171 19.0505L29.9191 19.0021C29.7351 19.4173 29.5997 19.8116 29.5027 20.1377C28.4453 19.5462 27.0685 19.208 25.6653 19.208C24.2675 19.208 22.894 19.5462 21.8322 20.1377C21.7173 19.7508 21.5782 19.3715 21.4159 19.0021L21.8157 19.0505ZM25.6653 19.7995C27.5433 19.7995 29.0456 20.424 29.8761 21.0904C29.8761 21.0904 30.1228 19.6013 30.9644 18.2861L29.4521 18.4591L28.659 16.7716L27.1401 17.5581L25.6653 16.0964L24.1948 17.5581L22.6726 16.7716L21.8818 18.4591L20.3695 18.2861C21.2121 19.6013 21.4577 21.0904 21.4577 21.0904C22.2926 20.424 23.7895 19.8006 25.6653 19.8006V19.7995ZM49.4655 44.8576C49.4655 44.8576 48.8123 45.9987 47.311 45.9987H47.2934C45.4925 45.9876 44.7656 44.8862 44.7656 44.8862C44.7656 44.8862 44.8713 46.3203 44.2225 48.2555C43.4405 50.5884 44.2292 52.2549 44.2292 52.2549C44.2292 52.2549 43.8084 52.3695 43.3249 52.3695C43.1356 52.3715 42.9468 52.3493 42.7631 52.3034C41.2596 51.9443 40.884 50.5697 40.884 50.5697C40.884 50.5697 41.0228 55.2112 35.6301 55.2112H35.5883C35.5883 55.2112 36.0641 54.5625 36.2029 52.6966C36.4606 49.2523 38.7836 48.7798 38.7836 48.7798C38.7836 48.7798 37.5433 48.6234 37.0058 48.141C36.1654 47.3766 36.2249 46.4932 36.2249 46.4932C38.1216 46.4657 39.3651 45.818 40.3113 44.7188C41.3378 43.5292 41.5064 42.246 41.5064 42.246C41.5064 42.246 40.4864 43.1734 38.5137 43.1734C38.3408 43.1734 38.1557 43.1657 37.9652 43.147C37.0312 43.0699 36.3857 42.4751 36.3857 42.4751C38.4399 41.1534 39.8795 38.848 38.6029 35.3763C37.5786 32.5929 35.1212 30.5144 32.6441 28.9493C31.8202 28.4327 31.3609 27.8588 31.3609 27.3654C31.3609 26.2023 33.0098 26.1648 33.6849 25.3839C34.4648 24.4763 33.9757 23.0047 33.2994 22.117C33.2994 22.117 33.5274 22.0707 33.8865 22.0707C34.5992 22.0707 35.8317 22.2502 36.845 23.3043C38.191 24.7032 37.6337 26.2243 37.6337 26.2243L37.9938 26.2959C38.2097 26.341 38.4234 26.3488 38.647 26.362L38.7913 26.3642C40.7475 26.3642 41.622 24.3122 41.622 24.3122C41.622 24.3122 43.7005 26.8786 40.6395 28.8887C40.113 29.2324 39.8795 29.5518 39.9412 29.891L39.9886 30.1146L40.2066 30.1532C42.425 30.7579 43.5485 32.2933 44.9187 34.0402C47.0004 36.6947 49.9446 36.7806 50.3092 36.7806H50.3477C50.3477 36.7806 49.6758 38.9097 47.6954 38.9097C47.6624 38.9097 47.6348 38.9097 47.6018 38.9075C46.692 38.8745 46.225 38.5253 46.225 38.5253C46.225 38.5253 45.8703 43.3596 49.4655 44.8576ZM47.6954 39.5618C50.1241 39.5618 50.937 37.0835 50.97 36.9767L51.241 36.1032L50.3312 36.1318H50.3279C50.0074 36.1318 47.3264 36.0603 45.4264 33.6371L45.2491 33.4124C44.0067 31.8285 42.8303 30.3206 40.7254 29.6344C40.8093 29.5607 40.8988 29.4937 40.9931 29.4339C42.11 28.6959 42.7587 27.8005 42.9228 26.7618C43.1618 25.1977 42.1672 23.9509 42.1232 23.9002L41.4469 23.0609L41.025 24.0555C40.9964 24.1183 40.2871 25.7121 38.7913 25.7121H38.6811C38.5787 25.7066 38.4796 25.7022 38.3837 25.6945C38.4366 24.9841 38.3066 23.8848 37.3131 22.8516C36.1181 21.6092 34.652 21.4231 33.8865 21.4231C33.4768 21.4231 33.2036 21.4737 33.175 21.4759L32.1539 21.6797L32.784 22.5135C33.2785 23.1567 33.7257 24.3419 33.1948 24.9598C33.0241 25.1581 32.6749 25.3167 32.3412 25.4775C31.6539 25.7947 30.7132 26.2386 30.7132 27.3654C30.7132 28.0946 31.2783 28.8568 32.2993 29.5044C35.3228 31.4132 37.1876 33.4036 37.9938 35.6021C39.2407 38.9835 37.6138 40.9111 36.0343 41.9299L35.3261 42.3859L35.9462 42.9576C36.0299 43.0313 36.7877 43.7021 37.9079 43.7991C38.1205 43.8123 38.3232 43.8244 38.5137 43.8244C39.2319 43.8244 39.8443 43.7109 40.3421 43.5589C40.1934 43.8188 40.0201 44.0637 39.8244 44.2903C38.9213 45.34 37.811 45.818 36.2139 45.8434L35.6202 45.8533L35.5761 46.4503C35.5695 46.5714 35.5255 47.6795 36.5697 48.6201C36.7294 48.7666 36.9221 48.8878 37.1259 48.9836C36.4165 49.6246 35.6962 50.7404 35.5574 52.6503C35.4396 54.2441 35.0618 54.8334 35.0563 54.84L34.4009 55.8456L35.5861 55.8611C37.5444 55.8611 39.0446 55.3191 40.0833 54.2441C40.6206 53.679 41.0218 52.9986 41.2563 52.2549C41.833 52.7473 42.5666 53.0176 43.3249 53.0171C43.8767 53.0171 44.3404 52.8993 44.3933 52.886L45.1489 52.6856L44.8151 51.9762C44.7898 51.9201 44.1587 50.4959 44.8372 48.467C45.1301 47.5892 45.2799 46.8038 45.3526 46.1903C45.9521 46.4981 46.6174 46.6553 47.2912 46.6485C49.1659 46.6485 49.9919 45.2442 50.0294 45.1847L50.3973 44.5392L49.7144 44.2573C47.4806 43.3265 46.9872 40.8284 46.8881 39.477C47.0896 39.5155 47.3198 39.5519 47.5809 39.5596L47.6954 39.5618Z" fill="#151515"/>
<path d="M44.9667 28.9551C45.4183 28.9551 45.947 29.1093 46.4448 29.627C48.0089 31.2208 49.465 31.31 49.465 31.31C49.2007 31.8981 48.4341 32.4136 47.6399 32.4136C47.456 32.4136 47.272 32.3861 47.0892 32.3222C46.012 31.9587 45.6276 30.3374 43.7364 29.3274C43.7364 29.3274 44.264 28.9551 44.9667 28.9551ZM43.428 29.9045C44.3333 30.3881 44.862 31.0368 45.3236 31.6118C45.7796 32.1735 46.2102 32.7132 46.8854 32.939C47.1255 33.0216 47.38 33.0602 47.6399 33.0602C48.6532 33.0602 49.6699 32.439 50.0565 31.5776L50.4442 30.713L49.5058 30.6579C49.4617 30.6568 48.2523 30.5456 46.9096 29.1665C46.3556 28.6015 45.687 28.3052 44.9667 28.3052C44.0855 28.3052 43.4335 28.7458 43.3608 28.7921L42.4983 29.4023L43.428 29.9045ZM43.8531 38.5124V38.5454C43.309 34.1319 40.1148 30.9443 36.5615 29.0068C36.2561 28.8435 35.9473 28.6867 35.6352 28.5365C36.7157 28.705 38.4582 28.726 39.8042 27.5551C39.8042 27.5551 37.7456 29.0751 33.5314 27.6939C34.6967 28.4539 36.9646 29.5256 39.0354 31.2626C44.2089 35.8259 40.5069 40.2769 40.5069 40.2769C42.3673 38.3295 42.4444 36.2423 41.8969 34.5383C42.8761 36.1751 43.5018 38.1599 43.4048 40.6084C43.2616 44.1154 41.3407 47.1488 39.3206 49.5853C38.3481 50.7682 38.1311 52.2221 38.1311 52.2221C38.1311 52.2221 38.5243 50.9389 39.6478 49.6194C41.8132 47.0751 43.6659 44.4316 43.9082 40.6216C44.1318 41.3134 45.0559 43.2343 46.5186 43.959C46.5186 43.959 44.6792 42.8466 43.8531 38.5124ZM15.7033 55.2115C10.3106 55.2115 10.4483 50.57 10.4483 50.57C10.4483 50.57 10.0716 51.9446 8.5692 52.3025C8.38966 52.351 8.19691 52.3686 8.00966 52.3686C7.52502 52.3686 7.10647 52.2552 7.10647 52.2552C7.10647 52.2552 7.8907 50.5887 7.10867 48.2558C6.46322 46.3206 6.56786 44.8854 6.56786 44.8854C6.56786 44.8854 5.8431 45.9879 4.04003 45.9978H4.0224C2.52222 45.9978 1.86796 44.8578 1.86796 44.8578C5.4609 43.3599 5.10954 38.5256 5.10954 38.5256C5.10954 38.5256 4.64252 38.8758 3.73162 38.9078C3.69858 38.91 3.66884 38.91 3.63689 38.91C1.65428 38.91 0.983497 36.7809 0.983497 36.7809H1.02315C1.38993 36.7809 4.33081 36.695 6.41255 34.0405C7.78386 32.2936 8.90734 30.7581 11.1224 30.1534L11.3449 30.1149L11.3922 29.8924C11.4539 29.5521 11.2226 29.2326 10.6961 28.8901C7.63517 26.8777 9.7136 24.3124 9.7136 24.3124C9.7136 24.3124 10.5838 26.3645 12.5443 26.3645C12.5906 26.3645 12.6358 26.3611 12.6864 26.3611C12.9067 26.3501 13.1237 26.3413 13.3396 26.2951L13.6998 26.2246C13.6998 26.2246 13.1391 24.7024 14.4895 23.3057C15.5028 22.2505 16.7354 22.071 17.4469 22.071C17.8082 22.071 18.0329 22.1173 18.0329 22.1173C17.3588 23.005 16.8697 24.4766 17.6496 25.3842C18.3237 26.1662 19.9703 26.2025 19.9703 27.3657C19.9703 27.858 19.5121 28.4341 18.6893 28.9496C16.2111 30.5147 13.7526 32.5932 12.7305 35.3765C11.4528 38.8483 12.8935 41.1536 14.9499 42.4754C14.9499 42.4754 14.3034 43.0702 13.3682 43.1473C13.1788 43.166 12.9937 43.1737 12.8175 43.1737C10.847 43.1737 9.82706 42.2463 9.82706 42.2463C9.82706 42.2463 9.99668 43.5284 11.0166 44.719C11.9694 45.8183 13.2118 46.466 15.1085 46.4924C15.1085 46.4924 15.168 47.3768 14.3298 48.1402C13.7901 48.6237 12.5498 48.779 12.5498 48.779C12.5498 48.779 14.875 49.2526 15.1317 52.6969C15.2704 54.5627 15.7419 55.2115 15.7419 55.2115H15.7033ZM16.2761 54.8403C16.2739 54.8337 15.8983 54.2455 15.7771 52.6495C15.6361 50.7407 14.9169 49.6249 14.2064 48.985C14.4113 48.888 14.6018 48.7669 14.7616 48.6215C15.8057 47.6797 15.7617 46.5717 15.754 46.4516L15.7143 45.8535L15.1162 45.8436C13.5235 45.8183 12.4111 45.3403 11.509 44.2906C11.3142 44.0633 11.1409 43.8185 10.9913 43.5592C11.5834 43.7381 12.199 43.8272 12.8175 43.8236C13.0103 43.8236 13.2118 43.8126 13.4233 43.7993C14.1485 43.7258 14.8338 43.4322 15.3872 42.9578L16.0084 42.3862L15.3002 41.9302C13.7141 40.9124 12.0949 38.9838 13.3396 35.6023C14.1458 33.4049 16.0084 31.4135 19.0363 29.5047C20.0584 28.857 20.6169 28.0948 20.6169 27.3657C20.6169 26.2389 19.6806 25.795 18.9922 25.4778C18.6574 25.317 18.3093 25.1584 18.1386 24.9601C17.6066 24.3422 18.0549 23.157 18.5495 22.5149L19.1839 21.68L18.1573 21.4762C18.1276 21.474 17.8577 21.4233 17.4469 21.4233C16.6803 21.4233 15.2176 21.6106 14.0236 22.8519C13.0279 23.8851 12.8968 24.9843 12.9486 25.6948C12.8516 25.7025 12.7547 25.7058 12.6534 25.7124H12.5432C11.0453 25.7124 10.337 24.1186 10.3095 24.0558L9.88764 23.0612L9.20584 23.9005C9.16729 23.9512 8.17047 25.198 8.41279 26.7621C8.5736 27.8007 9.22456 28.6973 10.3403 29.4342C10.4626 29.5113 10.5463 29.5796 10.608 29.6347C8.50091 30.3209 7.32566 31.8288 6.08432 33.4126L5.90478 33.6373C4.00808 36.0605 1.32274 36.1321 1.00112 36.1321L0.0869141 36.1035L0.365582 36.9769C0.397524 37.0827 1.20709 39.562 3.63689 39.562L3.75475 39.5598C4.01139 39.5521 4.24159 39.5158 4.44646 39.4761C4.34733 40.8276 3.85168 43.3268 1.61793 44.2575L0.935033 44.5395L1.30402 45.185C1.34037 45.2444 2.16866 46.6499 4.04553 46.6499C4.71817 46.6559 5.38223 46.4986 5.98078 46.1917C6.05348 46.803 6.20328 47.5894 6.49626 48.4673C7.17586 50.4962 6.54253 51.9203 6.51829 51.9765L6.18345 52.6858L6.94125 52.8863C6.99192 52.8995 7.45893 53.0174 8.00966 53.0174C8.76789 53.0186 9.50156 52.7486 10.0782 52.2563C10.312 52.9995 10.7125 53.6795 11.249 54.2444C12.291 55.3194 13.7879 55.8613 15.7463 55.8613L16.9325 55.8448L16.2761 54.8403Z" fill="#151515"/>
<path d="M4.88669 29.6272C5.38675 29.1095 5.91325 28.9553 6.36815 28.9553C6.80416 28.9628 7.22945 29.0917 7.59627 29.3276C5.70728 30.3376 5.31846 31.9589 4.23904 32.3235C4.06061 32.3863 3.87556 32.4138 3.69162 32.4138C2.89857 32.4138 2.13086 31.8984 1.86871 31.3102C1.86871 31.3102 3.32263 31.221 4.88669 29.6272ZM3.69162 33.0604C3.95156 33.0604 4.206 33.0218 4.44611 32.9392C5.12351 32.7145 5.55417 32.1748 6.01018 31.612C6.47389 31.037 6.99708 30.3894 7.90357 29.9047L8.8354 29.4025L7.96966 28.7912C7.89696 28.746 7.24821 28.3054 6.36815 28.3054C5.6456 28.3054 4.97701 28.6017 4.42298 29.1679C3.07921 30.5458 1.87312 30.657 1.82906 30.6581L0.890625 30.7132L1.27613 31.5778C1.66384 32.4392 2.68049 33.0604 3.69162 33.0604ZM7.93001 40.6086C7.82867 38.1601 8.4554 36.1753 9.43569 34.5396C8.88937 36.2425 8.96207 38.3286 10.8246 40.2782C10.8246 40.2782 7.12374 35.8261 12.2995 31.2628C14.3691 29.5258 16.6337 28.4541 17.8012 27.6941C13.5871 29.0742 11.5296 27.5553 11.5296 27.5553C12.8733 28.7251 14.6169 28.7052 15.6974 28.5367C15.4056 28.6799 15.0983 28.8297 14.7722 29.007C11.2167 30.9445 8.02473 34.1321 7.47731 38.5456V38.5126C6.65122 42.8468 4.814 43.9593 4.814 43.9593C6.27562 43.2345 7.19754 41.3136 7.42114 40.6219C7.66566 44.4318 9.5172 47.0753 11.6838 49.6207C12.8072 50.9392 13.2038 52.2223 13.2038 52.2223C13.2038 52.2223 12.9835 50.7684 12.0076 49.5855C9.99082 47.1502 8.07099 44.1157 7.93001 40.6086ZM24.4485 31.6781V32.5537C24.7492 32.1869 25.3296 32.2607 25.3296 32.2607V33.523C25.3296 33.523 25.3098 34.1431 25.0895 34.4119H26.3474C26.1304 34.1431 26.1084 33.523 26.1084 33.523V32.2596C26.1084 32.2596 26.6921 32.1858 26.9895 32.5526V31.677H24.4485V31.6781ZM23.9088 26.4869C24.3108 26.8074 24.5421 26.8614 24.5498 26.8658L24.7073 26.9385V26.1146L23.2292 25.4912C23.2292 25.4912 23.2413 25.9692 23.9077 26.4869H23.9088ZM27.4224 26.4869C28.0899 25.9692 28.1031 25.4912 28.1031 25.4912L26.625 26.1146V26.9385L26.7814 26.8658C26.7891 26.8614 27.0215 26.8074 27.4224 26.4869Z" fill="#151515"/>
<path d="M25.6652 24.2909L22.1042 22.88C22.4082 22.1596 23.8037 21.5483 25.6652 21.5472C27.5299 21.5483 28.9255 22.1596 29.2262 22.88L25.6652 24.2909ZM28.3197 28.7143L25.9273 29.9799V24.8549L29.1744 23.7479L28.3208 28.7154L28.3197 28.7143ZM29.8022 30.0746L30.8971 30.7135H30.9125L31.1879 30.8732C30.57 31.045 30.0974 31.3556 29.7009 31.7621C29.6855 31.7753 29.6734 31.7896 29.6568 31.805C29.5644 31.9054 29.4755 32.009 29.3903 32.1156L29.3385 32.1817C29.2548 32.2897 29.1744 32.402 29.0984 32.5188C29.0863 32.5386 29.0709 32.5595 29.0577 32.5782C28.9651 32.719 28.8769 32.8626 28.7933 33.0089C28.0146 34.356 26.771 35.1622 25.6652 35.1644C24.5604 35.1622 23.3158 34.356 22.5382 33.0089C22.4556 32.8651 22.3689 32.7237 22.2782 32.5848C22.2606 32.5595 22.2452 32.532 22.2276 32.5099C22.1533 32.3996 22.0762 32.2913 21.9962 32.185C21.9764 32.1575 21.9577 32.1355 21.939 32.1112C21.8555 32.0076 21.7688 31.9066 21.679 31.8083C21.6603 31.794 21.6471 31.7753 21.6317 31.7599C21.2259 31.3345 20.7118 31.0279 20.1447 30.8732L20.4212 30.7124H20.4344L21.5303 30.0746L22.6538 29.4281L25.6597 31.0692L25.6652 31.0626L25.674 31.0692L28.6777 29.4281L29.8022 30.0746ZM34.1199 34.6335C33.8743 35.2834 33.6727 35.985 33.6727 36.6833L33.6738 41.1949C32.7343 41.0374 32.6242 40.0218 32.6209 39.9778L32.6032 39.7707L32.4006 39.7531C32.0557 39.7226 31.7336 39.568 31.4941 39.318C31.0337 38.8554 31.0326 38.1064 31.0337 38.1009C31.0271 38.1384 30.527 38.8422 31.1075 39.6099C31.352 39.9337 31.7055 40.1331 32.1649 40.2124C32.2717 40.7741 32.688 41.5705 33.6738 41.6916V43.8979H30.9037C29.626 43.1852 30.1679 41.9296 30.1933 41.8756L30.3012 41.6366L30.0567 41.5441C28.6721 41.0297 29.0544 39.644 29.072 39.5835L29.1281 39.383L28.9398 39.2927C27.7976 38.7607 27.9518 37.3299 27.9672 37.2693C27.6148 37.5557 27.4881 38.1395 27.7304 38.7111C27.6004 38.8609 27.4242 39.0427 27.2314 39.242C26.8979 39.1687 26.5977 38.9878 26.3772 38.727C26.1566 38.4663 26.028 38.1402 26.011 37.7991L26.0088 37.6306L25.8535 37.5711C25.3909 37.3982 25.0737 37.1416 24.9173 36.7946C24.7411 36.4124 24.8038 36.0104 24.8512 35.8176C25.1159 35.8738 25.3858 35.9023 25.6564 35.9024H25.6773C25.8139 35.9024 25.9483 35.8947 26.0826 35.8804C26.8206 35.8066 27.6456 35.4894 28.5058 34.6335H34.1199ZM30.6581 54.2901L30.9665 52.672C30.983 52.5762 31.0028 52.4649 31.0171 52.3724C31.1042 52.4088 31.1967 52.4385 31.2958 52.4572C31.4126 52.4793 31.5183 52.4903 31.6152 52.4903C32.0877 52.4903 32.3642 52.2414 32.546 52.0288L32.7828 51.7512L32.59 51.4472C32.3403 51.0482 32.081 50.6552 31.8124 50.2687C31.7466 50.1768 31.6835 50.0832 31.6229 49.9878C31.2484 49.4238 30.7781 48.7178 29.8342 48.7178L29.7505 48.72C29.5963 48.7288 29.4619 48.7597 29.3539 48.8004C29.0668 48.663 28.7526 48.5911 28.4342 48.59C28.0443 48.59 27.7172 48.6969 27.498 48.7729C27.4341 48.7905 27.379 48.8103 27.335 48.8191L25.5727 48.644C25.5506 48.6407 25.479 48.5978 25.392 48.4942V48.4854L25.7731 48.3323C25.6652 47.0568 24.4459 46.2726 23.7663 46.0082C23.7364 45.8722 23.6675 45.7478 23.568 45.6503L23.1902 45.289L22.8576 45.6888L22.6924 45.8937L20.2262 44.8759L21.831 46.8982L21.1988 47.862C20.9675 48.1087 21.2219 48.3565 21.2219 48.3565L21.8773 48.8081L22.5547 48.5548C22.5789 48.5548 22.5987 48.5603 22.6219 48.5625C22.5888 48.666 22.547 49.0725 22.5183 49.1859L21.3409 48.9535L20.104 49.654C19.8335 49.8507 19.6381 50.1335 19.5496 50.4559C19.4611 50.7784 19.4849 51.1213 19.6171 51.4285L19.7548 51.7303L19.9509 52.1554L20.3826 51.9759C20.3884 51.9747 20.3937 51.9721 20.398 51.9682C20.2427 52.4671 20.3066 52.9408 20.5831 53.2525L20.8463 53.5829L21.1955 54.0279L21.5799 53.6127C21.6922 53.5003 22.059 53.0884 22.1714 52.7359L22.2551 52.4671L22.0678 52.2612L22.037 52.2226L22.2474 51.8746L23.7839 52.238L24.1298 52.3174L24.3137 52.0134L24.4139 51.847C24.4327 51.8118 24.4371 51.8063 24.5087 51.8063C24.5637 51.8063 24.6177 51.8118 24.6761 51.825C25.2565 51.9351 25.7907 51.9902 26.2655 51.9902C26.7259 51.9902 27.0012 51.9715 27.3295 51.8625C27.3295 51.8625 28.1545 52.8031 28.182 52.8383L27.6764 54.4046L27.6544 54.4982C26.6961 54.5753 26.2324 54.7868 25.6685 55.3507C24.8512 54.5368 24.2718 54.4509 22.0744 54.4509C19.4431 54.4509 17.6598 52.9033 17.6598 50.4306V44.3858H33.6749L33.6771 50.4306C33.6771 52.4352 32.5052 53.834 30.6581 54.2901ZM20.7935 50.8722L20.8772 51.0815C20.8221 51.2644 20.1976 51.5221 20.1976 51.5221L20.0621 51.2247C19.9774 51.021 19.9632 50.7949 20.0216 50.5822C20.0801 50.3695 20.2079 50.1824 20.3848 50.0506L21.3982 49.4304L22.4721 49.6595C22.4522 50.001 22.656 50.2576 22.656 50.2576L21.5303 50.0407L20.8562 50.5077C20.7428 50.5881 20.7351 50.7346 20.7935 50.8722ZM30.4884 52.5795L30.1426 54.3892C29.9223 54.42 29.6888 54.4354 29.4487 54.4454L29.8122 52.7073C29.9223 52.1918 28.54 52.0299 27.8571 51.0154C27.5244 51.3899 26.8966 51.5034 26.2655 51.5034C25.7615 51.4965 25.2593 51.4426 24.7653 51.3426C24.6806 51.3274 24.5947 51.3193 24.5087 51.3183C24.306 51.3183 24.1231 51.3811 23.9954 51.5948L23.8963 51.7655L22.0128 51.3205L21.5447 52.0982C21.4786 52.2248 21.4731 52.3295 21.5799 52.4484L21.7066 52.5883C21.6196 52.8637 21.2274 53.28 21.2274 53.28L20.9477 52.9287C20.7274 52.6808 20.7626 52.2248 20.9939 51.8041L21.7407 50.5385L23.3356 50.7698L23.0878 50.2026C22.7551 49.4536 23.2618 48.4997 23.3158 47.9501C23.2982 48.1153 23.1462 48.1539 22.9688 48.1539C22.808 48.1539 22.6285 48.123 22.5095 48.123C22.4622 48.123 22.4214 48.1274 22.3994 48.144L21.9676 48.4072L21.6273 48.1043C21.5865 48.047 21.5733 47.9104 21.6735 47.8069L22.4622 46.9202L21.5303 45.8276L22.8356 46.4852L23.2343 46.0005C23.3444 46.1085 23.296 46.3904 23.296 46.3904C23.7035 46.3992 24.8457 47.0326 24.9063 48.514C24.9096 48.5581 24.9096 48.6099 24.9096 48.6583L24.9404 48.7068C25.0208 48.8191 25.2444 49.1033 25.5264 49.1309L27.3306 49.3104H27.3372C27.5354 49.3104 27.9287 49.0769 28.4342 49.0769C28.7096 49.0769 29.0158 49.1474 29.3418 49.3533C29.3418 49.3533 29.507 49.2234 29.7725 49.2102C29.7923 49.2069 29.8166 49.2069 29.8342 49.2069C30.6437 49.2069 30.9797 49.9415 31.4148 50.5506C31.7408 51.0154 32.177 51.7038 32.177 51.7038C32.0162 51.8955 31.8664 52.0023 31.6152 52.0023C31.5469 52.0023 31.4687 51.9968 31.3828 51.9803C30.5149 51.8195 30.3904 50.0285 29.8948 49.8876C29.8689 49.8804 29.8423 49.8767 29.8155 49.8765C29.6557 49.8765 29.5864 50.0197 29.5864 50.0197C29.8121 50.6299 29.68 50.8766 29.9245 51.347C30.1062 51.695 30.429 51.9825 30.5633 52.118C30.5633 52.118 30.527 52.3823 30.4884 52.5806V52.5795ZM28.8275 54.4575C28.5851 54.4575 28.3604 54.4608 28.16 54.4685L28.6887 52.8163C28.7713 52.5883 28.3527 52.2942 28.1809 52.0365C28.4408 52.2006 29.1149 52.5597 29.4399 52.7029C29.4068 52.7568 28.8275 54.4575 28.8275 54.4575ZM20.9697 39.5725L21.0457 36.701L21.6878 36.0192L22.091 36.8673L21.2957 39.6231L20.9697 39.5725ZM21.4323 40.4624C21.5369 40.6838 21.7253 40.8303 21.8586 40.914C21.8534 41.1866 21.8269 41.4584 21.7793 41.7269C21.7672 41.7875 21.7521 41.8474 21.7341 41.9064C21.7242 41.9439 21.7132 41.9736 21.7055 41.9989C21.4011 42.0001 21.0985 41.9529 20.8089 41.8591C20.4597 41.7291 19.9387 41.0881 20.0599 40.3787C20.2097 40.2862 20.56 40.089 20.8882 40.089C21.1393 40.089 21.3122 40.208 21.4323 40.4635V40.4624ZM28.8682 41.2334C28.3748 41.5991 27.1026 42.531 26.64 42.8559L22.2 42.054L22.2298 41.9351C22.2881 41.7038 22.3487 41.3876 22.3509 41.0165L26.0848 41.077L26.1564 41.0032C26.2126 40.9482 27.3956 39.7994 27.9981 39.1407C28.1412 39.3213 28.3208 39.4931 28.5554 39.644C28.475 40.0835 28.5102 40.708 28.8682 41.2334ZM22.8289 34.6335C23.362 35.1655 23.8863 35.4971 24.382 35.6799C24.317 35.9366 24.2333 36.4664 24.4712 36.9951C24.6673 37.4224 25.0219 37.7507 25.5341 37.9687C25.5754 38.3407 25.7196 38.6939 25.9503 38.9886C26.181 39.2833 26.4892 39.508 26.8404 39.6374C26.4384 40.045 26.0474 40.4283 25.8888 40.5825L22.1626 40.5241C22.0393 40.4651 21.9371 40.3698 21.8696 40.2509C21.863 40.2322 21.8509 40.2212 21.8431 40.2036L22.4511 40.3027C22.464 40.3034 22.4769 40.3034 22.4897 40.3027C22.6076 40.3027 22.71 40.2212 22.7287 40.1011C22.7389 40.0375 22.7236 39.9724 22.686 39.92C22.6485 39.8676 22.5918 39.8322 22.5282 39.8214L21.7793 39.7024L22.6098 36.8265L21.8233 35.1655L20.5644 36.5027L20.4873 39.4931L19.6402 39.3588C19.5103 39.3334 19.3847 39.4282 19.3616 39.5614C19.352 39.6253 19.3679 39.6904 19.4058 39.7427C19.4437 39.795 19.5006 39.8304 19.5642 39.8412L19.9189 39.8963C19.8433 39.9385 19.7697 39.9845 19.6986 40.034L19.6259 40.0846L19.6061 40.1727C19.4001 41.0132 19.866 41.8084 20.3694 42.1664L20.3518 42.271C20.341 42.3337 20.3431 42.398 20.3579 42.4599C20.3727 42.5218 20.3998 42.5801 20.4377 42.6312C20.4811 42.6943 20.5393 42.7457 20.6074 42.7809C20.6754 42.8161 20.751 42.8339 20.8276 42.8327C21.0457 42.8327 21.2351 42.6819 21.288 42.4605C21.4753 42.4825 21.6471 42.488 21.7649 42.488H21.8641L26.7523 43.3736L26.8349 43.3185C27.2248 43.0453 28.7096 41.9604 29.1964 41.6002C29.3308 41.7159 29.4806 41.8205 29.6602 41.9064C29.5026 42.4373 29.4927 43.2535 30.115 43.8979H17.6598V36.6833C17.6598 35.985 17.4561 35.2823 17.2148 34.6335H22.8289ZM22.156 23.7479L25.4052 24.8549V29.9799L23.0129 28.7143L22.156 23.7479ZM30.0864 23.13C30.0864 21.8787 27.9881 20.7542 25.6729 20.7542H25.6597C23.3444 20.7542 21.2473 21.8787 21.2473 23.13L21.2935 23.4373L22.2176 28.7639L21.288 29.3036L18.8868 30.7135H18.8957C18.8957 30.7135 18.3548 30.991 18.1026 31.1618C17.1884 31.8006 16.9946 32.7302 17.5266 33.1146C17.6565 32.3557 18.2535 31.5627 19.3737 31.5627C20.1789 31.5627 20.7946 31.9812 21.288 32.6069C21.4169 32.7644 21.538 32.934 21.6515 33.1135C21.7892 33.3437 21.9291 33.5453 22.0678 33.7381H15.8799C16.3359 34.6556 16.7677 35.6271 16.7677 36.6833V50.4295C16.7677 53.7581 19.3164 55.3463 22.0756 55.3463C24.2069 55.3463 24.4943 55.2472 25.6696 56.4258C26.8404 55.2472 27.1279 55.3463 29.2603 55.3463C32.0206 55.3463 34.5671 53.7581 34.5671 50.4306V36.6844C34.5671 35.6271 34.9989 34.6556 35.4549 33.7381H29.2647C29.4035 33.5453 29.5423 33.3437 29.6811 33.1146C29.7956 32.934 29.9168 32.7644 30.0424 32.6069C30.5413 31.979 31.1548 31.5627 31.9611 31.5627C33.078 31.5627 33.6749 32.3557 33.8082 33.1146C34.3391 32.7302 34.1475 31.7995 33.2267 31.1618C32.981 30.991 32.4391 30.7124 32.4391 30.7124H32.4468L30.0424 29.3036L29.1171 28.7639L30.0424 23.4373L30.0864 23.1289V23.13ZM74.2855 34.3813C74.465 34.0982 74.649 33.8196 74.8406 33.542H74.953V39.8071H77.7881V29.1714H74.953L71.7786 34.0211C71.6038 34.291 71.4258 34.5587 71.2444 34.8241C71.0681 35.0862 70.8875 35.3638 70.7113 35.6502H70.6V29.1703H67.7649V39.806H70.6C71.1342 39.0658 71.6574 38.3091 72.1652 37.5337C72.6774 36.7571 73.1917 35.9916 73.7094 35.2371C73.9165 34.9508 74.1092 34.6622 74.2866 34.3802L74.2855 34.3813ZM83.2987 35.3924H87.5172V39.8071H90.3524V29.1714H87.5183V33.2171H83.2998V29.1714H80.4646V39.8071H83.2998V35.3924H83.2987ZM98.806 37.3717C98.5229 37.5744 98.1528 37.6769 97.6957 37.6769H95.8651V35.0664H97.6726C98.1462 35.0664 98.5229 35.1755 98.806 35.3913C99.0847 35.6094 99.2245 35.9366 99.2245 36.3716C99.2245 36.8342 99.0847 37.1691 98.806 37.3717ZM102.061 36.3948C102.061 35.3043 101.683 34.4606 100.934 33.857C100.181 33.2567 99.1728 32.9549 97.9083 32.9549H95.8651V29.1714H93.0289V39.8082H98.0339C99.2554 39.8082 100.233 39.5328 100.964 38.992C101.696 38.4457 102.061 37.5821 102.061 36.3948ZM135.647 37.6769C135.299 37.8355 134.935 37.9291 134.551 37.9577V31.0847C135.481 31.1585 136.198 31.5087 136.699 32.1388C137.203 32.771 137.455 33.5508 137.455 34.4771C137.455 35.0312 137.372 35.5158 137.209 35.9366C137.065 36.329 136.847 36.6905 136.567 37.0017C136.302 37.2902 135.994 37.516 135.647 37.6769ZM131.889 37.9379C131.498 37.9095 131.114 37.8137 130.755 37.6548C130.398 37.4964 130.079 37.2662 129.815 36.9785C129.537 36.6717 129.321 36.3137 129.18 35.9244C129.022 35.5114 128.944 35.0312 128.944 34.4771C128.944 33.5519 129.202 32.771 129.715 32.1388C130.228 31.5087 130.954 31.1585 131.889 31.0847V37.9379ZM138.542 38.4137C139.047 37.9263 139.448 37.3418 139.721 36.6955C140.009 36.0291 140.156 35.268 140.156 34.411C140.156 33.6158 140.014 32.891 139.732 32.2379C139.462 31.6022 139.064 31.0287 138.564 30.5527C138.049 30.0705 137.446 29.6937 136.786 29.4435C136.071 29.1708 135.316 29.0128 134.551 28.9754V24.9749L131.889 25.9993V28.9754C131.127 29.0143 130.376 29.1799 129.669 29.4655C128.978 29.7497 128.377 30.1264 127.871 30.5967C127.367 31.0659 126.968 31.6266 126.678 32.2709C126.382 32.9451 126.234 33.6748 126.243 34.411C126.243 35.268 126.378 36.0324 126.646 36.7076C126.901 37.3623 127.293 37.9549 127.795 38.4457C128.293 38.9336 128.888 39.3114 129.579 39.5802C130.32 39.8562 131.1 40.013 131.889 40.045V44.551L134.573 43.5278V40.024C135.328 39.9874 136.072 39.8259 136.774 39.546C137.431 39.287 138.031 38.9024 138.541 38.4137H138.542ZM152.611 35.9355C152.465 36.3278 152.247 36.6895 151.969 37.0017C151.704 37.2902 151.395 37.5171 151.049 37.6758C150.703 37.8346 150.332 37.9301 149.952 37.9577V31.0847C150.88 31.1574 151.598 31.5087 152.1 32.1388C152.603 32.771 152.853 33.5508 152.853 34.4782C152.853 35.029 152.775 35.5158 152.611 35.9366V35.9355ZM147.293 37.9368C146.9 37.9092 146.514 37.8134 146.154 37.6537C145.799 37.4956 145.48 37.2657 145.218 36.9785C144.938 36.672 144.722 36.3135 144.58 35.9233C144.424 35.5114 144.347 35.0301 144.347 34.4782C144.347 33.5508 144.602 32.771 145.117 32.1388C145.63 31.5087 146.356 31.1585 147.293 31.0847V37.9368ZM155.123 36.6966C155.412 36.0291 155.556 35.268 155.556 34.4121C155.556 33.6158 155.415 32.8899 155.133 32.2379C154.864 31.6021 154.466 31.0285 153.966 30.5527C153.451 30.0705 152.846 29.6937 152.187 29.4435C151.471 29.17 150.717 29.012 149.952 28.9754V24.9749L147.293 25.9993V28.9754C146.53 29.0141 145.779 29.1798 145.07 29.4655C144.408 29.7306 143.8 30.1139 143.275 30.5967C142.768 31.067 142.371 31.6255 142.081 32.2709C141.784 32.9453 141.636 33.6754 141.645 34.4121C141.645 35.268 141.777 36.0335 142.048 36.7076C142.316 37.3806 142.698 37.961 143.198 38.4479C143.696 38.9347 144.29 39.3114 144.982 39.5791C145.723 39.8557 146.503 40.0129 147.293 40.045V44.5499L149.975 43.5289V40.024C150.73 39.9869 151.473 39.8258 152.176 39.5471C152.832 39.2863 153.432 38.9011 153.942 38.4126C154.448 37.9255 154.849 37.3414 155.123 36.6955V36.6966ZM56.2767 27.126H60.4039V39.8192H63.3525V27.126H67.3419V24.65H56.2767V27.126ZM113.861 29.2265H110.627L106.828 33.7458V29.1714H104.016V39.8181H106.828V34.6413L110.538 39.8181H113.882L109.709 34.1214L113.86 29.2265H113.861ZM121.76 35.7945C121.656 36.1877 121.506 36.5302 121.313 36.8287C121.116 37.1261 120.874 37.3574 120.582 37.5238C120.277 37.6948 119.933 37.7815 119.584 37.7749C118.823 37.7749 118.24 37.4863 117.835 36.9158C117.43 36.343 117.228 35.5345 117.228 34.4893C117.228 33.5629 117.425 32.793 117.812 32.185C118.203 31.5759 118.77 31.2708 119.517 31.2708C120.309 31.2708 120.907 31.5726 121.312 32.174C121.716 32.7765 121.917 33.5618 121.917 34.5344C121.917 34.9838 121.865 35.4024 121.76 35.7945ZM123.316 30.4656C122.857 29.9834 122.298 29.6084 121.678 29.3675C121.011 29.1082 120.3 28.9789 119.585 28.9864C118.827 28.9864 118.129 29.1131 117.492 29.3675C116.851 29.6208 116.303 29.9843 115.84 30.4546C115.382 30.9261 115.025 31.5076 114.772 32.1949C114.52 32.8833 114.394 33.6621 114.394 34.5344C114.394 35.3748 114.517 36.1359 114.762 36.8177C114.984 37.4628 115.336 38.0552 115.797 38.558C116.244 39.0349 116.781 39.4061 117.414 39.6683C118.044 39.9282 118.752 40.0582 119.54 40.0582C120.256 40.0651 120.967 39.9357 121.635 39.6771C122.257 39.4343 122.819 39.0601 123.282 38.58C123.744 38.0998 124.104 37.5171 124.362 36.8287C124.623 36.1403 124.753 35.3594 124.753 34.4893C124.753 33.6488 124.626 32.8866 124.373 32.2059C124.143 31.5599 123.783 30.9677 123.316 30.4656ZM66.7703 52.9044C66.7703 52.2931 66.583 51.8162 66.2085 51.4725C65.834 51.13 65.3131 50.9582 64.6478 50.9582H61.5604V54.8364H64.6478C65.3241 54.8364 65.8462 54.6734 66.2162 54.3451C66.5852 54.018 66.7703 53.5378 66.7703 52.9044ZM64.585 49.9085C65.6314 49.9085 66.4508 50.1585 67.0478 50.6564C67.6437 51.1542 67.9422 51.9065 67.9422 52.9132C67.9422 53.888 67.6525 54.6348 67.0721 55.1536C66.4905 55.6735 65.6776 55.9334 64.6324 55.9334H60.4028V45.5864H66.9762V46.6823H61.5604V49.9096H64.585V49.9085ZM74.1346 52.6114C73.8335 52.438 73.5162 52.2941 73.1873 52.1819C72.8201 52.0686 72.4371 52.0151 72.0528 52.0233C71.5473 52.0233 71.1221 52.1576 70.7752 52.4286C70.4271 52.6985 70.2542 53.0884 70.2542 53.5961C70.2542 54.105 70.4007 54.4916 70.6958 54.7571C70.9899 55.0214 71.4162 55.1536 71.9735 55.1536C72.3833 55.1327 72.7754 55.0214 73.1488 54.8199C73.5116 54.6264 73.8438 54.3804 74.1346 54.0896V52.6114ZM72.4714 48.0338C73.3691 48.0338 74.0575 48.2431 74.5377 48.6616C75.019 49.0802 75.2592 49.708 75.2592 50.5451V55.9323H74.1346V55.1701H74.1026C73.6907 55.5413 73.281 55.7847 72.8745 55.9015C72.4969 56.0138 72.1054 56.0728 71.7114 56.0766C71.4052 56.0766 71.099 56.0303 70.7928 55.9411C70.4906 55.8536 70.2082 55.7085 69.9612 55.5138C69.707 55.3111 69.5015 55.0541 69.3598 54.7615C69.2056 54.4542 69.1285 54.0786 69.1285 53.6358C69.1285 53.2558 69.2012 52.9121 69.3433 52.607C69.4864 52.2997 69.6858 52.0387 69.9458 51.8217C70.217 51.5978 70.5289 51.4284 70.8644 51.3227C71.2168 51.2071 71.6056 51.1487 72.0275 51.1487C72.3656 51.1487 72.706 51.1818 73.0497 51.2511C73.3922 51.3172 73.7546 51.456 74.1346 51.6642V50.7026C74.1346 50.1045 73.9837 49.6673 73.6841 49.3963C73.3845 49.1231 72.9351 48.9877 72.3359 48.9877C71.9788 48.9849 71.6231 49.0331 71.2796 49.1309C70.9434 49.2297 70.6162 49.3568 70.3015 49.5109L69.9215 48.6275C70.2916 48.4513 70.6815 48.3081 71.0935 48.1979C71.5054 48.0878 71.9636 48.0338 72.4703 48.0338H72.4714ZM82.1796 55.9323V52.357H78.1262V55.9323H76.9995V48.1605H78.124V51.3712H82.1774V48.1605H83.3031V55.9323H82.1785H82.1796ZM90.7467 48.1924L87.2474 51.7688L90.8425 55.9323H89.4954L86.1382 51.9748V55.9334H85.0147V48.1924H86.1382V51.6256L89.4646 48.1924H90.7467Z" fill="#151515"/>
</svg>
